<svg xmlns="http://www.w3.org/2000/svg" width="18.003" height="18" viewBox="0 0 18.003 18"><defs><style>.a{fill:#f0f0f0;}.b{fill:#d80027;}</style></defs><g transform="translate(0.504 0.503)"><circle class="a" cx="9" cy="9" r="9" transform="translate(-0.502 -0.503)"/><g transform="translate(-0.504 0.389)"><path class="b" d="M372.392,33.51A9,9,0,0,0,367.3,25.4V41.618A9,9,0,0,0,372.392,33.51Z" transform="translate(-354.389 -25.402)"/><path class="b" d="M0,33.51a9,9,0,0,0,5.088,8.108V25.4A9,9,0,0,0,0,33.51Z" transform="translate(0 -25.402)"/><path class="b" d="M171.653,182l1.565-.783-.783-.391v-.783l-1.565.783.783-1.565h-.783l-.783-1.174-.783,1.174h-.783l.783,1.565-1.565-.783v.783l-.783.391,1.565.783-.391.783H169.7v1.174h.783v-1.174h1.565Z" transform="translate(-161.087 -172.718)"/></g></g></svg>