<svg xmlns="http://www.w3.org/2000/svg" width="18" height="18" viewBox="0 0 18 18"><defs><style>.a{fill:#252f6b;}.b{fill:#273375;}.c{fill:#f3f4f5;}.d{fill:#29337a;}.e{fill:#fff;}.f{fill:#d32030;}</style></defs><path class="a" d="M236.835,0V18a9,9,0,0,0,0-18Z" transform="translate(-227.816)"/><path class="b" d="M9.008,0a9,9,0,1,0,0,18C13.983,18,13.983,0,9.008,0Z"/><g transform="translate(4.211 4.158)"><path class="c" d="M112.042,325.208l.606-.755-.936.169-.325-.906-.353.906-.955-.169.607.738-.63.738.961-.151.324.888.353-.887.98.175Z" transform="translate(-110.056 -315.576)"/><path class="c" d="M322.661,359.2l.343-.428-.53.1-.184-.513-.2.513-.541-.1.344.418-.357.418.544-.086.184.5.2-.5.555.1Z" transform="translate(-313.517 -348.898)"/><path class="c" d="M322.661,109.891l.343-.428-.53.1-.184-.513-.2.513-.541-.1.344.418-.357.418.544-.086.184.5.2-.5.555.1Z" transform="translate(-313.517 -109.046)"/><path class="c" d="M381.245,174.384l.343-.428-.53.1-.184-.513-.2.513-.542-.1.344.419-.357.418.544-.086.184.5.2-.5.555.1Z" transform="translate(-369.879 -171.093)"/><path class="c" d="M271.982,203.059l.343-.428-.53.1-.184-.513-.2.513-.541-.1.344.418-.357.418.544-.086.184.5.2-.5.555.1Z" transform="translate(-264.759 -198.681)"/></g><path class="d" d="M39.523,91.713q-.211.272-.4.56h.963Z" transform="translate(-37.637 -88.235)"/><path class="d" d="M172.043,214.888h.865l-.865-.865Z" transform="translate(-165.519 -205.907)"/><path class="d" d="M81.282,46.135c-.206.152-.4.313-.6.482l.6.6Z" transform="translate(-77.625 -44.386)"/><path class="d" d="M73.6,214.881h.865v-.865Z" transform="translate(-70.804 -205.9)"/><path class="d" d="M174.5,0a8.976,8.976,0,0,0-2.457.343V2.828L174.5.371V0Z" transform="translate(-165.519)"/><path class="d" d="M205.207,183.368v-1.247H203.96Z" transform="translate(-196.226 -175.215)"/><path class="d" d="M.371,184.2l2.075-2.075H.244A8.99,8.99,0,0,0,0,184.2Z" transform="translate(0 -175.215)"/><path class="d" d="M203.938,74.838h1.248V73.591Z" transform="translate(-196.205 -70.8)"/><g transform="translate(0.244 0.343)"><path class="e" d="M187.232,172.3v-.262l-1.247-1.247h1.247v-.447h-1.955Z" transform="translate(-178.495 -164.229)"/><path class="e" d="M33.1,89.334h-.963c-.1.146-.187.295-.275.446h1.891L32.63,88.658l-.091.116Z" transform="translate(-30.897 -85.639)"/><path class="e" d="M69.211,197.441v.865h.446v-1.519l-1.519,1.519h.207Z" transform="translate(-65.799 -189.669)"/><path class="e" d="M160.724,9.046q-.226.064-.446.139v3l2.9-2.9V9.074l-2.457,2.457Z" transform="translate(-154.444 -9.046)"/><path class="e" d="M9.825,170.8l.016-.016h0l.431-.431H6.546q-.064.221-.118.446h2.2L6.555,172.87H7.75L9.825,170.8Z" transform="translate(-6.428 -164.232)"/><path class="e" d="M9.772,184.2l2.075-2.075Z" transform="translate(-9.645 -175.558)"/><path class="e" d="M163.559,44.977v-.446h-1.248l1.248-1.247V42.089l-2.888,2.888Z" transform="translate(-154.822 -40.836)"/><path class="e" d="M205.185,73.591l-1.248,1.247Z" transform="translate(-196.447 -71.143)"/><path class="e" d="M65.857,39.414l-.6-.6q-.317.279-.608.587l1.2,1.2h0l.013.013.434.434V38.028c-.152.1-.3.2-.446.307v1.078Z" transform="translate(-62.445 -36.929)"/><path class="e" d="M160.72,173.786l.865.865h1.14l-2.451-2.451v2.451h.446Z" transform="translate(-154.44 -166.013)"/></g><g transform="translate(0.361 0.482)"><path class="f" d="M96.417,106.081l.013.013Z" transform="translate(-93.122 -102.541)"/><path class="f" d="M16.642,19.146,16.2,18.7h1.955V16.724H15.263l-.015.015v-.015h.015l2.888-2.888V12.817l-2.9,2.9v-3a8.949,8.949,0,0,0-1.975.96v3.027l.015.015h-.015v-.015l-.434-.433,0,0h-.015v-.015l-1.2-1.2q-.248.263-.475.544l1.123,1.122H10.379A8.914,8.914,0,0,0,9.532,18.7h3.725l.015-.016V18.7h-.015l-.431.431v.016h-.016l-2.075,2.075h1.018L13.273,19.7v1.519h1.975V18.769L17.7,21.221h.337c.038-.04.078-.08.115-.121v-.445Z" transform="translate(-9.532 -12.722)"/><path class="f" d="M160.274,18.138l2.9-2.9h0Z" transform="translate(-154.558 -15.14)"/><path class="f" d="M96.018,181.718V181.7l-.016.016Z" transform="translate(-92.723 -175.294)"/><path class="f" d="M107.791,169.93l-.016.016h.016Z" transform="translate(-104.05 -163.969)"/><path class="f" d="M160.274,118.272l.015-.015h-.015Z" transform="translate(-154.558 -114.255)"/><path class="f" d="M96.417,106.1h.015l0,0-.013-.013Z" transform="translate(-93.122 -102.541)"/><path class="f" d="M108.2,117.868l-.015-.015v.015Z" transform="translate(-104.445 -113.866)"/></g></svg>