<svg xmlns="http://www.w3.org/2000/svg" width="17.997" height="18" viewBox="0 0 17.997 18"><defs><style>.a{fill:#03aa6f;}.b{fill:#86daf1;}</style></defs><g transform="translate(0 -0.067)"><g transform="translate(0.7 0.718)"><path class="a" d="M288.051,28.752l-.931.621-1.552-.31-.931-.31-1.241.31-.931-.31.621-1.241h1.241l1.216-.608A8.888,8.888,0,0,1,288.051,28.752Z" transform="translate(-273.236 -26.611)"/><path class="a" d="M27.593,19.5l-.31.931-.931.31L25.421,22.3l-1.552.931-2.172.31v.931l.621.621v1.241l-.931-.621-.931-.621-.54-1.623A8.993,8.993,0,0,1,24.85,18.6l.881.59Z" transform="translate(-19.916 -18.604)"/><path class="a" d="M77.107,214.734l-.31,1.552-1.241,1.241v.931l-1.241.931v1.552l-.931-.31-.621-1.552v-3.1l-1.552-.31-.621-1.241v-.931l.621-.621.931-.931.621,1.241h2.172l.931,1.552Z" transform="translate(-68.809 -205.137)"/><path class="a" d="M280.869,115.4a8.99,8.99,0,0,1-.5,9.579l-.838-.838V122.9l-.621-1.241-.621-1.241v-1.241l-.931-.621-1.241.31-2.172-.931-.31-2.172.931-.931h1.862l.621.931,1.862.31,1.862-.621Z" transform="translate(-264.721 -111.44)"/></g><path class="b" d="M10.86,3.171l1.241-.31.931.31,1.552.31.931-.621a8.866,8.866,0,0,1,1.334,1.81l-.093.053-1.862.621-1.862-.31L12.411,4.1H10.549l-.931.931.31,2.173,2.172.931,1.241-.31.931.621V9.69l.621,1.242.621,1.242v1.242l.838.838A9,9,0,0,1,.7,5.583l.54,1.624.931.621.931.621-.621.621V10L3.1,11.243l1.552.31v3.1l.621,1.552.931.31V14.968l1.241-.931v-.931l1.241-1.242L9,10.311H7.757L6.826,8.759H4.653L4.033,7.517,3.1,8.449V7.207l-.621-.621V5.655l2.172-.31,1.552-.931L7.136,2.86l.931-.31.31-.931-1.862-.31L5.634.718a9,9,0,0,1,7.373.292l-1.216.608H10.549L9.929,2.86Z" transform="translate(0 0)"/></g></svg>