<svg xmlns="http://www.w3.org/2000/svg" width="24" height="24" viewBox="0 0 24 24"><defs><style>.a{fill:none;}.b{fill:#deb299;}</style></defs><g transform="translate(-210 -3014)"><rect class="a" width="24" height="24" transform="translate(210 3014)"/><path class="b" d="M11.412,1.509,14.469,7.7a.416.416,0,0,0,.312.225l6.843,1a.411.411,0,0,1,.225.7l-4.931,4.821a.411.411,0,0,0-.121.367l1.167,6.81a.411.411,0,0,1-.6.433l-6.136-3.205a.389.389,0,0,0-.378,0l-6.12,3.216a.411.411,0,0,1-.6-.433L5.3,14.822a.422.422,0,0,0-.115-.367L.257,9.634a.411.411,0,0,1,.225-.7l6.843-1a.416.416,0,0,0,.312-.225l3.035-6.2a.411.411,0,0,1,.74,0Z" transform="translate(210.928 3013.876)"/></g></svg>