<svg xmlns="http://www.w3.org/2000/svg" width="40" height="40" viewBox="0 0 40 40"><defs><style>.a,.b{fill:none;}.b{stroke:#fff;stroke-linecap:round;stroke-linejoin:round;stroke-width:3px;}</style></defs><rect class="a" width="40" height="40"/><path class="b" d="M35.978,27.356v5.1a3.4,3.4,0,0,1-3.712,3.4,33.742,33.742,0,0,1-14.7-5.217,33.172,33.172,0,0,1-10.217-10.2A33.589,33.589,0,0,1,2.126,5.7,3.4,3.4,0,0,1,5.514,2h5.108a3.4,3.4,0,0,1,3.406,2.923A21.786,21.786,0,0,0,15.22,9.7a3.394,3.394,0,0,1-.766,3.586l-2.163,2.158a27.218,27.218,0,0,0,10.217,10.2l2.163-2.158a3.411,3.411,0,0,1,3.593-.765,21.9,21.9,0,0,0,4.785,1.19,3.4,3.4,0,0,1,2.929,3.45Z" transform="translate(0.955 1.066)"/></svg>