<svg xmlns="http://www.w3.org/2000/svg" width="24" height="24" viewBox="0 0 24 24"><defs><style>.a{fill:none;}.b{fill:#f6b81f;}.c{fill:#e0a422;}.d{fill:#cb9425;}</style></defs><rect class="a" width="24" height="24"/><g transform="translate(2 3)"><path class="b" d="M1369.053,279.447l3.09,6.254,6.91,1-5,4.868,1.18,6.874-6.181-3.246-6.181,3.246,1.181-6.874-5-4.868,6.91-1Z" transform="translate(-1359.053 -279.447)"/><path class="c" d="M1367.022,279.447v10.267l3.078-4.03Z" transform="translate(-1357.015 -279.447)"/><path class="c" d="M1376.984,285.237,1372,290.092l-4.981-1.826Z" transform="translate(-1356.983 -277.973)"/><path class="c" d="M1359.053,285.237l4.981,4.855,4.981-1.826Z" transform="translate(-1359.053 -277.973)"/><g transform="translate(3.844 10.319)"><path class="c" d="M1362.1,296.341l6.157-3.237V287.66Z" transform="translate(-1362.097 -287.66)"/><path class="d" d="M1367.022,287.66V293.1l6.157,3.237Z" transform="translate(-1360.865 -287.66)"/></g></g></svg>