<svg xmlns="http://www.w3.org/2000/svg" width="18" height="18" viewBox="0 0 18 18"><defs><style>.a{fill:#f0f0f0;}.b{fill:#0052b4;}.c{fill:#d80027;}</style></defs><g transform="translate(0)"><ellipse class="a" cx="8.864" cy="8.864" rx="8.864" ry="8.864" transform="translate(0.136 0.136)"/><g transform="translate(0.31 0.31)"><path class="b" d="M10.369,100.142a8.967,8.967,0,0,0-1.55,3.132H13.5Z" transform="translate(-8.819 -96.931)"/><path class="b" d="M374.687,103.275a8.969,8.969,0,0,0-1.55-3.132l-3.132,3.132Z" transform="translate(-357.307 -96.932)"/><path class="b" d="M8.819,322.784a8.968,8.968,0,0,0,1.55,3.132l3.132-3.132Z" transform="translate(-8.819 -311.746)"/><path class="b" d="M325.914,10.369a8.968,8.968,0,0,0-3.132-1.55V13.5Z" transform="translate(-311.744 -8.819)"/><path class="b" d="M100.142,373.137a8.969,8.969,0,0,0,3.132,1.55V370Z" transform="translate(-96.931 -357.307)"/><path class="b" d="M103.274,8.819a8.968,8.968,0,0,0-3.132,1.55l3.132,3.132Z" transform="translate(-96.931 -8.819)"/><path class="b" d="M322.783,374.687a8.97,8.97,0,0,0,3.132-1.55L322.783,370Z" transform="translate(-311.745 -357.307)"/><path class="b" d="M370.005,322.784l3.132,3.132a8.968,8.968,0,0,0,1.55-3.132Z" transform="translate(-357.307 -311.746)"/></g><g transform="translate(0 0)"><path class="c" d="M17.924,7.826h-7.75V.076a9.083,9.083,0,0,0-2.348,0v7.75H.076a9.083,9.083,0,0,0,0,2.348h7.75v7.75a9.083,9.083,0,0,0,2.348,0v-7.75h7.75a9.083,9.083,0,0,0,0-2.348Z" transform="translate(0)"/><path class="c" d="M322.783,322.783h0L326.8,326.8q.277-.277.529-.578l-3.438-3.438h-1.107Z" transform="translate(-311.435 -311.435)"/><path class="c" d="M79,322.784h0L74.98,326.8q.277.277.578.529L79,323.891Z" transform="translate(-72.344 -311.436)"/><path class="c" d="M64.478,79h0L60.462,74.98q-.277.277-.529.578L63.371,79h1.107Z" transform="translate(-57.826 -72.344)"/><path class="c" d="M322.783,64.479h0l4.016-4.016q-.277-.277-.578-.529l-3.438,3.438Z" transform="translate(-311.435 -57.827)"/></g></g></svg>