<svg xmlns="http://www.w3.org/2000/svg" width="60" height="60" viewBox="0 0 60 60"><defs><style>.a{fill:#d8a286;}.a,.b{fill-rule:evenodd;}.b{fill:#deb299;}.c{fill:#fff;}</style></defs><path class="a" d="M1424.867,970.4c.292-.142,1.4-.194,1.774-.384C1424.829,970.147,1424.828,970.077,1424.867,970.4Z" transform="translate(-1391.934 -911.119)"/><path class="a" d="M1381,927.461a7.752,7.752,0,0,0-.017,2.656C1380.9,929.338,1381.135,928.177,1381,927.461Z" transform="translate(-1380.316 -899.301)"/><path class="a" d="M1420.278,970.477a.587.587,0,0,0,.326.066l.462-.028-.355-.068C1420.483,970.422,1420.284,970.421,1420.278,970.477Z" transform="translate(-1390.724 -911.229)"/><path class="a" d="M1422.673,970.486l-.167.068.361.045c0-.029.167-.054.1-.077A2.25,2.25,0,0,0,1422.673,970.486Z" transform="translate(-1391.312 -911.244)"/><path class="a" d="M1426.51,889.047l3.172.7,1.208.364a19.757,19.757,0,0,1,2.544.923l-.057-.052,1.221.549c.381.122.833.432,1.208.573.66.377,1.345.707,1.919,1.095a3.625,3.625,0,0,0,.786.459l1.534,1.048c.2.091.528.392.7.468a4.267,4.267,0,0,0,.389.225,4.4,4.4,0,0,0-.968-.847l-1.816-1.241a5.629,5.629,0,0,0-1.581-.912l-1.192-.635a17.308,17.308,0,0,0-2.063-.9l-.77-.328a4.835,4.835,0,0,0-1.3-.448l-.485-.156a1.747,1.747,0,0,0-.417-.126l-.385-.105a20.022,20.022,0,0,0-3.634-.889c-.325-.047-.512-.035-.523.032S1426.189,888.99,1426.51,889.047Zm11.408,4.191.028.018a1.975,1.975,0,0,1,.4.261l-.4-.261a.3.3,0,0,0-.032-.013Z" transform="translate(-1392.239 -888.526)"/><path class="a" d="M1455.812,954l-.013.02c-.015.024-.026.052-.042.074Z" transform="translate(-1400.097 -906.65)"/><path class="b" d="M1440.139,923.294c0-.017,0-.035,0-.052a9.834,9.834,0,0,0,.183-2.37,1.521,1.521,0,0,0-.069.191,2.475,2.475,0,0,0-.011-.483l-.023-.107.013-.142c.008-.641.015-1.282.024-1.959l-.074-.387a32.344,32.344,0,0,0-1.012-5.553l-.155-.4a47.58,47.58,0,0,0-1.615-4.513l-.225-.321c-.067-.162-.121-.29-.174-.419a1.822,1.822,0,0,0-.362-.753,12.324,12.324,0,0,0-1.6-2.665,44.894,44.894,0,0,0-2.984-3.549c-.528-.549-.833-1.117-1.372-1.616-.525-.461-.614-.279-1.364-.888-.807-.6-1.588-1.28-2.461-1.9l-.051.067c-.011-.042-.048-.105.051-.067l-.34-.235-.05.069-1.054-.716-.391-.155-.126-.058-.077-.068c-.3-.235-.734-.376-.892-.576.2,0,.855.378.915.284a5,5,0,0,0-2.478-.992c-.238-.134-.575-.3-.55-.355.195-.157-.336-.334-1.026-.562-.561-.178-.727-.131-.708.006l-.378-.156a1.467,1.467,0,0,0-.413-.161l.054.045a3.826,3.826,0,0,0-.408-.173c-.483-.168-1.251-.357-.994-.48.206-.084-.11-.223-.674-.393a3.829,3.829,0,0,0-1.427-.283c.564.174,1.221.494,1.009.61-.242-.043-.522-.114-.807-.179a2.794,2.794,0,0,0-.55-.449c-.061-.077-.127-.144-.4-.212a.856.856,0,0,0-.469-.549c.268.018.557.045.844.073a9.172,9.172,0,0,1,2.489.771,5.673,5.673,0,0,0,1.643.5l2.3.956a53.571,53.571,0,0,1,5.4,2.866l-.035-.014c.971.591,1.815,1.46,2.757,2.153a7.817,7.817,0,0,1,1.221,1.079l.442.412c.3.259.606.6.9.912.9,1.091,1.764,2.039,2.52,3.074l-.069-.164.038.058.031.105a6.181,6.181,0,0,0,.75,1l.128.175.1.183a14.587,14.587,0,0,0,1.075,1.888,3.71,3.71,0,0,1,.2.34c.2.451.423.9.618,1.243.042.1.049.1.068.09.034.026.033-.013.012-.123a10.389,10.389,0,0,0-1.531-3.356l-.685-1.058a18.453,18.453,0,0,0-4.9-5.585,3.028,3.028,0,0,0-.666-.546,3.109,3.109,0,0,0-.684-.472l-.641-.511-1.037-.873a20.237,20.237,0,0,0-5.037-3.028c-.808-.373-1.7-.638-2.554-1.079-.63-.347-1.464-.677-1.191-.267.04.09-.5-.067-.844-.171-.647-.181-1.385-.44-2.083-.582a.986.986,0,0,1-.276-.065,1.269,1.269,0,0,0-.484-.1.965.965,0,0,1-.314-.064,18.838,18.838,0,0,0-1.837-.489,4.727,4.727,0,0,0-.8-.165c-.038-.074-.152-.136-.481-.173a3.3,3.3,0,0,0-.447-.066l-.109.018-.037,0,.146-.021c-.075-.065-.224-.1-.6-.106l-.038-.012v.007c-.037-.047-.186-.061-.45-.065a.857.857,0,0,1-.3.016c-.692.051-1.385.149-2.074.267a6.251,6.251,0,0,0-1.19.034,31.832,31.832,0,0,0-4.938.7l0,.014,0,.014-.007-.027a12.969,12.969,0,0,0-2.5.581,4.4,4.4,0,0,0-1.25.322,5.25,5.25,0,0,0-.965.282c-.439.158-.262.209-.52.334a1.4,1.4,0,0,0-.425.276c-.115.089-.668.332-.527.383.063.048.183.056.462-.011.117.082.445.04.923-.088l.09-.054,0,.006a.32.32,0,0,0-.093.048l1,.168c.043.111.18.179.614.091-.235.143-.465.29-.681.445a6.525,6.525,0,0,0-1.843,1.113,18.331,18.331,0,0,0-2.557,1.919l.055-.044c-.4.422-1.068.809-1.351,1.2l0-.005a8.045,8.045,0,0,0-.673.652l-.06.092-.111.091-1.178,1.129a6.632,6.632,0,0,0-1.444,1.421c-.539.718-1.582,1.841-2.172,2.747a15.2,15.2,0,0,0-1.836,2.9l.048-.043c-.024.057-.03.053-.03.053l-.018-.011a27.2,27.2,0,0,0-1.629,3.227,10.654,10.654,0,0,0-.815,2.191c-.061.191-.122.383-.179.576a19.12,19.12,0,0,0-1.116,4.683,7,7,0,0,0-.052,2.3.391.391,0,0,1-.016.251,2.385,2.385,0,0,0-.093.759,8.351,8.351,0,0,0,.057,2.366l.023.028h0v0c-.005,0-.016,0-.023-.028a3.471,3.471,0,0,0,.07,1.269l.007,0a9.414,9.414,0,0,0,.133,1.234.573.573,0,0,1,.035.252,2.113,2.113,0,0,0,.079.8,3.484,3.484,0,0,0,.426,1.4h0a3.6,3.6,0,0,0,.343,1.021l.394,1.267a16.761,16.761,0,0,0,.821,2.057l.312.761a4.716,4.716,0,0,0,.6,1.215l.233.445a1.755,1.755,0,0,0,.206.376l.2.339a19.623,19.623,0,0,0,1.94,3.138c.2.258.336.379.391.34s-.037-.236-.223-.5l-1.745-2.687-.6-1.091a19.334,19.334,0,0,1-1.146-2.406l0,.077-.474-1.227c-.184-.35-.283-.878-.448-1.236-.055-.194-.112-.388-.17-.58.018.033.034.069.055.1l-.007,0c.047.083.079.137.127.223-.019-.091-.032-.152-.05-.237,0,.006,0,.014,0,.018v-.03l0,.012a2.065,2.065,0,0,0-.027-.338,2.631,2.631,0,0,0-.135-.78l-.017.005-.007,0,.024-.007a1.185,1.185,0,0,0-.019-.259,24.121,24.121,0,0,0,.873,2.667c.3.825.744,1.632,1.029,2.536.2.682.547,1.494.649,1.015.036-.092.308.4.473.707.327.577.662,1.272,1.054,1.857a.942.942,0,0,1,.149.237,1.216,1.216,0,0,0,.27.407.933.933,0,0,1,.176.263,12.978,12.978,0,0,0,3.528,4.462,5.873,5.873,0,0,1,.617.63,4.962,4.962,0,0,0,1.118,1.135,31.345,31.345,0,0,0,3.994,2.934l.008-.012.007-.012-.015.024a12.907,12.907,0,0,0,2.188,1.324,4.35,4.35,0,0,0,1.116.639,5.133,5.133,0,0,0,.886.47c.424.193.336.034.608.124a1.412,1.412,0,0,0,.5.1c.146.017.711.229.648.095-.01-.077-.089-.167-.334-.313-.024-.139-.285-.338-.716-.578l-.1-.024,0-.007a.342.342,0,0,0,.1.03l-.589-.815c.059-.129-.013-.3-.6-.632-.056-.115-.177-.252-.228-.38.429.2.9.381,1.316.523.445.15.707.136.74.055.108-.092-.391-.271-.69-.42-.358-.175-.632-.37-.653-.474-.04-.14.475.074.737.131a30.033,30.033,0,0,0,3.069.927,5.393,5.393,0,0,0,1.5.329l-.029-.02.033.006,0,.014a10.654,10.654,0,0,0,2.017.348.908.908,0,0,1-.154-.064l.033.007.121.058a7.766,7.766,0,0,0,1.94.163l-.064-.022.065.008v.014a13.337,13.337,0,0,0,3.231.108c.9-.134,2.445-.2,3.514-.435a15.748,15.748,0,0,0,3.391-.779l-.065,0c.057-.024.059-.017.059-.017l.006.02a27.485,27.485,0,0,0,6.173-2.419,20.677,20.677,0,0,0,3.693-2.182h0c.046.049.167.024.4-.146l.116-.138.005.005-.122.133a1.08,1.08,0,0,0,.4-.082,6.285,6.285,0,0,1-.9.658l.026-.02c-.316.173-.751.5-1.057.628-.7.23-1.417.892-2.183,1.238l-.638.307c-.431.139-.966.511-1.433.641l-.6.239a10.908,10.908,0,0,1-2.365.885l-.119.049-.093.023c-2.425.58-4.192,1.209-6.062,1.638a31.106,31.106,0,0,0,10.188-2.928l.7-.347a6.305,6.305,0,0,0,1.815-.942l.97-.6c.324-.159.712-.451,1.025-.633a2.3,2.3,0,0,1,.294-.2,5.027,5.027,0,0,0,1.014-.718l.317-.237c.138-.087.319-.179.423-.259l.449-.433a1.325,1.325,0,0,0,.428-.322l.036-.019-.006-.005c.06.007.176-.087.366-.266a.806.806,0,0,1,.2-.217,28.715,28.715,0,0,0,2.63-3.669,11.747,11.747,0,0,0,.8-1.387,3.882,3.882,0,0,0,.55-.924c.1-.133.2-.259.3-.379a23.684,23.684,0,0,0,1.523-4.691,6.288,6.288,0,0,0,.5-2.065,17.649,17.649,0,0,0,.425-3.132Zm-5.717-22.014-.017.012s.008-.006,0-.04Zm-37.213-10.206c-.008-.019-.053-.032.045-.082.028-.026.1-.038.128-.061C1397.3,891,1397.2,891.051,1397.21,891.074Zm3.7,56.72c-.008.02.015.06-.091.027-.039,0-.1-.041-.135-.045C1400.791,947.788,1400.9,947.817,1400.906,947.794Zm37.39-29.777h-.014v-.064Zm-.187,3.958a7.922,7.922,0,0,0-.008-1.831A6.557,6.557,0,0,1,1438.109,921.974Zm.05-11.95c-.031-.027-.1-.19-.132-.212l-.058-.238Zm-.244,3.64.015,0c-.008.036-.021.139-.047.078A.441.441,0,0,0,1437.915,913.664Zm-.576,5.968h.008l-.008.033Zm-.674-2.252a1.3,1.3,0,0,1,.032.283c-.018.252-.063-.027-.1-.153C1436.627,917.509,1436.658,917.508,1436.665,917.381Zm-.4,4.441.022,0-.014.063C1436.263,921.915,1436.265,921.822,1436.265,921.822Zm-6.127,15.517c.048-.087.1-.178.149-.266A11.019,11.019,0,0,1,1431.3,935a10.23,10.23,0,0,1-1.008,2.069.639.639,0,0,0-.021.118Zm-37.725-.435c-.032-.019-.078-.069-.108-.081l-.005,0-.019-.022-.068-.066,0,0a.5.5,0,0,1,.065.068l.024.017.057.035C1392.379,936.875,1392.4,936.886,1392.413,936.9Zm-5.159-1.5-.038-.048c.055.035.078.017.063-.047l-.016-.027c.008.007.014.016.023.023-.274-.514-.508-1.2-.274-1.131a16.178,16.178,0,0,0,.909,1.34l.5.719c.268.641.319.766.183.959-.163-.282-.406-.561-.657-.906a4.283,4.283,0,0,0-.67-.978C1387.294,935.371,1387.276,935.384,1387.254,935.4Zm.815-9.373.024-.007v.061Zm-.388,1.727a.194.194,0,0,0-.114-.061.831.831,0,0,1-.148.4c.034-.165.026-.416.148-.4a1.824,1.824,0,0,0,.036-.352C1387.654,927.513,1387.619,927.585,1387.681,927.755Zm-.941,5.086-.03-.057a2.6,2.6,0,0,0,.306.439l-.022.012Zm-.461-2.727-.118-.2-.054-.153C1386.15,929.855,1386.222,930,1386.279,930.114Zm-.918-3.74c-.024.006-.067-.052-.11-.139l-.013-.064C1385.272,926.263,1385.328,926.381,1385.36,926.374Zm-2.67-2.4a.529.529,0,0,1-.045-.115h.007A.292.292,0,0,0,1382.691,923.978Zm.766,2.762c-.055.017-.024.195.04.432a1.366,1.366,0,0,1-.154-.462C1383.352,926.614,1383.411,926.69,1383.457,926.741Zm1.406-1.609a1.714,1.714,0,0,1-.2-.586A4.339,4.339,0,0,0,1384.863,925.132Zm.214,1.54c-.019-.2-.041-.353.029-.37C1385.05,926.315,1385.058,926.476,1385.077,926.671Zm-2.782-9.06,0,.058h-.014v-.028l0-.03Zm-.177,1.174v.028c0,.01-.005.022-.007.032-.019.157-.035.287-.052.424l-.007.123v-.062l.007-.061a2.42,2.42,0,0,1,.052-.424Zm-.493,4.59a.082.082,0,0,0,.074-.035c.01.1.016.156.026.248a1.146,1.146,0,0,0-.1-.213c-.077-.009-.161-.14-.244-.272A.785.785,0,0,1,1381.625,923.375Zm3.816,7.854.154.372a1.385,1.385,0,0,0,.176.4l-.006-.069a3.65,3.65,0,0,0,.165.406c.219.454.628,1.121.356,1.029-.075-.031-.106-.007-.1.06l-.239-.461-.006,0c0-.217-.307-.6-.453-.94a3.692,3.692,0,0,0-.269-.849C1385.321,931.288,1385.392,931.292,1385.442,931.229Zm7.5-32.367.009-.013h0Zm19.92-6.029-.006.038c0,.031-.159.007-.162.028C1412.694,892.869,1412.852,892.868,1412.857,892.833Zm-1.948-.261c-.063-.006,0,0-.032-.006h-.157l.065-.008a3.058,3.058,0,0,1,.536-.025C1411.225,892.557,1410.975,892.54,1410.908,892.573Zm.414.285v0a.442.442,0,0,1-.095,0l-.029,0-.065.014c-.026,0-.045,0-.07,0,.036-.009.1-.006.135-.018v-.007l.029,0Zm20.978,37a.372.372,0,0,1,.088-.155l.016.007C1432.373,929.765,1432.291,929.952,1432.3,929.861Zm.068.2-.026.045.007-.055c-.01.009-.018.021-.027.031,0-.007,0-.013,0-.02s.021-.013.036-.033l-.011.021Zm3.018-8.45c-.012.089-.016.12-.032.239a.335.335,0,0,0-.027-.155C1435.35,921.608,1435.369,921.641,1435.386,921.612Zm-.575-14.524.017.036-.015-.03,0-.007-.039-.081a.75.75,0,0,1-.021-.1A.687.687,0,0,0,1434.812,907.088Zm-.13-2.832.014.022-.014-.022,0,0-.019-.03Zm-.408-.358-.013.007-.018-.029C1434.267,903.9,1434.273,903.9,1434.273,903.9Zm-8.829-7.654a4.649,4.649,0,0,0-.562-.279A1.81,1.81,0,0,1,1425.444,896.244Zm-1.766-.819a.454.454,0,0,1,.135.028l.055.036A.871.871,0,0,0,1423.679,895.425Zm.189-.119c.03-.048-.091-.156-.246-.282C1423.777,895.15,1423.906,895.246,1423.868,895.306Zm-3.351-1.825.148.07-.372-.127Zm-2.979-1.767.464.1.063.02a2.712,2.712,0,0,0-.533-.1Zm-5.583-3.031c-.029.007-.046.016-.1.026V888.7Zm-5,.162.07.005-.284.013Zm-20.11,14.264c0,.027,0,.071,0,.11v0A.205.205,0,0,1,1386.848,903.11Zm-.041.17-.005.009c-.035.015-.076.037-.114.054C1386.733,903.314,1386.77,903.3,1386.807,903.28Zm-5.535,17.742c-.013.04-.025.081-.056.047l-.005-.064C1381.243,921.072,1381.258,921.052,1381.271,921.021Zm.692,5.373,0,.008h0Zm3.074,5.9-.235-.572c.033.045.065.092.1.135a2.577,2.577,0,0,0,.217.552C1385.091,932.372,1385.066,932.331,1385.038,932.294Zm2,3.768a8.806,8.806,0,0,1-1.2-2.272c-.03-.095-.07-.191-.11-.287a2.556,2.556,0,0,1,.223.411,4.326,4.326,0,0,0,.459.786,1.613,1.613,0,0,0,.142.131,17.424,17.424,0,0,0,1.985,2.448l-.056.067C1388.25,937.515,1387.629,936.766,1387.041,936.063Zm1.749-5.568c.158-.007.2-.216.127-.6h0l.136.669C1389.159,930.979,1388.931,930.66,1388.791,930.495Zm.347,5.178c.033.018-.041-.129.051-.033s.019.067.062.155Zm1.974.019.031-.023c.026-.019.118.1.135.092C1391.251,935.78,1391.139,935.671,1391.111,935.692Zm.869,1.279c.087.048.25.234.321.257.041.048,0,0,.018.027l.11.109-.052-.039A2.992,2.992,0,0,1,1391.98,936.971Zm.428,5.634-.046-.051.21.188Zm1.174-.494c0-.008-.01-.024-.007-.032-.2-.217-.316-.4-.506-.612l-.06-.037s.034.014.007-.008l.054.045c.469.367.533.511.506.612.038.042.059.077.107.123Zm2.106-3.464.235.088c-.045.005.011.073.02.108A2.394,2.394,0,0,1,1395.688,938.647Zm1.528,3.378.008-.012.021.027C1397.217,942.021,1397.216,942.024,1397.216,942.024Zm3.138.238a1.235,1.235,0,0,0,.267.071A.612.612,0,0,1,1400.354,942.262Zm1.534.8c.028.012.029.009.029.009v0l-.028-.012c-.021-.005-.034,0-.054-.006a1.04,1.04,0,0,1-.644-.1,1.6,1.6,0,0,1-.394-.157c-.018-.009-.026-.005-.044-.015l-.192-.087c.076.034.157.068.236.1.133.057.267.111.394.157.222.055.408.047.644.1.007,0,.022,0,.028,0s-.007-.011,0-.012c-.088-.1-.155-.171-.246-.27l-.038-.025.026.011c-.013-.019-.051-.046-.068-.066a6.5,6.5,0,0,1-.793-.58l-.007.012-.653-.4.58.344.08.043a2.64,2.64,0,0,1,.793.58c.046.03.075.061.123.09l-.055-.024.013.014c.2.126.4.248.246.27Zm.759.127-.327-.139c.112.04.244.111.389.149Zm1.687,2.154,0-.01v0Zm1.61-.749c.036-.014-.078-.05-.072-.07a.6.6,0,0,0,.16.1Zm2.225.511v-.011l.059.023Zm1.461.2a4.255,4.255,0,0,0-.486-.213l.57.032C1409.827,945.187,1409.91,945.253,1409.631,945.306Zm2.319-1.805a.811.811,0,0,0,.223.061.167.167,0,0,0,.083.03v.007a.218.218,0,0,1-.082-.037l-.277-.055C1411.95,943.507,1411.95,943.5,1411.95,943.5Zm.3.438h.029a.836.836,0,0,1-.2.059A1.1,1.1,0,0,0,1412.247,943.939Zm4.77,2.434-.015.014a.213.213,0,0,1-.1.087l.1-.087a.089.089,0,0,0,.01-.049c.006.038.1.057.173.084A1.306,1.306,0,0,0,1417.017,946.372Zm2.5-2.866c-.116.036-.265.1-.281.041-.054.014-.005-.021-.089,0l.011-.013.067-.025.011.042.175-.02.106-.021c.019-.006.043-.015.059-.019l0,.006Zm5.779-2.6c-.389.182-.735.321-.869.251-.191-.057.2-.276.533-.486.142-.092.323-.225.215-.243-.23.048-.545.282-.716.263.289-.222.666-.345.971-.586-.073.018-.12.024-.142.011l-.037.012.024-.016s.01,0,.013,0c.066-.021.127-.036.142-.011a.6.6,0,0,1,.19-.114c.4-.15.815-.527,1.236-.7a6.114,6.114,0,0,0,1.515-1.166l.024-.015.042-.038-.022.018c.352-.481-.115-.09-.4.123l-.128.1-.075.043c-.235.058-.64.431-.876.48a26.391,26.391,0,0,0,2.879-2.472c.059-.058.125-.121.192-.183a.171.171,0,0,0-.018.035c-.06.113.044.036.121-.063a1.319,1.319,0,0,0,.11-.15l-.016-.011c.163-.162.3-.318.3-.438a1.27,1.27,0,0,1,.225-.5c.23-.109.57-.438.72-.406-.133.213-.191.331-.18.414a10.478,10.478,0,0,0-.891,1.471,8.09,8.09,0,0,1-.786,1.312c-.238.263-.455.522-.664.778-.057.04-.115.083-.173.122A33.154,33.154,0,0,1,1425.3,940.906Zm1.278-.23.126-.073a.527.527,0,0,0,.117-.053.588.588,0,0,1,.149-.069.7.7,0,0,0-.149.069A1.762,1.762,0,0,1,1426.574,940.676Z" transform="translate(-1380.338 -888.433)"/><path class="a" d="M1390.877,904.04c-.105.307-.851,1.127-.982,1.526C1391.08,904.189,1391.13,904.239,1390.877,904.04Z" transform="translate(-1382.694 -892.775)"/><path class="a" d="M1380.807,920.373c.1-.348.167-.9.3-1.2.328-.66.359-1.645.651-2.437.063-.182.147-.429.231-.673.2-.4.314-1.051.552-1.476.1-.236.174-.415.249-.594a10.821,10.821,0,0,1,1.035-2.31l.049-.119.049-.082c.758-1.246,1.344-2.343,1.9-3.368l.479-.714c.15-.252.267-.481.223-.512,0-.008-.006-.009-.01-.012.167-.291.337-.579.513-.864a30.259,30.259,0,0,0-4.7,8.253c-.023-.1-.126.092-.2.33-.184.58-.415,1.169-.559,1.738a7.463,7.463,0,0,0-.479,1.7c-.087.382-.167.732-.255,1.118-.115.343-.178.829-.269,1.182a2.285,2.285,0,0,1-.06.354,5.025,5.025,0,0,0-.2,1.235c-.018.131-.039.294-.053.395-.035.16-.1.356-.113.487,0,.5-.009.956-.013,1.453a.434.434,0,0,0,.021.1c.021.034.036.034.057-.064a1.5,1.5,0,0,0,.1-.4h-.007c.066-.227.055-.586.1-.879a2.049,2.049,0,0,1,.017-.294,2.738,2.738,0,0,0,.157-.839,2.857,2.857,0,0,1-.088.29l-.039.126,0-.034c.012-.026.024-.061.035-.092.032-.1.061-.2.088-.29.142-.378.1-1.1.253-1.545Z" transform="translate(-1380.115 -893.423)"/><path class="a" d="M1452,902.834a7.753,7.753,0,0,0-1.866-1.891C1450.749,901.434,1451.4,902.421,1452,902.834Z" transform="translate(-1398.615 -891.732)"/><path class="a" d="M1456.737,909.245l.624,1.179a5.351,5.351,0,0,0,.306.509c.18.2.11-.052-.023-.317a11.134,11.134,0,0,0-1.288-2.261l-.2-.309c-.171-.244-.35-.485-.412-.447-.087-.029.072.219.191.407C1456.213,908.439,1456.478,908.925,1456.737,909.245Z" transform="translate(-1400.087 -893.773)"/><path class="a" d="M1394.3,900.821a.584.584,0,0,0-.276.183l-.307.346.3-.2C1394.19,901.006,1394.331,900.866,1394.3,900.821Z" transform="translate(-1383.701 -891.7)"/><path class="a" d="M1392.683,902.5l.07-.167-.287.225c.02.021-.079.155-.016.125A2.236,2.236,0,0,0,1392.683,902.5Z" transform="translate(-1383.362 -892.1)"/><path class="a" d="M1458.178,950.155c-.068.089-.084-.084-.205.27-.024.074-.026.153-.01.161a2.513,2.513,0,0,0,.222-.306C1458.248,950.146,1458.268,950.034,1458.178,950.155Z" transform="translate(-1400.676 -905.573)"/><path class="a" d="M1461.34,922.606c.092.06,0-.333-.031-.553l-.264-1.3c-.109-.237-.171-.221-.164.039l.256,1.294C1461.209,922.37,1461.287,922.616,1461.34,922.606Z" transform="translate(-1401.448 -897.382)"/><path class="a" d="M1442.7,897.608l.128.12-.062-.1Z" transform="translate(-1396.645 -890.853)"/><path class="c" d="M1414.559,907.226,1420,917.867l12.157,1.706-8.8,8.283,2.077,11.7-10.874-5.522-10.874,5.522,2.077-11.7-8.8-8.283,12.157-1.706Z" transform="translate(-1384.559 -893.39)"/></svg>