<svg xmlns="http://www.w3.org/2000/svg" width="60" height="60" viewBox="0 0 60 60"><defs><style>.a{fill:#d8a286;}.a,.b{fill-rule:evenodd;}.b{fill:#deb299;}.c{fill:#fff;}</style></defs><path class="a" d="M797.2,970.392c.289-.141,1.384-.192,1.756-.38C797.162,970.146,797.162,970.076,797.2,970.392Z" transform="translate(-764.256 -911.107)"/><path class="a" d="M753.335,927.461a7.667,7.667,0,0,0-.017,2.628C753.234,929.318,753.466,928.169,753.335,927.461Z" transform="translate(-752.655 -899.287)"/><path class="a" d="M792.611,970.477a.58.58,0,0,0,.322.066l.457-.028-.351-.068C792.814,970.422,792.617,970.421,792.611,970.477Z" transform="translate(-763.052 -911.221)"/><path class="a" d="M795,970.486l-.165.067.358.044c0-.029.165-.054.1-.077A2.239,2.239,0,0,0,795,970.486Z" transform="translate(-763.642 -911.236)"/><path class="a" d="M798.837,889.044l3.138.7,1.2.361a19.565,19.565,0,0,1,2.518.914l-.057-.052,1.207.544c.377.121.825.428,1.2.567.653.373,1.331.7,1.9,1.083a3.589,3.589,0,0,0,.778.454l1.518,1.037c.2.09.522.388.69.463a4.249,4.249,0,0,0,.385.222,4.346,4.346,0,0,0-.958-.838l-1.8-1.228a5.568,5.568,0,0,0-1.565-.9l-1.179-.628a17.146,17.146,0,0,0-2.041-.892L805,890.52a4.787,4.787,0,0,0-1.29-.443l-.48-.154a1.734,1.734,0,0,0-.413-.125l-.381-.1a19.783,19.783,0,0,0-3.6-.88c-.321-.047-.506-.035-.517.031S798.52,888.987,798.837,889.044Zm11.287,4.147.028.018a1.951,1.951,0,0,1,.391.259l-.391-.259a.273.273,0,0,0-.031-.012Z" transform="translate(-764.452 -888.529)"/><path class="a" d="M828.145,954l-.013.02c-.015.024-.025.051-.041.073Z" transform="translate(-772.384 -906.649)"/><path class="b" d="M812.479,923.294c0-.017,0-.035,0-.052a9.819,9.819,0,0,0,.182-2.37,1.588,1.588,0,0,0-.069.191,2.5,2.5,0,0,0-.011-.483l-.023-.107.013-.142c.008-.641.015-1.282.023-1.959l-.074-.387a32.375,32.375,0,0,0-1.013-5.554l-.155-.4a47.479,47.479,0,0,0-1.615-4.513l-.225-.321-.174-.419a1.821,1.821,0,0,0-.362-.753,12.321,12.321,0,0,0-1.6-2.665,44.952,44.952,0,0,0-2.984-3.549c-.528-.549-.833-1.117-1.372-1.616-.525-.461-.615-.279-1.364-.888-.807-.6-1.588-1.28-2.461-1.9l-.052.067c-.011-.042-.048-.106.052-.067l-.34-.235-.05.069-1.055-.716-.391-.155-.126-.059-.077-.068c-.3-.235-.734-.376-.893-.576.2,0,.855.378.915.285a5,5,0,0,0-2.478-.992c-.238-.134-.575-.3-.55-.355.2-.157-.336-.334-1.025-.563-.561-.178-.727-.131-.709.007l-.378-.156a1.466,1.466,0,0,0-.413-.161l.054.045a3.894,3.894,0,0,0-.409-.173c-.483-.168-1.251-.357-.994-.48.206-.084-.11-.223-.674-.393a3.828,3.828,0,0,0-1.427-.283c.564.174,1.222.494,1.009.61-.242-.043-.522-.114-.807-.179a2.794,2.794,0,0,0-.551-.449c-.061-.077-.127-.144-.4-.212a.856.856,0,0,0-.469-.549c.268.018.557.046.844.073a9.168,9.168,0,0,1,2.489.771,5.675,5.675,0,0,0,1.643.5l2.3.956a53.621,53.621,0,0,1,5.4,2.866l-.035-.014c.971.592,1.816,1.46,2.758,2.153a7.811,7.811,0,0,1,1.221,1.079l.442.412c.3.259.606.6.9.912.9,1.09,1.764,2.039,2.52,3.074-.042-.1-.042-.1-.069-.164l.038.059.031.105a6.17,6.17,0,0,0,.75,1l.128.175.1.183a14.569,14.569,0,0,0,1.075,1.888,3.7,3.7,0,0,1,.2.34c.2.451.423.9.618,1.243.042.1.049.1.068.09.034.026.033-.013.012-.123a10.386,10.386,0,0,0-1.531-3.356l-.685-1.058a18.455,18.455,0,0,0-4.9-5.585,3.03,3.03,0,0,0-.666-.546,3.107,3.107,0,0,0-.685-.472l-.641-.51-1.038-.873a20.229,20.229,0,0,0-5.038-3.028c-.808-.373-1.7-.638-2.554-1.079-.63-.347-1.464-.677-1.191-.267.04.09-.5-.067-.844-.171-.647-.181-1.385-.44-2.083-.582a.985.985,0,0,1-.276-.065,1.267,1.267,0,0,0-.484-.1.967.967,0,0,1-.314-.064,18.8,18.8,0,0,0-1.838-.489,4.735,4.735,0,0,0-.8-.165c-.038-.074-.152-.136-.481-.173a3.269,3.269,0,0,0-.447-.066l-.109.018-.038,0,.146-.021c-.074-.065-.224-.1-.6-.106l-.038-.012v.007c-.037-.047-.186-.061-.45-.065a.857.857,0,0,1-.3.016c-.692.051-1.385.149-2.075.267a6.258,6.258,0,0,0-1.19.034,31.835,31.835,0,0,0-4.939.7l0,.014,0,.014-.007-.027a12.993,12.993,0,0,0-2.5.581,4.4,4.4,0,0,0-1.25.322,5.241,5.241,0,0,0-.966.282c-.439.158-.262.209-.52.334a1.39,1.39,0,0,0-.425.276c-.115.09-.668.332-.527.383.063.048.183.056.462-.011.117.082.445.04.923-.088l.09-.054,0,.006a.32.32,0,0,0-.093.048l1,.168c.043.111.18.179.614.091-.236.143-.465.29-.682.445a6.519,6.519,0,0,0-1.843,1.113,18.333,18.333,0,0,0-2.557,1.92l.055-.044c-.4.422-1.069.809-1.351,1.2l0-.005a8.045,8.045,0,0,0-.673.652l-.06.092-.111.091-1.178,1.129a6.632,6.632,0,0,0-1.445,1.421c-.539.718-1.582,1.842-2.172,2.747a15.2,15.2,0,0,0-1.836,2.9l.049-.043c-.024.057-.03.053-.03.053l-.018-.011a27.244,27.244,0,0,0-1.629,3.227,10.65,10.65,0,0,0-.815,2.191c-.061.191-.123.383-.179.576a19.1,19.1,0,0,0-1.116,4.683,6.991,6.991,0,0,0-.052,2.3.392.392,0,0,1-.016.251,2.379,2.379,0,0,0-.093.759,8.361,8.361,0,0,0,.057,2.367l.023.028h0v0c-.005,0-.015,0-.023-.028a3.471,3.471,0,0,0,.071,1.269h.007a9.369,9.369,0,0,0,.133,1.234.575.575,0,0,1,.035.252,2.111,2.111,0,0,0,.079.8,3.486,3.486,0,0,0,.426,1.4h0a3.607,3.607,0,0,0,.343,1.02l.394,1.267a16.741,16.741,0,0,0,.821,2.057l.312.761a4.71,4.71,0,0,0,.6,1.215l.233.446a1.763,1.763,0,0,0,.206.376l.2.339a19.633,19.633,0,0,0,1.94,3.138c.2.258.336.379.392.34s-.037-.236-.223-.5l-1.745-2.687-.6-1.091a19.264,19.264,0,0,1-1.147-2.406l0,.077c-.167-.43-.308-.8-.475-1.227-.183-.35-.283-.878-.448-1.236-.054-.194-.112-.388-.17-.58.018.033.034.069.055.1l-.007,0,.127.223c-.019-.091-.032-.152-.05-.237,0,.006,0,.014,0,.018v-.03l0,.012a2.05,2.05,0,0,0-.027-.338,2.636,2.636,0,0,0-.135-.78l-.017.005-.007,0,.024-.007a1.177,1.177,0,0,0-.019-.259,24.2,24.2,0,0,0,.874,2.667c.3.825.744,1.632,1.03,2.536.2.682.547,1.494.649,1.015.036-.092.308.4.473.707.328.577.662,1.272,1.054,1.857a.918.918,0,0,1,.148.237,1.229,1.229,0,0,0,.271.407.937.937,0,0,1,.176.263,12.977,12.977,0,0,0,3.529,4.462,5.962,5.962,0,0,1,.617.63A4.966,4.966,0,0,0,764.7,942.7a31.353,31.353,0,0,0,3.994,2.934l.008-.012.007-.012-.015.024a12.924,12.924,0,0,0,2.188,1.325A4.354,4.354,0,0,0,772,947.6a5.125,5.125,0,0,0,.886.47c.425.194.336.034.608.124a1.412,1.412,0,0,0,.5.1c.146.016.712.229.649.094-.01-.077-.089-.167-.334-.313-.024-.139-.286-.338-.716-.578l-.1-.024,0-.007a.345.345,0,0,0,.1.03l-.589-.815c.059-.128-.013-.3-.6-.632-.056-.115-.177-.252-.228-.38.429.2.9.381,1.316.523.445.15.707.136.74.055.108-.092-.392-.271-.69-.42-.358-.175-.632-.37-.653-.475-.04-.14.475.074.737.131a30.03,30.03,0,0,0,3.07.927,5.384,5.384,0,0,0,1.5.329l-.029-.02.032.007,0,.014a10.651,10.651,0,0,0,2.017.348.908.908,0,0,1-.154-.064l.033.006.121.058a7.759,7.759,0,0,0,1.94.162l-.064-.022.065.008v.014a13.327,13.327,0,0,0,3.231.108c.9-.134,2.446-.2,3.514-.435a15.755,15.755,0,0,0,3.391-.779l-.065,0c.057-.024.059-.017.059-.017l.006.02a27.5,27.5,0,0,0,6.174-2.419,20.694,20.694,0,0,0,3.693-2.182h0c.046.049.167.024.4-.146l.116-.138.005.005-.121.133a1.084,1.084,0,0,0,.4-.082,6.275,6.275,0,0,1-.9.658l.026-.02c-.316.173-.751.5-1.057.628-.7.23-1.417.892-2.183,1.238l-.638.307c-.431.139-.966.511-1.434.641l-.6.239a10.916,10.916,0,0,1-2.365.885l-.118.049-.093.023c-2.425.58-4.192,1.209-6.063,1.638a31.111,31.111,0,0,0,10.189-2.928l.7-.347a6.3,6.3,0,0,0,1.815-.942l.97-.6c.324-.159.712-.451,1.025-.633a2.3,2.3,0,0,1,.294-.2,5.028,5.028,0,0,0,1.014-.718l.316-.237c.138-.087.319-.179.423-.259l.449-.433a1.324,1.324,0,0,0,.427-.322l.036-.019-.006-.005c.06.007.176-.087.366-.266a.807.807,0,0,1,.2-.217,28.71,28.71,0,0,0,2.63-3.669,11.718,11.718,0,0,0,.8-1.387,3.887,3.887,0,0,0,.551-.924c.1-.133.2-.259.3-.379a23.675,23.675,0,0,0,1.523-4.691,6.281,6.281,0,0,0,.5-2.065,17.635,17.635,0,0,0,.425-3.132Zm-5.718-22.014-.018.012s.009-.007,0-.04Zm-37.217-10.206c-.008-.02-.053-.033.045-.082.028-.026.1-.038.128-.061C769.632,891,769.536,891.051,769.545,891.074Zm3.7,56.72c-.008.02.015.06-.091.028-.039,0-.1-.041-.135-.046C773.126,947.788,773.232,947.817,773.242,947.794Zm37.394-29.778h-.014v-.064Zm-.187,3.958a7.923,7.923,0,0,0-.008-1.831A6.555,6.555,0,0,1,810.449,921.975Zm.05-11.95c-.031-.027-.095-.19-.132-.212l-.058-.238Zm-.244,3.64.015,0c-.008.036-.021.139-.047.078A.438.438,0,0,0,810.254,913.664Zm-.576,5.968h.007l-.008.033ZM809,917.381a1.3,1.3,0,0,1,.032.283c-.018.252-.063-.027-.1-.153C808.966,917.509,809,917.508,809,917.381Zm-.4,4.441.022,0-.014.063C808.6,921.915,808.6,921.822,808.6,921.822Zm-6.128,15.517.149-.266A11.028,11.028,0,0,1,803.634,935a10.217,10.217,0,0,1-1.008,2.069.635.635,0,0,0-.021.119Zm-37.729-.435c-.032-.019-.079-.069-.108-.081l-.005,0-.018-.022-.068-.066,0,0a.5.5,0,0,1,.066.068l.024.017.057.035C764.714,936.875,764.73,936.886,764.747,936.9Zm-5.16-1.5-.038-.048c.055.035.078.017.063-.047,0-.009-.011-.018-.015-.027.008.007.014.016.023.023-.274-.514-.508-1.2-.274-1.131a16.112,16.112,0,0,0,.91,1.34l.5.719c.268.641.319.765.183.959-.163-.282-.406-.561-.657-.906a4.27,4.27,0,0,0-.67-.978C759.628,935.371,759.61,935.384,759.588,935.4Zm.815-9.373.024-.006v.061Zm-.388,1.727a.2.2,0,0,0-.114-.061.833.833,0,0,1-.148.4c.034-.165.027-.416.148-.4a1.829,1.829,0,0,0,.036-.352C759.988,927.514,759.953,927.585,760.015,927.755Zm-.941,5.086-.03-.057a2.583,2.583,0,0,0,.306.439l-.022.012C759.254,933.123,759.182,933.011,759.073,932.841Zm-.461-2.727-.118-.2-.054-.153C758.484,929.855,758.555,930,758.613,930.114Zm-.919-3.74c-.024.006-.067-.052-.11-.139l-.013-.064C757.606,926.264,757.661,926.381,757.694,926.374Zm-2.67-2.4a.53.53,0,0,1-.045-.115h.007A.293.293,0,0,0,755.024,923.979Zm.766,2.762c-.055.017-.024.2.04.432a1.366,1.366,0,0,1-.154-.462C755.685,926.614,755.745,926.69,755.79,926.741Zm1.406-1.609a1.719,1.719,0,0,1-.2-.586A4.339,4.339,0,0,0,757.2,925.132Zm.214,1.54c-.019-.2-.041-.353.029-.37C757.384,926.315,757.392,926.476,757.411,926.672Zm-2.782-9.06,0,.059h-.014v-.028l0-.03Zm-.177,1.174v.028c0,.01-.005.022-.007.032-.019.157-.035.287-.052.424l-.007.123v-.062l.007-.061a2.4,2.4,0,0,1,.052-.424Zm-.493,4.59a.083.083,0,0,0,.074-.035c.01.1.016.156.026.248a1.162,1.162,0,0,0-.1-.213c-.077-.009-.161-.14-.244-.272A.784.784,0,0,1,753.959,923.376Zm3.817,7.854.155.372a1.391,1.391,0,0,0,.176.4l-.006-.069a3.586,3.586,0,0,0,.165.406c.219.454.628,1.121.356,1.029-.075-.031-.106-.006-.1.06l-.238-.461-.007,0c0-.217-.308-.6-.453-.94a3.688,3.688,0,0,0-.269-.849C757.654,931.288,757.726,931.292,757.775,931.229Zm7.5-32.367.009-.013h0Zm19.922-6.029-.006.038c0,.031-.159.007-.162.028C785.03,892.869,785.188,892.868,785.193,892.833Zm-1.949-.261c-.063-.006,0,0-.032-.006h-.157l.065-.008a3.075,3.075,0,0,1,.536-.025C783.561,892.557,783.312,892.54,783.245,892.573Zm.414.285v0a.451.451,0,0,1-.095,0l-.029,0-.065.015c-.026,0-.045,0-.07,0,.037-.009.105-.007.135-.018v-.007l.029,0Zm20.98,37a.371.371,0,0,1,.088-.155l.016.007C804.712,929.765,804.63,929.952,804.639,929.861Zm.068.2-.026.045.007-.055c-.01.009-.018.021-.027.031,0-.007,0-.013,0-.02s.021-.013.036-.032l-.011.021Zm3.019-8.45c-.012.089-.016.12-.032.239a.334.334,0,0,0-.027-.155C807.69,921.608,807.708,921.642,807.726,921.612Zm-.575-14.524.017.036-.015-.03,0-.007-.039-.081a.777.777,0,0,1-.021-.1A.691.691,0,0,0,807.151,907.088Zm-.13-2.832.014.022-.014-.022,0,0-.019-.03Zm-.408-.358-.012.007-.018-.029C806.606,903.9,806.612,903.9,806.612,903.9Zm-8.83-7.654a4.636,4.636,0,0,0-.561-.279A1.811,1.811,0,0,1,797.782,896.244Zm-1.765-.819a.458.458,0,0,1,.135.028l.055.036A.872.872,0,0,0,796.017,895.425Zm.189-.119c.03-.048-.091-.156-.246-.282C796.115,895.15,796.244,895.246,796.206,895.306Zm-3.352-1.825.149.07-.372-.127Zm-2.978-1.767.464.1.063.02a2.708,2.708,0,0,0-.534-.1Zm-5.584-3.031c-.029.007-.046.016-.1.026V888.7Zm-5,.163.07,0-.284.013ZM759.182,903.11c0,.028,0,.072,0,.11v0A.2.2,0,0,1,759.182,903.11Zm-.041.17-.005.009c-.035.014-.076.037-.114.053C759.067,903.314,759.1,903.3,759.14,903.28ZM753.6,921.021c-.013.04-.025.081-.056.047l-.005-.064C753.576,921.073,753.591,921.052,753.6,921.021Zm.692,5.373,0,.008h0Zm3.075,5.9-.235-.572c.033.045.065.092.1.135a2.6,2.6,0,0,0,.217.553C757.424,932.372,757.4,932.331,757.371,932.294Zm2,3.768a8.811,8.811,0,0,1-1.2-2.272c-.03-.095-.07-.191-.11-.287a2.572,2.572,0,0,1,.223.411,4.317,4.317,0,0,0,.459.786,1.631,1.631,0,0,0,.142.131,17.431,17.431,0,0,0,1.986,2.448l-.057.067C760.584,937.515,759.962,936.766,759.375,936.063Zm1.749-5.568c.158-.007.2-.216.127-.6h0c.048.234.095.466.136.67C761.493,930.979,761.265,930.66,761.124,930.495Zm.347,5.178c.033.018-.041-.129.05-.033s.02.067.063.155Zm1.974.02.031-.023c.026-.019.118.1.135.092C763.585,935.78,763.474,935.671,763.445,935.692Zm.869,1.279c.087.048.25.234.321.257.04.048,0,0,.018.027l.11.109-.052-.039A3,3,0,0,1,764.314,936.971Zm.428,5.634-.046-.051.211.188Zm1.174-.494c0-.008-.01-.024-.007-.032-.2-.217-.316-.4-.506-.612l-.06-.037s.034.014.007-.008l.054.045c.469.367.533.511.506.612.038.042.06.077.107.123Zm2.106-3.464.236.088c-.045,0,.011.073.02.108A2.424,2.424,0,0,1,768.022,938.647Zm1.529,3.378.008-.011.021.027C769.552,942.021,769.551,942.024,769.551,942.024Zm3.138.238a1.241,1.241,0,0,0,.267.072A.614.614,0,0,1,772.689,942.263Zm1.534.8c.028.012.029.009.029.009l0,0-.028-.012c-.021-.005-.034,0-.054-.007a1.04,1.04,0,0,1-.645-.1,1.611,1.611,0,0,1-.395-.157c-.018-.009-.026-.005-.043-.015l-.192-.087c.076.034.157.068.235.1.133.057.267.111.395.157.222.055.408.047.645.1.007,0,.022,0,.028,0s-.007-.011,0-.012c-.088-.1-.155-.17-.246-.27l-.038-.025.026.011c-.013-.019-.051-.046-.068-.066a6.483,6.483,0,0,1-.793-.58l-.007.012-.653-.4.58.345.08.043a2.641,2.641,0,0,1,.793.58c.046.03.075.061.123.09l-.055-.024.013.015c.2.126.4.248.246.27Zm.76.127-.328-.139c.112.04.244.111.389.149Zm1.688,2.154,0-.01v0Zm1.61-.749c.036-.014-.078-.05-.072-.07a.587.587,0,0,0,.16.1Zm2.225.51,0-.011.059.023Zm1.461.2a4.29,4.29,0,0,0-.486-.213l.57.032C782.164,945.187,782.247,945.253,781.967,945.306Zm2.32-1.805a.823.823,0,0,0,.223.061.167.167,0,0,0,.082.03v.007a.22.22,0,0,1-.082-.037l-.277-.055C784.287,943.507,784.287,943.5,784.287,943.5Zm.3.438h.029a.837.837,0,0,1-.2.059A1.106,1.106,0,0,0,784.584,943.939Zm4.77,2.434-.016.014a.211.211,0,0,1-.1.087l.1-.087a.089.089,0,0,0,.01-.049c.006.038.1.057.174.084A1.286,1.286,0,0,0,789.354,946.373Zm2.5-2.866c-.115.036-.265.1-.281.041-.054.014-.005-.021-.089,0a.139.139,0,0,0,.011-.013l.067-.024.011.042.175-.02.106-.021c.019-.006.044-.015.06-.019l0,.007Zm5.779-2.6c-.389.182-.736.321-.869.251-.191-.057.2-.276.533-.486.142-.092.323-.225.215-.243-.23.048-.545.282-.716.263.289-.222.666-.345.971-.586-.073.018-.12.024-.142.011l-.037.012.024-.016s.01,0,.013,0c.066-.021.127-.036.142-.011a.593.593,0,0,1,.19-.114c.4-.149.815-.527,1.236-.7a6.108,6.108,0,0,0,1.515-1.166l.023-.015.043-.038-.022.018c.352-.481-.116-.09-.4.123l-.128.1-.075.043c-.236.058-.64.431-.877.48a26.4,26.4,0,0,0,2.879-2.472c.059-.058.125-.121.192-.183a.181.181,0,0,0-.018.035c-.06.113.044.036.121-.064a1.306,1.306,0,0,0,.11-.149l-.016-.011c.163-.162.3-.318.3-.438a1.279,1.279,0,0,1,.225-.5c.23-.109.57-.438.721-.406-.133.213-.191.331-.18.414a10.471,10.471,0,0,0-.891,1.471,8.1,8.1,0,0,1-.786,1.312c-.238.263-.456.522-.664.778-.057.04-.115.083-.173.122A33.178,33.178,0,0,1,797.634,940.906Zm1.278-.23.126-.073a.52.52,0,0,0,.117-.054.59.59,0,0,1,.149-.069.708.708,0,0,0-.149.069A1.771,1.771,0,0,1,798.912,940.676Z" transform="translate(-752.678 -888.433)"/><path class="a" d="M763.2,904.04c-.1.3-.842,1.115-.972,1.51C763.4,904.188,763.45,904.237,763.2,904.04Z" transform="translate(-755.103 -892.771)"/><path class="a" d="M753.133,920.221c.1-.345.165-.886.291-1.188.325-.654.356-1.627.645-2.411l.228-.666c.2-.4.311-1.04.546-1.461l.246-.587a10.674,10.674,0,0,1,1.023-2.286l.048-.118.049-.081c.75-1.233,1.33-2.318,1.883-3.332l.474-.707c.148-.249.264-.476.221-.506,0-.008-.006-.009-.009-.012.165-.288.333-.573.508-.854a29.944,29.944,0,0,0-4.655,8.166c-.022-.1-.125.091-.2.326-.182.574-.411,1.157-.553,1.72a7.387,7.387,0,0,0-.474,1.686c-.086.378-.165.724-.252,1.106-.114.34-.176.82-.267,1.169a2.226,2.226,0,0,1-.06.35,4.968,4.968,0,0,0-.2,1.222c-.017.13-.039.291-.052.39-.034.158-.1.352-.111.482,0,.492-.009.946-.013,1.437a.431.431,0,0,0,.021.1c.021.034.036.034.057-.063a1.483,1.483,0,0,0,.095-.392h-.007c.066-.224.054-.58.1-.87a2.018,2.018,0,0,1,.017-.291,2.711,2.711,0,0,0,.155-.83,2.862,2.862,0,0,1-.087.287l-.039.125,0-.034c.012-.026.023-.06.035-.091l.087-.287c.141-.374.1-1.093.251-1.529Z" transform="translate(-752.448 -893.365)"/><path class="a" d="M824.317,902.814a7.674,7.674,0,0,0-1.847-1.871C823.075,901.429,823.724,902.405,824.317,902.814Z" transform="translate(-770.858 -891.83)"/><path class="a" d="M829.059,909.227l.618,1.166a5.288,5.288,0,0,0,.3.5c.178.2.109-.052-.023-.314a11.02,11.02,0,0,0-1.274-2.237l-.2-.305c-.169-.241-.347-.48-.407-.442-.086-.029.071.216.189.4C828.539,908.43,828.8,908.911,829.059,909.227Z" transform="translate(-772.373 -893.764)"/><path class="a" d="M766.622,900.821a.579.579,0,0,0-.273.181l-.3.342.3-.2C766.518,901,766.658,900.865,766.622,900.821Z" transform="translate(-756.14 -891.796)"/><path class="a" d="M765.013,902.5l.069-.165-.284.222c.02.02-.079.154-.016.124A2.229,2.229,0,0,0,765.013,902.5Z" transform="translate(-755.791 -892.208)"/><path class="a" d="M830.509,950.154c-.067.088-.083-.083-.2.267-.023.073-.026.152-.01.16a2.461,2.461,0,0,0,.219-.3C830.578,950.146,830.6,950.034,830.509,950.154Z" transform="translate(-772.98 -905.569)"/><path class="a" d="M833.668,922.585c.091.06,0-.33-.031-.547l-.261-1.286c-.108-.235-.169-.219-.162.039l.253,1.28C833.539,922.351,833.616,922.595,833.668,922.585Z" transform="translate(-773.775 -897.373)"/><path class="a" d="M815.03,897.608l.127.119-.061-.1Z" transform="translate(-768.977 -890.924)"/><g transform="translate(15.799 10.727)"><circle class="c" cx="1.46" cy="1.46" r="1.46" transform="translate(4.743 12.79) rotate(-74.509)"/><circle class="c" cx="0.613" cy="0.613" r="0.613" transform="translate(8.374 11.759)"/><path class="c" d="M791.344,925.566a11.82,11.82,0,1,1-7.147-22.042.941.941,0,0,1,.213,1.87,9.949,9.949,0,1,0,4.329.468.941.941,0,0,1,.605-1.782,11.82,11.82,0,0,1,2,21.486Z" transform="translate(-773.72 -903.518)"/><g transform="translate(13.946 18.834)"><path class="c" d="M805.6,948.647a3.394,3.394,0,0,1-4.619-1.288l-8-14.178a.94.94,0,0,1,.554-1.365,9.709,9.709,0,0,0,3.9-2.2.94.94,0,0,1,1.454.233l8,14.178A3.394,3.394,0,0,1,805.6,948.647Zm-10.421-15.409,7.442,13.2a1.509,1.509,0,1,0,2.628-1.482l-7.442-13.2A11.292,11.292,0,0,1,795.177,933.238Z" transform="translate(-792.863 -929.371)"/></g></g></svg>