<svg xmlns="http://www.w3.org/2000/svg" width="60" height="60" viewBox="0 0 60 60"><defs><style>.a{fill:#d8a286;}.a,.b{fill-rule:evenodd;}.b{fill:#deb299;}.c{fill:#fff;}</style></defs><path class="a" d="M164.086,970.4c.3-.145,1.426-.2,1.809-.392C164.048,970.15,164.047,970.078,164.086,970.4Z" transform="translate(-131.172 -911.14)"/><path class="a" d="M120.225,927.461a7.9,7.9,0,0,0-.017,2.708C120.121,929.374,120.36,928.191,120.225,927.461Z" transform="translate(-119.524 -899.326)"/><path class="a" d="M159.5,970.478a.6.6,0,0,0,.332.068l.471-.029-.362-.07C159.706,970.422,159.5,970.42,159.5,970.478Z" transform="translate(-129.95 -911.245)"/><path class="a" d="M161.9,970.486l-.17.069.368.046c0-.029.17-.055.1-.079A2.266,2.266,0,0,0,161.9,970.486Z" transform="translate(-130.536 -911.258)"/><path class="a" d="M165.739,889.052l3.233.717,1.231.371a20.167,20.167,0,0,1,2.593.941l-.059-.053,1.244.56c.388.125.849.441,1.231.584.672.384,1.371.721,1.956,1.116a3.693,3.693,0,0,0,.8.468l1.564,1.069c.207.092.538.4.711.477a4.423,4.423,0,0,0,.4.229,4.48,4.48,0,0,0-.987-.863L177.8,893.4a5.737,5.737,0,0,0-1.612-.929l-1.215-.647a17.645,17.645,0,0,0-2.1-.919l-.784-.335a4.941,4.941,0,0,0-1.329-.456l-.495-.159a1.794,1.794,0,0,0-.426-.128l-.392-.107a20.421,20.421,0,0,0-3.7-.907c-.331-.048-.522-.036-.533.032S165.412,888.994,165.739,889.052Zm11.627,4.272.029.019a2.014,2.014,0,0,1,.4.266l-.4-.266a.307.307,0,0,0-.032-.013Z" transform="translate(-131.677 -888.521)"/><path class="a" d="M195.032,954l-.013.02c-.016.025-.026.053-.043.076Z" transform="translate(-139.4 -906.652)"/><path class="b" d="M179.347,923.294c0-.017,0-.035,0-.052a9.816,9.816,0,0,0,.182-2.37,1.586,1.586,0,0,0-.069.191,2.486,2.486,0,0,0-.011-.483l-.023-.107.012-.142c.008-.641.015-1.282.024-1.959l-.074-.387a32.379,32.379,0,0,0-1.012-5.553l-.155-.4a47.525,47.525,0,0,0-1.614-4.513l-.225-.321c-.067-.162-.121-.291-.174-.419a1.822,1.822,0,0,0-.362-.753,12.323,12.323,0,0,0-1.6-2.665,44.921,44.921,0,0,0-2.983-3.549c-.528-.549-.833-1.117-1.372-1.616-.525-.461-.614-.279-1.364-.888-.807-.6-1.588-1.28-2.46-1.9l-.052.067c-.011-.042-.047-.105.052-.067l-.34-.235-.05.069-1.054-.716-.391-.155-.126-.059-.076-.068c-.3-.235-.734-.376-.892-.576.2,0,.855.378.915.285a5,5,0,0,0-2.477-.992c-.238-.134-.575-.3-.55-.355.195-.157-.336-.334-1.026-.563-.561-.178-.727-.131-.708.006l-.377-.156a1.468,1.468,0,0,0-.413-.161l.054.045a3.8,3.8,0,0,0-.408-.173c-.483-.168-1.251-.357-.993-.48.206-.084-.11-.223-.674-.393a3.825,3.825,0,0,0-1.427-.283c.564.174,1.221.494,1.009.61-.242-.043-.522-.114-.806-.179a2.8,2.8,0,0,0-.55-.449c-.061-.077-.127-.145-.4-.212a.855.855,0,0,0-.469-.549c.268.018.557.045.844.073a9.161,9.161,0,0,1,2.488.771,5.669,5.669,0,0,0,1.643.5l2.295.956a53.572,53.572,0,0,1,5.394,2.866l-.035-.015c.972.591,1.815,1.46,2.757,2.153a7.81,7.81,0,0,1,1.221,1.079l.441.412c.3.259.605.6.9.912.9,1.091,1.764,2.039,2.519,3.074l-.069-.164.038.058.031.105a6.179,6.179,0,0,0,.75,1l.128.175.1.184a14.587,14.587,0,0,0,1.075,1.888,3.667,3.667,0,0,1,.2.34c.2.451.423.9.618,1.243.042.1.049.1.068.09.034.026.033-.013.012-.123a10.387,10.387,0,0,0-1.53-3.356l-.685-1.058a18.456,18.456,0,0,0-4.9-5.585,3.028,3.028,0,0,0-.666-.546,3.083,3.083,0,0,0-.684-.472l-.641-.511-1.037-.873a20.23,20.23,0,0,0-5.036-3.028c-.808-.373-1.7-.638-2.554-1.079-.63-.347-1.463-.677-1.19-.267.04.09-.5-.067-.844-.171-.647-.181-1.385-.44-2.083-.582a.984.984,0,0,1-.276-.065,1.268,1.268,0,0,0-.484-.1.962.962,0,0,1-.314-.064,18.817,18.817,0,0,0-1.837-.489,4.723,4.723,0,0,0-.8-.165c-.038-.074-.152-.136-.48-.173a3.25,3.25,0,0,0-.447-.066l-.109.018-.038,0,.146-.021c-.074-.065-.224-.1-.6-.106l-.038-.011v.007c-.037-.047-.186-.061-.45-.065a.857.857,0,0,1-.3.016c-.692.051-1.385.149-2.074.267a6.255,6.255,0,0,0-1.19.034,31.837,31.837,0,0,0-4.937.7l0,.014,0,.014-.007-.027a12.97,12.97,0,0,0-2.5.581,4.4,4.4,0,0,0-1.25.322,5.243,5.243,0,0,0-.965.282c-.439.158-.262.209-.519.334a1.4,1.4,0,0,0-.424.276c-.115.09-.668.332-.527.384.063.048.183.056.462-.011.117.082.445.04.923-.088l.09-.054,0,.006a.321.321,0,0,0-.093.048l1,.168c.043.111.18.179.614.091-.235.143-.465.29-.681.445a6.526,6.526,0,0,0-1.842,1.113,18.33,18.33,0,0,0-2.557,1.919l.055-.044c-.4.422-1.068.809-1.351,1.2l0-.005a8.062,8.062,0,0,0-.672.652l-.06.092-.111.091-1.178,1.129a6.626,6.626,0,0,0-1.444,1.421c-.539.718-1.582,1.842-2.171,2.746a15.2,15.2,0,0,0-1.836,2.9l.049-.043c-.024.057-.03.054-.03.054l-.018-.011a27.1,27.1,0,0,0-1.628,3.227,10.612,10.612,0,0,0-.815,2.191c-.061.191-.122.383-.179.576a19.108,19.108,0,0,0-1.116,4.682,7,7,0,0,0-.052,2.3.391.391,0,0,1-.016.251,2.4,2.4,0,0,0-.093.759,8.365,8.365,0,0,0,.057,2.367l.023.028h0v0c-.005,0-.015,0-.023-.028a3.473,3.473,0,0,0,.071,1.269l.007,0a9.388,9.388,0,0,0,.133,1.234.574.574,0,0,1,.035.252,2.112,2.112,0,0,0,.079.8,3.487,3.487,0,0,0,.426,1.4h0a3.607,3.607,0,0,0,.343,1.02l.394,1.267a16.75,16.75,0,0,0,.821,2.057l.312.761a4.711,4.711,0,0,0,.6,1.215l.233.446a1.755,1.755,0,0,0,.206.376l.2.339a19.631,19.631,0,0,0,1.939,3.138c.2.258.336.379.391.34s-.037-.236-.223-.5l-1.744-2.687-.6-1.091a19.374,19.374,0,0,1-1.146-2.406l0,.077-.475-1.227c-.183-.35-.283-.878-.448-1.236-.054-.194-.112-.388-.17-.58.018.033.034.069.055.1l-.007,0,.127.223c-.019-.091-.032-.152-.05-.237,0,.006,0,.014,0,.018v-.03l0,.012a2.127,2.127,0,0,0-.026-.338,2.682,2.682,0,0,0-.135-.78l-.018.005-.007,0,.024-.007a1.234,1.234,0,0,0-.02-.259,24.178,24.178,0,0,0,.873,2.667c.3.825.744,1.632,1.029,2.536.195.682.547,1.494.649,1.015.036-.092.308.4.473.707.327.577.662,1.272,1.054,1.857a.94.94,0,0,1,.149.237,1.212,1.212,0,0,0,.27.407.936.936,0,0,1,.176.263,12.979,12.979,0,0,0,3.528,4.462,5.9,5.9,0,0,1,.617.63,4.965,4.965,0,0,0,1.118,1.135,31.339,31.339,0,0,0,3.993,2.934l.008-.012.007-.012-.015.024a12.913,12.913,0,0,0,2.187,1.324,4.347,4.347,0,0,0,1.116.639,5.12,5.12,0,0,0,.886.47c.424.194.336.034.608.124a1.409,1.409,0,0,0,.5.1c.146.017.711.229.648.094-.01-.077-.089-.167-.334-.313-.024-.139-.285-.338-.716-.578l-.1-.024,0-.006a.341.341,0,0,0,.1.03l-.589-.815c.059-.129-.013-.3-.6-.632-.056-.115-.177-.252-.228-.38.429.195.9.381,1.315.523.445.15.707.136.74.055.108-.093-.391-.271-.689-.42-.358-.175-.632-.37-.653-.475-.04-.14.475.074.736.131a30.033,30.033,0,0,0,3.069.927,5.391,5.391,0,0,0,1.5.329l-.029-.02.033.006,0,.014a10.663,10.663,0,0,0,2.017.348.909.909,0,0,1-.154-.064l.033.007.121.058a7.757,7.757,0,0,0,1.939.162l-.064-.022.065.008v.014a13.325,13.325,0,0,0,3.23.108c.9-.134,2.445-.2,3.513-.435a15.747,15.747,0,0,0,3.39-.779l-.065,0c.057-.024.059-.017.059-.017l.006.02a27.486,27.486,0,0,0,6.172-2.419,20.693,20.693,0,0,0,3.692-2.182h0c.046.049.167.024.4-.146l.116-.138.005.005-.121.133a1.084,1.084,0,0,0,.4-.082,6.262,6.262,0,0,1-.9.658l.026-.02c-.316.173-.751.5-1.056.628-.7.23-1.416.892-2.183,1.238l-.638.307c-.431.139-.965.511-1.433.641l-.6.239a10.891,10.891,0,0,1-2.364.885l-.118.049-.093.023c-2.424.58-4.191,1.209-6.061,1.638a31.1,31.1,0,0,0,10.186-2.928l.7-.347a6.3,6.3,0,0,0,1.815-.942l.97-.6c.324-.159.711-.451,1.025-.633a2.322,2.322,0,0,1,.294-.2,5.021,5.021,0,0,0,1.014-.718l.316-.237c.138-.087.319-.179.423-.259l.449-.433a1.328,1.328,0,0,0,.427-.322l.036-.019-.006-.005c.06.007.176-.087.366-.266a.808.808,0,0,1,.2-.217,28.71,28.71,0,0,0,2.629-3.669,11.734,11.734,0,0,0,.8-1.387,3.886,3.886,0,0,0,.55-.924c.1-.133.2-.259.3-.379a23.725,23.725,0,0,0,1.521-4.691,6.285,6.285,0,0,0,.5-2.065,17.649,17.649,0,0,0,.425-3.132Zm-5.716-22.014-.017.012s.008-.006,0-.04Zm-37.2-10.206c-.008-.02-.053-.033.045-.082.028-.026.1-.038.128-.061C136.513,891,136.416,891.051,136.426,891.074Zm3.7,56.72c-.008.019.015.06-.09.027-.039,0-.1-.041-.135-.045C140.006,947.788,140.112,947.817,140.122,947.794ZM177.5,918.016h-.014v-.064Zm-.187,3.958a7.92,7.92,0,0,0-.008-1.831A6.554,6.554,0,0,1,177.317,921.974Zm.05-11.95c-.031-.027-.095-.19-.132-.212l-.058-.238Zm-.244,3.64.015,0c-.008.036-.021.139-.047.078A.439.439,0,0,0,177.123,913.664Zm-.575,5.968h.007l-.008.033Zm-.674-2.252c.007.126.049.188.032.283-.018.252-.063-.027-.1-.153C175.834,917.509,175.867,917.508,175.873,917.381Zm-.4,4.441.022,0-.014.063C175.471,921.915,175.473,921.822,175.473,921.822Zm-6.126,15.517c.049-.087.1-.178.149-.266A11.015,11.015,0,0,1,170.5,935a10.223,10.223,0,0,1-1.008,2.069.624.624,0,0,0-.021.118ZM131.63,936.9c-.032-.019-.078-.069-.108-.081l-.005,0-.018-.022-.068-.066,0,0a.5.5,0,0,1,.065.068l.024.017.057.035C131.6,936.875,131.612,936.886,131.63,936.9Zm-5.158-1.5-.038-.048c.055.035.078.017.063-.047,0-.009-.011-.018-.015-.027.008.007.014.016.023.023-.274-.514-.508-1.2-.274-1.131a16.137,16.137,0,0,0,.909,1.34l.5.719c.268.64.319.766.183.959-.163-.282-.405-.561-.657-.906a4.272,4.272,0,0,0-.67-.978C126.512,935.371,126.494,935.384,126.472,935.4Zm.814-9.373.024-.006v.061Zm-.388,1.727a.2.2,0,0,0-.114-.061.831.831,0,0,1-.148.4c.034-.165.026-.416.148-.4a1.836,1.836,0,0,0,.036-.352C126.872,927.514,126.837,927.585,126.9,927.755Zm-.941,5.086-.03-.057a2.6,2.6,0,0,0,.306.439l-.022.012Zm-.461-2.727-.118-.2-.054-.153C125.368,929.855,125.44,930,125.5,930.114Zm-.918-3.74c-.024.006-.067-.052-.11-.139l-.013-.064C124.491,926.263,124.546,926.381,124.579,926.374Zm-2.669-2.4a.531.531,0,0,1-.045-.115h.007A.3.3,0,0,0,121.91,923.979Zm.766,2.762c-.055.017-.024.195.04.432a1.371,1.371,0,0,1-.154-.462C122.57,926.614,122.631,926.69,122.676,926.741Zm1.406-1.609a1.719,1.719,0,0,1-.2-.586A4.35,4.35,0,0,0,124.082,925.132Zm.214,1.54c-.019-.2-.041-.353.029-.37C124.268,926.315,124.277,926.476,124.3,926.672Zm-2.781-9.06,0,.059H121.5v-.028l0-.031Zm-.177,1.174v.028c0,.01-.005.022-.007.032-.019.157-.035.287-.052.424l-.007.123v-.062l.007-.061a2.412,2.412,0,0,1,.052-.424Zm-.493,4.59a.082.082,0,0,0,.074-.035c.01.1.016.156.026.248a1.157,1.157,0,0,0-.1-.213c-.077-.009-.161-.14-.244-.272A.785.785,0,0,1,120.844,923.375Zm3.815,7.854.154.372a1.39,1.39,0,0,0,.176.4l-.006-.069a3.579,3.579,0,0,0,.165.406c.22.454.628,1.121.356,1.029-.075-.031-.106-.006-.1.06l-.238-.461-.007,0c0-.217-.308-.6-.452-.94a3.685,3.685,0,0,0-.269-.849C124.539,931.288,124.611,931.292,124.66,931.229Zm7.494-32.367.009-.013h0Zm19.916-6.029-.006.038c0,.031-.159.007-.162.028C151.907,892.869,152.064,892.868,152.069,892.833Zm-1.948-.261c-.063-.006,0,0-.032-.007h-.157l.065-.008a3.084,3.084,0,0,1,.536-.025C150.438,892.557,150.188,892.54,150.121,892.573Zm.414.285v0a.446.446,0,0,1-.095,0l-.029,0-.065.014c-.026,0-.045,0-.07,0,.037-.009.105-.006.135-.018v-.007l.029,0Zm20.974,37a.374.374,0,0,1,.088-.155l.016.007C171.582,929.765,171.5,929.952,171.509,929.861Zm.068.2-.026.045.007-.055c-.01.009-.018.021-.027.031a.184.184,0,0,0,0-.02c.007,0,.021-.013.036-.032l-.011.021Zm3.018-8.45c-.013.089-.016.12-.032.239a.336.336,0,0,0-.027-.155C174.559,921.608,174.577,921.642,174.595,921.612Zm-.575-14.524.017.036-.015-.03,0-.007-.039-.081a.777.777,0,0,1-.021-.1A.692.692,0,0,0,174.02,907.088Zm-.13-2.832.014.022-.014-.022,0,0-.019-.03Zm-.408-.358-.013.007-.018-.029C173.476,903.9,173.482,903.9,173.482,903.9Zm-8.827-7.654a4.561,4.561,0,0,0-.561-.28A1.808,1.808,0,0,1,164.654,896.244Zm-1.765-.819a.456.456,0,0,1,.135.028l.055.036A.867.867,0,0,0,162.89,895.425Zm.189-.119c.03-.048-.091-.156-.246-.282C162.987,895.15,163.116,895.246,163.079,895.306Zm-3.35-1.825.148.07-.372-.127Zm-2.978-1.767.464.1.063.02a2.712,2.712,0,0,0-.533-.1Zm-5.582-3.031c-.029.007-.046.016-.1.026V888.7Zm-5,.162.07.005-.284.013ZM126.066,903.11c0,.028,0,.072,0,.11v0A.2.2,0,0,1,126.066,903.11Zm-.041.17-.005.009c-.035.014-.076.037-.114.053C125.951,903.314,125.988,903.3,126.025,903.28Zm-5.534,17.742c-.013.04-.025.081-.056.047l-.005-.064C120.462,921.072,120.477,921.052,120.491,921.021Zm.692,5.373,0,.008h0Zm3.074,5.9-.235-.572c.032.045.064.091.1.135a2.583,2.583,0,0,0,.217.552C124.309,932.372,124.284,932.331,124.256,932.294Zm2,3.768a8.813,8.813,0,0,1-1.2-2.272c-.03-.095-.07-.191-.11-.287a2.574,2.574,0,0,1,.223.411,4.315,4.315,0,0,0,.459.786,1.6,1.6,0,0,0,.142.132,17.43,17.43,0,0,0,1.985,2.448l-.056.067C127.467,937.515,126.846,936.766,126.259,936.063Zm1.749-5.568c.158-.007.2-.216.127-.6h0c.048.234.095.466.136.669C128.377,930.979,128.149,930.66,128.008,930.495Zm.347,5.178c.033.018-.04-.129.051-.033s.019.067.062.155Zm1.973.02.032-.023c.026-.019.118.1.135.092C130.468,935.78,130.356,935.671,130.328,935.692Zm.869,1.279c.087.048.25.234.321.257.04.048,0,0,.018.027l.11.109-.051-.039A3,3,0,0,1,131.2,936.971Zm.428,5.634-.046-.051.21.188Zm1.173-.494c0-.008-.01-.024-.007-.032-.2-.217-.316-.4-.506-.612l-.06-.037s.034.014.007-.008l.054.045c.469.367.533.511.506.612.038.042.06.077.107.123Zm2.106-3.464.235.088c-.045.005.011.073.02.108A2.4,2.4,0,0,1,134.9,938.647Zm1.528,3.378.008-.012.021.027C136.433,942.021,136.432,942.024,136.432,942.024Zm3.137.238a1.242,1.242,0,0,0,.267.071A.615.615,0,0,1,139.569,942.263Zm1.534.8c.028.012.029.009.029.009v0l-.028-.012c-.021-.005-.034,0-.054-.007a1.038,1.038,0,0,1-.644-.1,1.613,1.613,0,0,1-.394-.157c-.018-.009-.026-.005-.043-.015l-.192-.087c.076.034.157.068.235.1.133.057.267.111.394.157.222.055.408.047.644.1.007,0,.022,0,.028,0s-.007-.011,0-.012c-.088-.1-.155-.17-.246-.27l-.038-.025.026.011c-.013-.019-.051-.046-.068-.066a6.468,6.468,0,0,1-.793-.58l-.007.012-.653-.4.58.344.079.043a2.643,2.643,0,0,1,.793.58c.046.03.075.062.123.09l-.055-.024.012.015c.2.126.4.248.246.27Zm.759.127-.327-.139c.112.04.244.11.389.149Zm1.687,2.154,0-.01v0Zm1.61-.749c.036-.015-.078-.05-.072-.07a.59.59,0,0,0,.16.1Zm2.225.51v-.011l.059.023Zm1.46.2a4.239,4.239,0,0,0-.486-.213l.57.032C149.041,945.187,149.124,945.253,148.844,945.306Zm2.319-1.805a.817.817,0,0,0,.223.061.167.167,0,0,0,.082.03v.007a.218.218,0,0,1-.082-.037l-.277-.055C151.163,943.507,151.163,943.5,151.163,943.5Zm.3.438h.029a.836.836,0,0,1-.2.059A1.093,1.093,0,0,0,151.46,943.939Zm4.769,2.434-.015.015a.211.211,0,0,1-.1.087l.1-.087a.089.089,0,0,0,.01-.049c.006.038.1.057.174.084A1.349,1.349,0,0,0,156.229,946.372Zm2.5-2.865c-.116.036-.265.1-.281.041-.054.015-.005-.021-.089,0a.138.138,0,0,0,.011-.013l.067-.025.011.042.175-.02.106-.021c.019-.006.043-.015.06-.019l0,.007Zm5.778-2.6c-.389.182-.735.321-.869.25-.191-.057.2-.276.533-.486.142-.093.323-.225.215-.243-.23.048-.545.282-.716.263.288-.222.666-.345.971-.586-.073.018-.12.024-.142.011l-.037.012.024-.016s.01,0,.013,0c.066-.021.127-.036.142-.011a.6.6,0,0,1,.19-.114c.4-.15.814-.527,1.236-.7a6.109,6.109,0,0,0,1.515-1.166l.024-.015.042-.038-.022.018c.352-.481-.115-.09-.4.123l-.128.1-.075.043c-.235.058-.64.431-.876.48a26.391,26.391,0,0,0,2.878-2.472c.059-.058.125-.121.192-.183a.175.175,0,0,0-.018.035c-.06.113.044.036.121-.064a1.322,1.322,0,0,0,.11-.149l-.016-.011c.163-.162.3-.318.3-.438a1.273,1.273,0,0,1,.225-.5c.23-.109.57-.438.72-.406-.133.213-.191.331-.18.414a10.461,10.461,0,0,0-.891,1.471,8.109,8.109,0,0,1-.786,1.312c-.238.263-.455.522-.664.778-.057.04-.115.083-.173.122A33.179,33.179,0,0,1,164.507,940.906Zm1.277-.23.126-.073a.523.523,0,0,0,.117-.053.588.588,0,0,1,.149-.069.71.71,0,0,0-.149.069A1.789,1.789,0,0,1,165.784,940.676Z" transform="translate(-119.545 -888.433)"/><path class="a" d="M130.116,904.04c-.108.313-.868,1.148-1,1.556C130.321,904.192,130.373,904.243,130.116,904.04Z" transform="translate(-121.775 -892.78)"/><path class="a" d="M120.039,920.649c.1-.355.17-.913.3-1.223.334-.673.366-1.676.664-2.484l.235-.686c.209-.413.32-1.072.563-1.5.1-.241.177-.423.254-.6a11.034,11.034,0,0,1,1.054-2.355l.05-.122.05-.084c.772-1.27,1.37-2.388,1.939-3.432l.488-.728c.152-.257.272-.49.227-.522,0-.008-.006-.009-.01-.012.17-.3.343-.591.523-.88a30.844,30.844,0,0,0-4.8,8.412c-.023-.105-.128.094-.208.336-.188.591-.423,1.192-.57,1.772a7.611,7.611,0,0,0-.489,1.737c-.089.39-.17.746-.26,1.139-.117.35-.182.845-.275,1.2a2.292,2.292,0,0,1-.062.361,5.12,5.12,0,0,0-.2,1.259c-.018.134-.04.3-.054.4-.035.163-.1.362-.115.5,0,.507-.009.975-.013,1.481a.446.446,0,0,0,.022.1c.022.035.037.035.059-.065a1.529,1.529,0,0,0,.1-.4H119.5c.068-.231.056-.6.1-.9a2.079,2.079,0,0,1,.017-.3,2.791,2.791,0,0,0,.16-.855,2.936,2.936,0,0,1-.09.3l-.04.128,0-.035c.013-.026.024-.062.036-.094.032-.105.062-.2.09-.3.145-.386.105-1.126.258-1.575Z" transform="translate(-119.334 -893.53)"/><path class="a" d="M191.258,902.87a7.9,7.9,0,0,0-1.9-1.927C189.98,901.444,190.648,902.449,191.258,902.87Z" transform="translate(-137.997 -891.555)"/><path class="a" d="M195.975,909.277c.2.369.425.8.636,1.2a5.422,5.422,0,0,0,.312.519c.184.2.113-.053-.024-.323a11.347,11.347,0,0,0-1.312-2.3l-.206-.314c-.174-.248-.357-.495-.42-.456-.089-.03.074.223.2.415C195.441,908.456,195.712,908.951,195.975,909.277Z" transform="translate(-139.39 -893.789)"/><path class="a" d="M133.525,900.821a.6.6,0,0,0-.281.187l-.313.353.305-.206C133.418,901.009,133.562,900.867,133.525,900.821Z" transform="translate(-122.728 -891.525)"/><path class="a" d="M131.907,902.507l.071-.169-.293.229c.02.021-.081.158-.017.128A2.218,2.218,0,0,0,131.907,902.507Z" transform="translate(-122.407 -891.903)"/><path class="a" d="M197.4,950.156c-.069.091-.086-.086-.209.275-.024.075-.026.156-.01.164a2.537,2.537,0,0,0,.226-.311C197.473,950.147,197.493,950.032,197.4,950.156Z" transform="translate(-139.948 -905.581)"/><path class="a" d="M200.568,922.645c.094.062,0-.34-.032-.564l-.269-1.324c-.111-.242-.174-.225-.167.04l.26,1.318C200.435,922.4,200.514,922.655,200.568,922.645Z" transform="translate(-140.678 -897.397)"/><path class="a" d="M181.916,897.608l.131.123-.063-.1Z" transform="translate(-135.866 -890.723)"/><g transform="translate(10.354 16.964)"><path class="c" d="M145.3,942.4a.68.68,0,0,0,.681.69l15.056,0a.681.681,0,0,0,.68-.657,14.18,14.18,0,0,0-.173-2.378l10.993,0a.679.679,0,0,0,.679-.658c.008-.233.149-5.747-3.309-8.915a.68.68,0,0,0-.874-.037c-.04.031-4.061,3.052-7.8,0a.681.681,0,0,0-.876.014,10.206,10.206,0,0,0-2.134,2.938.684.684,0,0,0-.684.082c-.165.125-4.082,3.038-7.806,0a.679.679,0,0,0-.634-.119,9.057,9.057,0,0,0-2.065-2.885.68.68,0,0,0-.873-.037c-.041.031-4.061,3.052-7.8,0a.681.681,0,0,0-.876.014,12.3,12.3,0,0,0-3.553,8.906.68.68,0,0,0,.681.69l10.925,0A14.5,14.5,0,0,0,145.3,942.4Zm15.569-10.527c3.558,2.482,7.188.758,8.49-.026,2.022,2.172,2.411,5.453,2.482,6.842l-10.57,0a11.043,11.043,0,0,0-2.022-4.275A10.439,10.439,0,0,1,160.866,931.871Zm-11.5,3.038c3.558,2.482,7.188.758,8.49-.026,2.023,2.172,2.411,5.453,2.483,6.842l-13.655,0A11.451,11.451,0,0,1,149.367,934.91Zm-14.059,3.78a11.455,11.455,0,0,1,2.682-6.818c3.558,2.482,7.188.758,8.49-.026a8.242,8.242,0,0,1,1.561,2.522,12.268,12.268,0,0,0-2.2,4.321Z" transform="translate(-133.921 -917.017)"/><path class="c" d="M136.281,919.043a6.445,6.445,0,0,0,6.438,6.434h0a6.388,6.388,0,0,0,4.549-1.888,6.264,6.264,0,0,0,.471-.529,6.443,6.443,0,0,0,6.355,5.456h0a6.434,6.434,0,0,0,6.374-5.593,6.426,6.426,0,0,0,5.123,2.554h0a6.439,6.439,0,1,0-6.378-7.281,6.419,6.419,0,0,0-9.674-.667,6.521,6.521,0,0,0-.471.529,6.434,6.434,0,0,0-12.792.985ZM162,915.452a5.075,5.075,0,1,1,3.592,8.665h0a5.075,5.075,0,0,1-3.59-8.665Zm-11.5,3.038a5.075,5.075,0,1,1,3.592,8.665h0a5.075,5.075,0,0,1-3.589-8.665Zm-7.787-4.528a5.077,5.077,0,0,1,0,10.155h0a5.077,5.077,0,0,1,0-10.155Z" transform="translate(-134.51 -912.603)"/></g></svg>