<svg xmlns="http://www.w3.org/2000/svg" xmlns:xlink="http://www.w3.org/1999/xlink" width="180.309" height="28.889" viewBox="0 0 180.309 28.889"><defs><style>.a{clip-rule:evenodd;}.b,.c{fill:none;}.c,.e,.g{fill-rule:evenodd;}.d{clip-path:url(#a);}.e{fill:#feef7c;}.f{clip-path:url(#b);}.g{fill:#5cd3cb;}</style><clipPath id="a"><path class="a" d="M38.111,22.875a9.8,9.8,0,0,1,3.7,7.289c-.178,5.7-2.869,9.371-7.493,10.944-5.342,1.61-8.727.307-12-3.03l-.546,3.393c5.7,3.743,13.969,5.6,19.207.438a13.548,13.548,0,0,0-.958-19.99l-1.907.956Z" transform="translate(-21.769 -21.919)"/></clipPath><clipPath id="b"><path class="a" d="M4.537,22.8,6,21.52C2.658,16.782,2.518,9.845,7.094,6.027A11.994,11.994,0,0,1,22.6,6.469L23.434,5A14.224,14.224,0,0,0,8.121,1.177C-2.338,5.291-.726,19.069,4.537,22.8Z" transform="translate(-0.41 -0.336)"/></clipPath></defs><rect class="b" width="180.309" height="28.889"/><g transform="translate(0.098 0.08)"><path d="M141.149,27.95c2.934,0,5.03-1.509,5.03-4.024v-.056c0-2.4-1.845-3.856-5-3.856h-6.035V27.95Zm-8.214-8.857a1.116,1.116,0,0,1,1.09-1.118h7.32a7.712,7.712,0,0,1,5.56,1.956,5.406,5.406,0,0,1,1.508,3.856v.055c0,3.214-2.18,5.086-5.225,5.672l4.862,6.259a1.2,1.2,0,0,1,.363.809,1.155,1.155,0,0,1-1.118,1.091,1.284,1.284,0,0,1-1.033-.588l-5.5-7.152h-5.615v6.622a1.1,1.1,0,1,1-2.207,0V19.093Z" transform="translate(-101.25 -13.758)"/><path d="M216.244,36.416V19.094a1.116,1.116,0,0,1,1.09-1.118h12.154a1.006,1.006,0,0,1,0,2.012H218.451v6.676h9.779a1.02,1.02,0,0,1,1.006,1.006,1,1,0,0,1-1.006,1.005h-9.779v6.846h11.176a1.006,1.006,0,0,1,0,2.011H217.334a1.115,1.115,0,0,1-1.09-1.117" transform="translate(-164.642 -13.759)"/><path d="M295.287,36.39l-7.543-17.406a1.023,1.023,0,0,1-.113-.5,1.135,1.135,0,0,1,1.119-1.089,1.234,1.234,0,0,1,1.144.838l6.762,16.2,6.788-16.26a1.3,1.3,0,0,1,1.09-.782,1.086,1.086,0,0,1,1.09,1.062,1.157,1.157,0,0,1-.084.446l-7.572,17.49a1.35,1.35,0,0,1-1.285.922h-.111a1.325,1.325,0,0,1-1.285-.922" transform="translate(-218.961 -13.314)"/><path d="M379.94,18.509a1.1,1.1,0,1,1,2.207,0v17.6a1.1,1.1,0,1,1-2.207,0Z" transform="translate(-289.201 -13.313)"/><path d="M411.955,36.416V19.094a1.116,1.116,0,0,1,1.089-1.118H425.2a1.006,1.006,0,0,1,0,2.012H414.162v6.676h9.779a1.019,1.019,0,0,1,1.006,1.006,1,1,0,0,1-1.006,1.005h-9.779v6.846h11.176a1.006,1.006,0,0,1,0,2.011H413.044a1.115,1.115,0,0,1-1.089-1.117" transform="translate(-313.561 -13.759)"/><path d="M483.808,19.015a1.629,1.629,0,0,1-.111-.5,1.163,1.163,0,0,1,1.145-1.117,1.25,1.25,0,0,1,1.146.92l5.392,15.535,5.112-15.59a1.109,1.109,0,0,1,1.09-.866h.141a1.132,1.132,0,0,1,1.089.866l5.112,15.59,5.42-15.59a1.127,1.127,0,0,1,1.062-.866,1.154,1.154,0,0,1,1.118,1.089,1.908,1.908,0,0,1-.139.531l-6.259,17.377a1.237,1.237,0,0,1-1.145.95h-.167a1.238,1.238,0,0,1-1.145-.95l-5.086-15.03-5.058,15.03a1.236,1.236,0,0,1-1.145.95h-.167a1.206,1.206,0,0,1-1.146-.95Z" transform="translate(-368.151 -13.317)"/><path d="M610.3,34.3a1,1,0,0,1-.419-.839,1.069,1.069,0,0,1,1.063-1.09.975.975,0,0,1,.669.251,8.89,8.89,0,0,0,6.175,2.32c2.626,0,4.358-1.4,4.358-3.325v-.056c0-1.816-.978-2.849-5.085-3.716-4.5-.977-6.567-2.431-6.567-5.644v-.055c0-3.073,2.71-5.336,6.426-5.336a9.973,9.973,0,0,1,6.23,1.927,1.135,1.135,0,0,1,.475.894,1.061,1.061,0,0,1-1.061,1.062,1.028,1.028,0,0,1-.642-.2,8.183,8.183,0,0,0-5.058-1.7c-2.542,0-4.163,1.4-4.163,3.157V22c0,1.845,1.006,2.878,5.309,3.8,4.358.95,6.37,2.541,6.37,5.531v.057c0,3.352-2.793,5.532-6.676,5.532a11.435,11.435,0,0,1-7.4-2.626" transform="translate(-464.169 -12.87)"/><path d="M681.967,90.531a.714.714,0,0,1,.734.734v.313a.742.742,0,1,1-1.484,0v-.313a.718.718,0,0,1,.75-.734" transform="translate(-518.447 -68.967)"/><path d="M698.065,54.364a.608.608,0,0,1,.594-.61.6.6,0,0,1,.61.61V61.38a.588.588,0,0,1-.595.61.6.6,0,0,1-.609-.61V54.364Zm-.11-3.062a.714.714,0,0,1,1.422,0v.2a.715.715,0,0,1-1.422,0Z" transform="translate(-531.184 -38.628)"/><path d="M720.246,67.461V67.43a3.058,3.058,0,0,0-3-3.158,2.983,2.983,0,0,0-2.954,3.127v.031a3.031,3.031,0,0,0,2.985,3.14,2.981,2.981,0,0,0,2.969-3.109m-7.189,0V67.43a4.211,4.211,0,0,1,8.423-.031v.031a4.194,4.194,0,0,1-4.235,4.219,4.139,4.139,0,0,1-4.188-4.188" transform="translate(-542.675 -48.178)"/><path class="c" d="M38.111,22.875a9.8,9.8,0,0,1,3.7,7.289c-.178,5.7-2.869,9.371-7.493,10.944-5.342,1.61-8.727.307-12-3.03l-.546,3.393c5.7,3.743,13.969,5.6,19.207.438a13.548,13.548,0,0,0-.958-19.99l-1.907.956Z" transform="translate(-16.662 -16.759)"/><g class="d" transform="translate(5.107 5.16)"><path class="e" d="M20.21,2.654A12.122,12.122,0,1,0,2.717,19.441l3.659,3.813A12.122,12.122,0,1,0,23.87,6.468L20.21,2.654Z" transform="translate(-4.705 -4.424)"/></g><path class="c" d="M4.537,22.8,6,21.52C2.658,16.782,2.518,9.845,7.094,6.027A11.994,11.994,0,0,1,22.6,6.469L23.434,5A14.224,14.224,0,0,0,8.121,1.177C-2.338,5.291-.726,19.069,4.537,22.8Z" transform="translate(-0.41 -0.336)"/><g class="f"><path class="g" d="M23.007,5.451A12.122,12.122,0,0,0,5.514,22.238l3.659,3.813A12.122,12.122,0,1,0,26.667,9.265L23.007,5.451Z" transform="translate(-1.727 -1.393)"/></g><path d="M8.333,20.48A12.146,12.146,0,1,0,20.478,8.333,12.146,12.146,0,0,0,8.333,20.48Zm8.454,2.2a1,1,0,0,0-.354-1.1l-3.862-2.884a.5.5,0,0,1,.3-.9h4.616a1,1,0,0,0,.946-.683L20,12.383a.5.5,0,0,1,.945,0l1.584,4.736a1,1,0,0,0,.945.68H28.1a.5.5,0,0,1,.3.9L24.54,21.6a1,1,0,0,0-.35,1.1L25.7,27.471a.5.5,0,0,1-.778.546l-3.848-2.954a1,1,0,0,0-1.216,0l-3.805,2.942a.5.5,0,0,1-.78-.544l1.511-4.787Z" transform="translate(-6.439 -6.421)"/></g></svg>