<svg xmlns="http://www.w3.org/2000/svg" width="64.45" height="49.983" viewBox="0 0 64.45 49.983"><defs><style>.a{fill:#f6b81f;}.b{fill:#e0a422;}.c{fill:#cb9425;}.d{fill:#d8a286;fill-rule:evenodd;}.e{fill:#fff;}</style></defs><g transform="translate(-1365.113 -87.256)"><g transform="translate(1373.543 93.621)"><path class="a" d="M1380.75,105.612l1.785-3.592,3.992-.576-2.888-2.8.682-3.948-3.57,1.864-3.57-1.864.682,3.948-2.888,2.8,3.992.576Z" transform="translate(-1374.974 -94.701)"/><path class="b" d="M1381.731,106.46v-5.912l1.785,2.32Z" transform="translate(-1375.954 -95.55)"/><path class="b" d="M1387.508,102.114l-2.888-2.8-2.888,1.051Z" transform="translate(-1375.954 -95.371)"/><path class="b" d="M1374.974,102.114l2.888-2.8,2.888,1.051Z" transform="translate(-1374.974 -95.371)"/><g transform="translate(2.206)"><path class="b" d="M1377.555,94.7l3.57,1.864V99.7Z" transform="translate(-1377.555 -94.701)"/><path class="c" d="M1381.731,99.7V96.565l3.57-1.864Z" transform="translate(-1378.161 -94.701)"/></g></g><g transform="translate(1390.121 87.256)"><path class="a" d="M1400.268,98.166l1.785-3.592,3.992-.576-2.888-2.8.682-3.948-3.57,1.864-3.57-1.864.682,3.948-2.888,2.8,3.992.576Z" transform="translate(-1394.492 -87.255)"/><path class="b" d="M1401.249,99.014V93.1l1.785,2.32Z" transform="translate(-1395.472 -88.104)"/><path class="b" d="M1407.026,94.668l-2.888-2.8-2.888,1.051Z" transform="translate(-1395.472 -87.925)"/><path class="b" d="M1394.492,94.668l2.888-2.8,2.888,1.051Z" transform="translate(-1394.492 -87.925)"/><g transform="translate(2.206)"><path class="b" d="M1397.073,87.255l3.57,1.864v3.135Z" transform="translate(-1397.073 -87.255)"/><path class="c" d="M1401.249,92.254V89.119l3.57-1.864Z" transform="translate(-1397.679 -87.255)"/></g></g><g transform="translate(1407.123 93.621)"><path class="a" d="M1420.241,105.612l1.785-3.592,3.992-.576-2.888-2.8.682-3.948-3.57,1.864-3.57-1.864.682,3.948-2.888,2.8,3.992.576Z" transform="translate(-1414.464 -94.701)"/><path class="b" d="M1421.222,106.46v-5.912l1.785,2.32Z" transform="translate(-1415.445 -95.55)"/><path class="b" d="M1427,102.114l-2.888-2.8-2.889,1.051Z" transform="translate(-1415.445 -95.371)"/><path class="b" d="M1414.464,102.114l2.888-2.8,2.888,1.051Z" transform="translate(-1414.464 -95.371)"/><g transform="translate(2.206)"><path class="b" d="M1417.046,94.7l3.57,1.864V99.7Z" transform="translate(-1417.046 -94.701)"/><path class="c" d="M1421.222,99.7V96.565l3.57-1.864Z" transform="translate(-1417.651 -94.701)"/></g></g><g transform="translate(1365.113 106.813)"><path class="a" d="M1370.89,121.147l1.785-3.592,3.991-.576-2.888-2.8.682-3.948-3.57,1.864-3.57-1.864.682,3.948-2.888,2.8,3.991.576Z" transform="translate(-1365.114 -110.236)"/><path class="b" d="M1371.871,122v-5.912l1.785,2.32Z" transform="translate(-1366.095 -111.085)"/><path class="b" d="M1377.648,117.65l-2.888-2.8-2.888,1.051Z" transform="translate(-1366.095 -110.906)"/><path class="b" d="M1365.114,117.65l2.888-2.8,2.888,1.051Z" transform="translate(-1365.114 -110.906)"/><g transform="translate(2.206)"><path class="b" d="M1367.695,110.236l3.57,1.864v3.135Z" transform="translate(-1367.695 -110.236)"/><path class="c" d="M1371.871,115.235V112.1l3.57-1.864Z" transform="translate(-1368.301 -110.236)"/></g></g><g transform="translate(1418.01 106.813)"><path class="a" d="M1433.032,121.147l1.785-3.592,3.992-.576-2.888-2.8.682-3.948-3.57,1.864-3.57-1.864.682,3.948-2.888,2.8,3.992.576Z" transform="translate(-1427.255 -110.236)"/><path class="b" d="M1434.012,122v-5.912l1.785,2.32Z" transform="translate(-1428.235 -111.085)"/><path class="b" d="M1439.789,117.65l-2.888-2.8-2.888,1.051Z" transform="translate(-1428.235 -110.906)"/><path class="b" d="M1427.255,117.65l2.888-2.8,2.888,1.051Z" transform="translate(-1427.255 -110.906)"/><g transform="translate(2.206)"><path class="b" d="M1429.836,110.236l3.57,1.864v3.135Z" transform="translate(-1429.836 -110.236)"/><path class="c" d="M1434.012,115.235V112.1l3.57-1.864Z" transform="translate(-1430.442 -110.236)"/></g></g></g><g transform="translate(14.998 14.998)"><path class="d" d="M1404.649,145.429c.168-.082.8-.112,1.015-.221C1404.628,145.286,1404.628,145.246,1404.649,145.429Z" transform="translate(-1385.804 -110.857)"/><path class="d" d="M1383.054,124.249a4.441,4.441,0,0,0-.01,1.52C1382.995,125.323,1383.129,124.658,1383.054,124.249Z" transform="translate(-1382.66 -107.815)"/><path class="d" d="M1402.389,145.441a.328.328,0,0,0,.185.038l.264-.016-.2-.038C1402.506,145.41,1402.392,145.409,1402.389,145.441Z" transform="translate(-1385.477 -110.887)"/><path class="d" d="M1403.582,145.442l-.1.038.207.026c0-.016.095-.031.057-.044A1.191,1.191,0,0,0,1403.582,145.442Z" transform="translate(-1385.636 -110.891)"/><path class="d" d="M1405.5,105.349l1.814.4.691.209a11.366,11.366,0,0,1,1.456.527l-.033-.029.7.314c.218.07.476.247.691.328.377.215.77.4,1.1.626a2.082,2.082,0,0,0,.45.262l.877.6c.116.052.3.224.4.268s.161.1.222.129a2.518,2.518,0,0,0-.554-.485l-1.039-.71a3.214,3.214,0,0,0-.9-.521l-.681-.363a10.081,10.081,0,0,0-1.181-.515l-.439-.187a2.767,2.767,0,0,0-.746-.256l-.277-.089a.968.968,0,0,0-.239-.072l-.221-.061a11.461,11.461,0,0,0-2.078-.509c-.185-.027-.292-.021-.3.018S1405.316,105.316,1405.5,105.349Zm6.524,2.4.016.01a1.106,1.106,0,0,1,.226.15l-.226-.15c-.006,0-.013-.006-.018-.007Z" transform="translate(-1385.886 -105.05)"/><path class="d" d="M1419.9,137.321l-.008.012c-.009.013-.014.029-.024.042Z" transform="translate(-1388.014 -109.712)"/><path class="d" d="M1416.886,125.351c0-.009,0-.02,0-.03a5.817,5.817,0,0,0,.1-1.382,1.036,1.036,0,0,0-.039.112,1.521,1.521,0,0,0-.006-.282l-.013-.062.008-.083c0-.374.009-.747.013-1.142l-.042-.226a19.208,19.208,0,0,0-.58-3.238l-.089-.233a27.644,27.644,0,0,0-.924-2.631l-.128-.187-.1-.245a1.075,1.075,0,0,0-.207-.439,7.216,7.216,0,0,0-.915-1.553,26.023,26.023,0,0,0-1.707-2.07c-.3-.32-.477-.651-.786-.943-.3-.268-.351-.162-.781-.517-.463-.349-.909-.746-1.408-1.106l-.03.039c-.006-.025-.027-.062.03-.039l-.195-.137-.029.04-.6-.417-.224-.091-.072-.034-.044-.039c-.172-.137-.42-.22-.511-.336.115,0,.49.221.524.166a2.835,2.835,0,0,0-1.418-.578c-.136-.079-.329-.177-.314-.207.112-.091-.192-.195-.587-.328-.322-.1-.416-.076-.406,0l-.215-.091a.874.874,0,0,0-.237-.094l.031.027a2.355,2.355,0,0,0-.233-.1c-.276-.1-.716-.208-.568-.28.117-.049-.063-.13-.385-.229a2.155,2.155,0,0,0-.818-.165c.323.1.7.288.578.356-.139-.025-.3-.067-.462-.105a1.62,1.62,0,0,0-.315-.262c-.035-.045-.073-.085-.23-.124a.491.491,0,0,0-.268-.32c.153.01.319.026.483.043a5.16,5.16,0,0,1,1.424.45,3.206,3.206,0,0,0,.939.293l1.314.557a30.331,30.331,0,0,1,3.087,1.671l-.019-.009c.557.345,1.039.851,1.578,1.255a4.589,4.589,0,0,1,.7.629l.252.241c.171.151.347.35.513.532.516.635,1.01,1.189,1.442,1.792l-.039-.095.021.033.018.062a3.653,3.653,0,0,0,.429.584l.074.1.06.107a8.561,8.561,0,0,0,.615,1.1,2.106,2.106,0,0,1,.116.2c.116.263.242.525.354.725.024.059.027.057.039.053.019.015.019-.008.006-.072a6.084,6.084,0,0,0-.875-1.957l-.391-.617a10.712,10.712,0,0,0-2.8-3.256,1.727,1.727,0,0,0-.381-.318,1.8,1.8,0,0,0-.391-.275l-.367-.3-.594-.509a11.533,11.533,0,0,0-2.882-1.765c-.462-.218-.974-.372-1.462-.629-.36-.2-.838-.394-.681-.156.023.053-.288-.039-.483-.1-.37-.105-.792-.256-1.192-.339a.551.551,0,0,1-.158-.038.711.711,0,0,0-.277-.059.529.529,0,0,1-.179-.037,10.487,10.487,0,0,0-1.052-.285,2.654,2.654,0,0,0-.456-.1c-.023-.044-.086-.079-.275-.1a1.963,1.963,0,0,0-.256-.038l-.062.01-.022,0,.084-.012c-.042-.038-.128-.061-.341-.062l-.022-.007v0c-.021-.027-.107-.036-.258-.038a.453.453,0,0,1-.169.009c-.4.031-.792.087-1.187.156a3.424,3.424,0,0,0-.681.02,17.933,17.933,0,0,0-2.826.406l0,.008,0,.009,0-.016a7.3,7.3,0,0,0-1.431.339,2.487,2.487,0,0,0-.716.187,3.008,3.008,0,0,0-.552.165c-.251.092-.15.122-.3.195a.792.792,0,0,0-.244.161c-.066.052-.382.193-.3.224.036.027.1.032.264-.007.067.048.255.024.527-.051l.052-.032,0,0a.226.226,0,0,0-.053.027l.575.1c.025.065.1.1.351.053-.135.083-.267.168-.39.259a3.747,3.747,0,0,0-1.055.649,10.623,10.623,0,0,0-1.464,1.119l.032-.025c-.231.246-.612.471-.774.7l0,0a4.725,4.725,0,0,0-.385.38l-.034.053-.064.054-.674.658a3.816,3.816,0,0,0-.826.829c-.309.418-.905,1.074-1.243,1.6a8.869,8.869,0,0,0-1.05,1.693l.028-.025c-.014.033-.017.032-.017.032l-.011-.007a15.892,15.892,0,0,0-.932,1.882,6.267,6.267,0,0,0-.467,1.278c-.035.112-.07.223-.1.336a11.354,11.354,0,0,0-.639,2.73,4.157,4.157,0,0,0-.029,1.341.223.223,0,0,1-.009.146,1.449,1.449,0,0,0-.053.443,4.96,4.96,0,0,0,.032,1.38l.014.016h0v0s-.009,0-.014-.016a2.071,2.071,0,0,0,.041.739h0a5.473,5.473,0,0,0,.076.72.352.352,0,0,1,.02.147,1.257,1.257,0,0,0,.045.465,2.065,2.065,0,0,0,.244.82h0a2.161,2.161,0,0,0,.2.595c.08.26.152.5.226.739a9.894,9.894,0,0,0,.47,1.2l.178.444a2.777,2.777,0,0,0,.347.709l.133.26a1.032,1.032,0,0,0,.118.219l.113.2a11.539,11.539,0,0,0,1.109,1.829c.113.15.192.221.225.2s-.021-.138-.128-.291c-.321-.5-.685-1.076-1-1.566l-.341-.636a11.391,11.391,0,0,1-.656-1.4l0,.044c-.1-.251-.177-.464-.272-.716-.1-.2-.162-.512-.256-.721-.031-.113-.064-.226-.1-.338.011.02.02.04.032.059l0,0,.073.13-.029-.139v0a1.239,1.239,0,0,0-.015-.2,1.578,1.578,0,0,0-.078-.455l-.01,0h0l.014,0a.71.71,0,0,0-.011-.151,14.085,14.085,0,0,0,.5,1.555c.173.481.426.951.589,1.479.111.4.313.871.371.592.021-.054.176.232.271.412.187.337.379.742.6,1.083a.516.516,0,0,1,.085.138.734.734,0,0,0,.155.238.524.524,0,0,1,.1.153,7.562,7.562,0,0,0,2.019,2.6,3.435,3.435,0,0,1,.353.368,2.849,2.849,0,0,0,.64.662,17.867,17.867,0,0,0,2.285,1.711l0-.007,0-.007-.009.014a7.3,7.3,0,0,0,1.252.773,2.451,2.451,0,0,0,.639.373,2.907,2.907,0,0,0,.507.274c.243.114.193.021.348.073a.789.789,0,0,0,.286.058c.083.009.407.134.371.056-.006-.045-.051-.1-.192-.183-.014-.081-.163-.2-.409-.337l-.058-.014v0a.178.178,0,0,0,.057.018c-.108-.153-.228-.322-.337-.475.034-.075-.007-.177-.346-.368-.032-.068-.1-.147-.13-.221.245.114.516.221.752.3.255.088.4.08.424.032.062-.054-.224-.158-.4-.245-.2-.1-.362-.215-.373-.277-.024-.081.272.044.422.077a17.136,17.136,0,0,0,1.756.54,3.045,3.045,0,0,0,.856.191l-.016-.012.019,0,0,.008a6.066,6.066,0,0,0,1.155.2.587.587,0,0,1-.088-.038l.019,0,.069.034a4.355,4.355,0,0,0,1.11.094l-.037-.012.037,0v.008a7.464,7.464,0,0,0,1.849.063c.513-.078,1.4-.119,2.011-.253a8.865,8.865,0,0,0,1.94-.455l-.037,0c.033-.014.034-.01.034-.01l0,.012a15.521,15.521,0,0,0,3.533-1.41,11.814,11.814,0,0,0,2.112-1.273h0c.026.029.1.015.229-.085l.067-.08,0,0-.069.078a.616.616,0,0,0,.229-.048,3.623,3.623,0,0,1-.516.384l.015-.012c-.18.1-.429.295-.6.366-.4.134-.811.52-1.249.722l-.365.179c-.247.081-.552.3-.821.374l-.34.139a6.177,6.177,0,0,1-1.353.516l-.068.028-.053.014c-1.387.338-2.4.7-3.469.955a17.557,17.557,0,0,0,5.83-1.707l.4-.2a3.575,3.575,0,0,0,1.039-.549l.556-.349c.185-.092.407-.263.586-.369a1.36,1.36,0,0,1,.167-.119,2.84,2.84,0,0,0,.581-.419l.181-.138c.079-.05.183-.1.242-.151l.257-.252a.77.77,0,0,0,.244-.188l.021-.011,0,0c.034,0,.1-.05.209-.156a.455.455,0,0,1,.114-.126,16.737,16.737,0,0,0,1.5-2.139,7.03,7.03,0,0,0,.46-.809,2.292,2.292,0,0,0,.315-.539c.056-.077.113-.151.174-.221a14.045,14.045,0,0,0,.871-2.735,3.717,3.717,0,0,0,.286-1.2,10.5,10.5,0,0,0,.244-1.826Zm-3.271-12.835-.01.007s0,0,0-.023Zm-21.294-5.951c0-.012-.03-.019.025-.048.016-.015.057-.023.074-.036C1392.37,106.521,1392.316,106.552,1392.321,106.565Zm2.115,33.071c0,.011.009.035-.052.015-.022,0-.055-.023-.077-.026C1394.37,139.634,1394.431,139.65,1394.436,139.637Zm21.4-17.362h-.007v-.038Zm-.107,2.308a4.728,4.728,0,0,0,0-1.068A3.894,3.894,0,0,1,1415.724,124.583Zm.028-6.968c-.017-.016-.054-.11-.075-.123l-.033-.139C1415.683,117.446,1415.73,117.559,1415.752,117.615Zm-.139,2.123.009,0c-.005.021-.012.081-.027.045A.232.232,0,0,0,1415.613,119.737Zm-.329,3.479h0l0,.019Zm-.386-1.312a.776.776,0,0,1,.019.164c-.01.148-.037-.015-.059-.089C1414.876,121.979,1414.894,121.978,1414.9,121.9Zm-.228,2.589h.012l-.008.037C1414.668,124.548,1414.669,124.494,1414.669,124.494Zm-3.507,9.047c.027-.05.057-.1.085-.155a6.515,6.515,0,0,1,.577-1.207,5.987,5.987,0,0,1-.577,1.207.365.365,0,0,0-.012.069Zm-21.587-.254c-.019-.011-.045-.04-.062-.047l0,0-.01-.013-.039-.038h0a.268.268,0,0,1,.037.039l.014.01.033.02C1389.557,133.271,1389.566,133.277,1389.576,133.287Zm-2.952-.876-.022-.027c.031.02.045.01.036-.027l-.009-.015.014.014c-.156-.3-.291-.7-.157-.66.157.226.327.556.521.781l.286.42c.154.374.182.446.105.559-.093-.164-.232-.327-.376-.528a2.522,2.522,0,0,0-.383-.57C1386.646,132.394,1386.637,132.4,1386.624,132.411Zm.466-5.465.014,0v.036Zm-.221,1.007a.12.12,0,0,0-.066-.036.488.488,0,0,1-.085.232c.02-.1.016-.243.085-.232a1.062,1.062,0,0,0,.021-.205C1386.853,127.812,1386.832,127.854,1386.868,127.953Zm-.54,2.966-.017-.033a1.45,1.45,0,0,0,.175.256l-.013.007Zm-.263-1.59-.068-.114-.031-.089Zm-.526-2.181c-.014,0-.038-.03-.062-.08l-.008-.038C1385.489,127.083,1385.521,127.152,1385.54,127.147Zm-1.528-1.4a.366.366,0,0,1-.025-.068h0A.2.2,0,0,0,1384.012,125.751Zm.439,1.611c-.032.009-.014.114.023.251a.8.8,0,0,1-.088-.269C1384.391,127.288,1384.425,127.332,1384.451,127.362Zm.8-.939a1.036,1.036,0,0,1-.112-.342A2.632,2.632,0,0,0,1385.255,126.423Zm.123.9c-.011-.114-.024-.206.016-.215C1385.362,127.113,1385.367,127.207,1385.378,127.321Zm-1.591-5.282,0,.033h-.008v-.034Zm-.1.685v.016l0,.019-.03.246,0,.072v-.036l0-.036a1.381,1.381,0,0,1,.03-.246Zm-.282,2.676a.048.048,0,0,0,.043-.021l.015.144a.742.742,0,0,0-.057-.124c-.044-.005-.093-.081-.14-.158A.448.448,0,0,1,1383.4,125.4Zm2.183,4.58.089.217a.807.807,0,0,0,.1.233l0-.04a2.042,2.042,0,0,0,.094.237c.126.264.359.653.2.6-.044-.018-.061,0-.059.035l-.136-.269,0,0c0-.127-.176-.351-.259-.548a2.176,2.176,0,0,0-.154-.495C1385.518,130.013,1385.558,130.015,1385.586,129.979Zm4.29-18.872.005-.008h0Zm11.4-3.515,0,.022c0,.018-.091,0-.093.016C1401.18,107.612,1401.271,107.611,1401.275,107.591Zm-1.115-.152c-.036,0,0,0-.018,0h-.09l.037-.005a1.834,1.834,0,0,1,.307-.015C1400.34,107.431,1400.2,107.42,1400.159,107.439Zm.237.166v0a.326.326,0,0,1-.055,0l-.016,0-.037.009c-.015,0-.027,0-.04,0,.02-.005.06,0,.077-.01v0l.016,0Zm12,21.575a.228.228,0,0,1,.051-.09l.009,0C1412.443,129.125,1412.395,129.234,1412.4,129.18Zm.039.118-.014.026,0-.032-.016.018V129.3s.013-.008.021-.019l-.006.012Zm1.727-4.927-.018.14a.19.19,0,0,0-.016-.091C1414.146,124.369,1414.156,124.388,1414.166,124.371Zm-.328-8.468.009.021-.009-.017v0l-.022-.047a.551.551,0,0,1-.013-.056A.418.418,0,0,0,1413.838,115.9Zm-.075-1.652.009.013-.009-.013v0l-.011-.016Zm-.233-.209-.007,0-.011-.017C1413.526,114.045,1413.529,114.042,1413.529,114.042Zm-5.052-4.462a2.611,2.611,0,0,0-.322-.163A1.049,1.049,0,0,1,1408.477,109.58Zm-1.01-.477a.243.243,0,0,1,.077.016l.031.021A.442.442,0,0,0,1407.467,109.1Zm.108-.07c.018-.027-.052-.091-.14-.164C1407.523,108.942,1407.6,109,1407.575,109.033Zm-1.918-1.064.085.041-.213-.074Zm-1.7-1.03.265.06.036.011a1.524,1.524,0,0,0-.305-.057Zm-3.195-1.767c-.016,0-.026.009-.055.015v-.007Zm-2.86.095.04,0-.162.008Zm-11.507,8.317,0,.064v0A.118.118,0,0,1,1386.391,113.583Zm-.024.1,0,.005c-.021.009-.044.021-.065.031C1386.325,113.7,1386.347,113.694,1386.367,113.682Zm-3.167,10.344c-.008.024-.014.048-.032.028l0-.038C1383.184,124.056,1383.192,124.045,1383.2,124.026Zm.4,3.133,0,.005h0Zm1.759,3.44-.134-.333c.019.026.037.053.056.078a1.55,1.55,0,0,0,.124.322C1385.386,130.645,1385.371,130.621,1385.355,130.6Zm1.147,2.2a5.2,5.2,0,0,1-.689-1.325c-.017-.055-.04-.111-.062-.168a1.607,1.607,0,0,1,.127.24,2.52,2.52,0,0,0,.262.457,1.022,1.022,0,0,0,.081.078,10.17,10.17,0,0,0,1.136,1.427l-.032.039C1387.193,133.643,1386.838,133.207,1386.5,132.8Zm1-3.247c.091,0,.114-.126.072-.347h0c.027.137.054.272.078.391C1387.714,129.832,1387.583,129.647,1387.5,129.55Zm.2,3.019c.02.01-.023-.076.029-.02s.011.039.035.091Zm1.129.011.018-.014c.015-.011.068.062.078.054C1388.911,132.632,1388.846,132.569,1388.83,132.581Zm.5.745c.049.028.144.137.184.15.023.028,0,0,.01.015l.063.063-.029-.022A1.8,1.8,0,0,1,1389.328,133.326Zm.245,3.285-.026-.03.12.109Zm.671-.288s-.005-.014,0-.019c-.114-.127-.18-.233-.29-.357l-.034-.021s.02.008,0-.005l.03.026c.268.215.305.3.29.357.022.025.034.045.062.072Zm1.206-2.02.135.051c-.026,0,.006.043.011.063A1.325,1.325,0,0,1,1391.45,134.3Zm.875,1.97,0-.007.012.015C1392.325,136.271,1392.324,136.273,1392.324,136.273Zm1.8.138a.694.694,0,0,0,.152.042C1394.221,136.439,1394.209,136.46,1394.12,136.412Zm.877.464c.016.007.017.005.017.005v0l-.016-.007c-.012,0-.019,0-.031,0a.588.588,0,0,1-.368-.056.929.929,0,0,1-.226-.091c-.01-.006-.015,0-.025-.009l-.11-.05.135.06c.076.033.153.065.226.091.127.032.233.027.368.056,0,0,.013,0,.016,0s0-.007,0-.008l-.141-.157-.022-.015.015.006c-.008-.01-.029-.026-.039-.038a3.706,3.706,0,0,1-.454-.339l0,.008-.374-.233.332.2.046.025a1.519,1.519,0,0,1,.454.339c.027.017.043.036.07.053l-.032-.015.008.009c.115.074.227.144.141.157Zm.435.074-.187-.081a2.316,2.316,0,0,0,.222.087Zm.965,1.256,0-.006v0Zm.922-.436c.021-.009-.045-.03-.042-.041a.39.39,0,0,0,.092.056Zm1.273.3,0-.006.033.014Zm.836.12a2.472,2.472,0,0,0-.278-.124l.326.018C1399.541,138.117,1399.588,138.155,1399.428,138.186Zm1.328-1.053a.426.426,0,0,0,.127.036.094.094,0,0,0,.047.017v0a.124.124,0,0,1-.047-.021l-.159-.033C1400.756,137.137,1400.756,137.133,1400.756,137.133Zm.17.256h.016a.458.458,0,0,1-.116.034A.676.676,0,0,0,1400.926,137.39Zm2.73,1.419-.009.009a.124.124,0,0,1-.055.05l.055-.05a.048.048,0,0,0,.006-.029c0,.022.06.033.1.049A.669.669,0,0,0,1403.656,138.809Zm1.43-1.671c-.066.021-.151.058-.161.024-.031.009,0-.012-.051,0l.007-.008.038-.014.006.024.1-.012.061-.012.034-.011,0,0Zm3.307-1.517c-.222.106-.421.187-.5.146-.109-.033.116-.161.3-.283.081-.054.185-.131.123-.142-.132.028-.312.165-.41.154.165-.13.381-.2.556-.343-.042.011-.068.015-.081.007l-.021.007.014-.009.007,0c.037-.012.072-.021.081-.007a.334.334,0,0,1,.109-.066c.229-.087.466-.308.708-.41a3.519,3.519,0,0,0,.867-.68l.014-.009.024-.022-.013.01c.2-.28-.066-.052-.231.072l-.074.059-.042.025c-.135.034-.367.251-.5.28a15.1,15.1,0,0,0,1.648-1.441c.034-.034.072-.071.11-.107a.077.077,0,0,0-.01.021c-.034.066.025.021.068-.037a.771.771,0,0,0,.063-.087l-.009-.007c.093-.094.17-.185.172-.255a.759.759,0,0,1,.129-.292c.132-.063.327-.256.412-.237-.076.124-.108.193-.1.241a6.175,6.175,0,0,0-.51.858,4.742,4.742,0,0,1-.449.765c-.137.153-.261.3-.38.454l-.1.071A18.932,18.932,0,0,1,1408.392,135.621Zm.732-.134.072-.043a.3.3,0,0,0,.067-.031.351.351,0,0,1,.085-.04.381.381,0,0,0-.085.04A1.026,1.026,0,0,1,1409.124,135.487Z" transform="translate(-1382.667 -105.025)"/><path class="d" d="M1387.985,112.713c-.061.175-.487.645-.562.873C1388.1,112.8,1388.129,112.827,1387.985,112.713Z" transform="translate(-1383.305 -106.141)"/><path class="d" d="M1383,121.9c.057-.2.095-.512.169-.686.187-.378.205-.941.373-1.394.036-.1.084-.245.131-.385.117-.232.181-.6.316-.844.057-.135.1-.238.143-.339a6.2,6.2,0,0,1,.592-1.322l.028-.068.028-.047c.433-.712.769-1.34,1.088-1.926l.274-.409c.085-.144.153-.274.127-.292,0,0,0-.005-.006-.007.1-.167.193-.332.294-.494a17.317,17.317,0,0,0-2.691,4.721c-.013-.059-.072.053-.116.188-.1.333-.238.669-.32.994a4.327,4.327,0,0,0-.274.975c-.05.219-.095.418-.146.639-.066.2-.1.474-.154.676a1.253,1.253,0,0,1-.035.2,2.922,2.922,0,0,0-.115.706l-.03.226c-.02.091-.056.2-.064.279,0,.284-.005.546-.008.83a.256.256,0,0,0,.012.056c.012.02.021.019.032-.037a.836.836,0,0,0,.055-.227h0c.038-.13.031-.335.058-.5a1.222,1.222,0,0,1,.01-.168,1.557,1.557,0,0,0,.09-.48,1.554,1.554,0,0,1-.051.167l-.021.072,0-.02c.007-.015.013-.035.02-.052l.051-.167c.081-.216.059-.631.144-.883Z" transform="translate(-1382.606 -106.282)"/><path class="d" d="M1418.164,112.269a4.41,4.41,0,0,0-1.068-1.081C1417.447,111.468,1417.821,112.033,1418.164,112.269Z" transform="translate(-1387.612 -105.919)"/><path class="d" d="M1420.428,115.408l.357.674a3.216,3.216,0,0,0,.174.292c.1.115.063-.03-.014-.181a6.347,6.347,0,0,0-.736-1.293l-.115-.176c-.1-.139-.2-.278-.236-.256-.05-.017.042.125.109.233C1420.128,114.947,1420.28,115.225,1420.428,115.408Z" transform="translate(-1388.01 -106.395)"/><path class="d" d="M1389.637,111.127a.342.342,0,0,0-.158.105l-.175.2.171-.116C1389.577,111.233,1389.657,111.153,1389.637,111.127Z" transform="translate(-1383.578 -105.911)"/><path class="d" d="M1388.816,111.969l.04-.095-.164.128c.011.012-.046.09-.009.072A1.279,1.279,0,0,0,1388.816,111.969Z" transform="translate(-1383.486 -106.019)"/><path class="d" d="M1421.075,135.432c-.039.05-.049-.049-.118.154-.013.042-.015.088-.005.092a1.5,1.5,0,0,0,.127-.174C1421.115,135.427,1421.126,135.363,1421.075,135.432Z" transform="translate(-1388.17 -109.434)"/><path class="d" d="M1422.651,122.019c.052.034,0-.191-.018-.316l-.151-.744c-.063-.135-.1-.127-.094.022l.146.74C1422.576,121.884,1422.621,122.024,1422.651,122.019Z" transform="translate(-1388.379 -107.324)"/><path class="d" d="M1413.432,109.545l.073.069-.036-.055Z" transform="translate(-1387.08 -105.681)"/><g transform="translate(8.441 10.814)"><path class="e" d="M1409.421,122.108a18.795,18.795,0,0,1-12.508-4.433,4.438,4.438,0,0,0-4.433,4.433,4.444,4.444,0,0,0,1.57,3.38l6.761,6.716a.214.214,0,0,0,.3,0l7.013-6.966h0a4.415,4.415,0,0,0,1.3-3.129Z" transform="translate(-1392.48 -117.675)"/></g></g></svg>