<svg xmlns="http://www.w3.org/2000/svg" width="18" height="18" viewBox="0 0 18 18"><defs><style>.a{fill:#f0f0f0;}.b{fill:#d80027;}.c{fill:#0052b4;}</style></defs><g transform="translate(0.084 0.084)"><circle class="a" cx="9" cy="9" r="9" transform="translate(-0.084 -0.084)"/><g transform="translate(0.307 1.938)"><path class="b" d="M244.87,191.543h9.3a8.926,8.926,0,0,0-.307-2.326h-9Z" transform="translate(-236.649 -184.565)"/><path class="b" d="M244.87,57.978h8a8.963,8.963,0,0,0-2.057-2.326H244.87Z" transform="translate(-236.649 -55.652)"/><path class="b" d="M102.194,458.286a8.878,8.878,0,0,0,5.55-1.938h-11.1A8.878,8.878,0,0,0,102.194,458.286Z" transform="translate(-93.585 -442.392)"/><path class="b" d="M9.82,325.108H25.035a8.863,8.863,0,0,0,1-2.326H8.819A8.863,8.863,0,0,0,9.82,325.108Z" transform="translate(-8.819 -313.478)"/></g><path class="c" d="M4.13,1.392h.813l-.756.549.289.888L3.72,2.281l-.756.549.249-.768A8.965,8.965,0,0,0,1.484,3.99h.26l-.481.35q-.112.188-.216.381l.23.707L.849,5.116q-.16.339-.292.692l.253.779h.934l-.756.549.289.888L.522,7.475.069,7.8A9,9,0,0,0,0,8.916H8.916V0A8.874,8.874,0,0,0,4.13,1.392Zm.345,6.632L3.72,7.475l-.756.549.289-.888L2.5,6.587h.934L3.72,5.7l.289.888h.934l-.756.549ZM4.187,4.539l.289.888L3.72,4.878l-.756.549.289-.888L2.5,3.99h.934L3.72,3.1l.289.888h.934ZM7.674,8.024l-.756-.549-.756.549.289-.888L5.7,6.587h.934L6.918,5.7l.289.888h.934l-.756.549ZM7.385,4.539l.289.888-.756-.549-.756.549.289-.888L5.7,3.99h.934L6.918,3.1l.289.888h.934Zm0-2.6.289.888-.756-.549-.756.549.289-.888L5.7,1.392h.934L6.918.5l.289.888h.934Z" transform="translate(0)"/></g></svg>