<svg xmlns="http://www.w3.org/2000/svg" width="24" height="24" viewBox="0 0 24 24"><defs><style>.a{fill:none;}.b{fill:#575d61;}</style></defs><rect class="a" width="24" height="24"/><g transform="translate(-1695.648 -105.412)"><g transform="translate(1698.648 106.412)"><g transform="translate(3.001)"><path class="b" d="M1707.681,106.412a6,6,0,1,0,6,6A6,6,0,0,0,1707.681,106.412Z" transform="translate(-1701.68 -106.412)"/></g><g transform="translate(0 13.066)"><path class="b" d="M1710.908,119.814h-6.766a5.772,5.772,0,0,0-5.494,6.015v2.479a.422.422,0,0,0,.4.44H1716a.422.422,0,0,0,.4-.44v-2.479A5.772,5.772,0,0,0,1710.908,119.814Z" transform="translate(-1698.648 -119.814)"/></g></g></g></svg>