<svg xmlns="http://www.w3.org/2000/svg" width="195" height="40" viewBox="0 0 195 40"><defs><style>.a{fill:#deb299;}.b{fill:#8ba4b4;}</style></defs><g transform="translate(-94.33 -86.588)"><path class="a" d="M102.792,96.2a8.366,8.366,0,0,1,2.778-.467,9.562,9.562,0,0,1,5.281,1.485,10.61,10.61,0,0,1,3.669,4.051,12.571,12.571,0,0,1,1.357,5.959,12.822,12.822,0,0,1-1.357,6,10.582,10.582,0,0,1-3.648,4.093,9.3,9.3,0,0,1-5.174,1.485,9.129,9.129,0,0,1-3.054-.509,9.452,9.452,0,0,1-2.545-1.337,8.883,8.883,0,0,1-1.8-1.761,4.528,4.528,0,0,1-.87-1.739l1.145-.551v11.833a2.1,2.1,0,0,1-.615,1.549,2.05,2.05,0,0,1-1.506.615,2.028,2.028,0,0,1-1.527-.615,2.14,2.14,0,0,1-.594-1.549l.609-22.054c1.742-4.713,7.592-6.445,7.592-6.445m2.572,3.39a6.263,6.263,0,0,0-3.541,1,6.813,6.813,0,0,0-2.355,2.693,8.615,8.615,0,0,0-.848,3.9,8.916,8.916,0,0,0,.848,3.923,6.706,6.706,0,0,0,2.355,2.757,6.256,6.256,0,0,0,3.541,1,6.087,6.087,0,0,0,3.478-1,6.927,6.927,0,0,0,2.354-2.757,8.733,8.733,0,0,0,.87-3.923,8.472,8.472,0,0,0-.87-3.881,7.008,7.008,0,0,0-2.354-2.714A6.094,6.094,0,0,0,105.1,99.637Z" transform="translate(0 -0.627)"/><path class="b" d="M160.8,96.523a8.4,8.4,0,0,1,2.779-.466,9.569,9.569,0,0,1,5.281,1.484,10.61,10.61,0,0,1,3.668,4.051,12.56,12.56,0,0,1,1.357,5.959,12.813,12.813,0,0,1-1.357,6,10.587,10.587,0,0,1-3.647,4.093,9.306,9.306,0,0,1-5.174,1.484,9.105,9.105,0,0,1-3.054-.509,9.425,9.425,0,0,1-2.545-1.337,8.88,8.88,0,0,1-1.8-1.76,4.525,4.525,0,0,1-.87-1.74l1.145-.551v11.834a2.107,2.107,0,0,1-.615,1.549,2.054,2.054,0,0,1-1.506.614,2.031,2.031,0,0,1-1.527-.614,2.14,2.14,0,0,1-.594-1.549l.609-22.054c1.742-4.713,7.592-6.445,7.592-6.445m2.572,3.39a6.275,6.275,0,0,0-3.542,1,6.82,6.82,0,0,0-2.354,2.694,8.609,8.609,0,0,0-.849,3.9,8.919,8.919,0,0,0,.849,3.923,6.723,6.723,0,0,0,2.354,2.757,6.268,6.268,0,0,0,3.542,1,6.094,6.094,0,0,0,3.478-1,6.94,6.94,0,0,0,2.354-2.757,8.736,8.736,0,0,0,.87-3.923,8.47,8.47,0,0,0-.87-3.881,7.011,7.011,0,0,0-2.354-2.715A6.1,6.1,0,0,0,163.112,99.959Z" transform="translate(-2.865 -0.643)"/><path class="a" d="M123.166,92.778a2.842,2.842,0,0,1-1.781-.446,1.829,1.829,0,0,1-.551-1.506v-.678a1.7,1.7,0,0,1,.594-1.485,3.068,3.068,0,0,1,1.781-.425,2.925,2.925,0,0,1,1.823.446,1.774,1.774,0,0,1,.552,1.464v.678a1.784,1.784,0,0,1-.573,1.527A3.136,3.136,0,0,1,123.166,92.778Zm2.164,23.116a2.134,2.134,0,0,1-.594,1.548,2.176,2.176,0,0,1-3.032,0,2.094,2.094,0,0,1-.615-1.548V97.74a2.1,2.1,0,0,1,.615-1.548,2.176,2.176,0,0,1,3.032,0,2.136,2.136,0,0,1,.594,1.548Z" transform="translate(-1.309 -0.082)"/><path class="a" d="M133.618,117.975a2.044,2.044,0,0,1-1.506-.615,2.094,2.094,0,0,1-.615-1.548V88.752a2.1,2.1,0,0,1,.615-1.549,2.176,2.176,0,0,1,3.032,0,2.144,2.144,0,0,1,.594,1.549v27.061a2.138,2.138,0,0,1-.594,1.548A2.028,2.028,0,0,1,133.618,117.975Zm13.827-22.394a1.811,1.811,0,0,1,1.4.678,1.893,1.893,0,0,1-.212,2.927l-13.276,11.876-.169-4.878,10.688-9.925A2.159,2.159,0,0,1,147.444,95.581Zm.51,22.353a1.967,1.967,0,0,1-1.527-.722l-8.483-8.949,3.224-2.97,8.271,8.95a2.3,2.3,0,0,1,.678,1.611,1.813,1.813,0,0,1-.741,1.506A2.361,2.361,0,0,1,147.954,117.933Z" transform="translate(-1.836)"/><path class="b" d="M189.192,118.67a12.309,12.309,0,0,1-6.087-1.453,10.185,10.185,0,0,1-4.03-4,11.754,11.754,0,0,1-1.421-5.829,12.556,12.556,0,0,1,1.506-6.335,10.676,10.676,0,0,1,3.945-4.042,10.14,10.14,0,0,1,5.153-1.409,9.753,9.753,0,0,1,3.923.82A10.621,10.621,0,0,1,195.51,98.7a10.977,10.977,0,0,1,2.291,3.41,11.156,11.156,0,0,1,.891,4.273,1.884,1.884,0,0,1-.678,1.389,2.209,2.209,0,0,1-1.485.547H180.071l-1.017-3.577H195l-.806.758v-1.053a4.7,4.7,0,0,0-1.018-2.589,6.092,6.092,0,0,0-2.185-1.726,6.342,6.342,0,0,0-2.736-.61,7.675,7.675,0,0,0-2.46.4,5.32,5.32,0,0,0-2.078,1.284,6.454,6.454,0,0,0-1.442,2.336,10.2,10.2,0,0,0-.551,3.6,8.064,8.064,0,0,0,.975,4.041,6.95,6.95,0,0,0,2.629,2.674,7.3,7.3,0,0,0,3.69.947,8.722,8.722,0,0,0,2.545-.316,6.309,6.309,0,0,0,1.7-.779c.452-.308.849-.6,1.187-.884a2.636,2.636,0,0,1,1.273-.378,1.7,1.7,0,0,1,1.273.526,1.727,1.727,0,0,1,.509,1.242,2.165,2.165,0,0,1-.933,1.683,10.258,10.258,0,0,1-3.16,1.937A10.838,10.838,0,0,1,189.192,118.67Z" transform="translate(-4.116 -0.445)"/><path class="b" d="M206.278,118.245a2.034,2.034,0,0,1-1.527-.61,2.109,2.109,0,0,1-.594-1.536V98.253a2.112,2.112,0,0,1,.594-1.536,2.189,2.189,0,0,1,3.032,0,2.076,2.076,0,0,1,.615,1.536v4.715l-.424-1.81a7.456,7.456,0,0,1,1.039-2.188A7.979,7.979,0,0,1,210.69,97.2a7.679,7.679,0,0,1,4.707-1.6,3.149,3.149,0,0,1,1.909.589,1.767,1.767,0,0,1,.806,1.473,2.113,2.113,0,0,1-.594,1.662,1.939,1.939,0,0,1-1.315.526,2.9,2.9,0,0,1-1.23-.274,3.327,3.327,0,0,0-1.4-.274,4.089,4.089,0,0,0-1.824.463,5.336,5.336,0,0,0-1.7,1.368,6.955,6.955,0,0,0-1.209,2.125A7.945,7.945,0,0,0,208.4,106v10.1a2.093,2.093,0,0,1-2.121,2.146Z" transform="translate(-5.425 -0.445)"/><path class="b" d="M233.513,96.05a1.951,1.951,0,1,1,0,3.9H222.528a1.919,1.919,0,0,1-1.378-.55,2,2,0,0,1,0-2.8,1.919,1.919,0,0,1,1.378-.55Zm-.848-9.417a6.848,6.848,0,0,1,1.654.212,3.469,3.469,0,0,1,1.421.7,1.666,1.666,0,0,1,.572,1.337,1.91,1.91,0,0,1-.509,1.378,1.594,1.594,0,0,1-1.188.53,4.745,4.745,0,0,1-1.145-.191,5.615,5.615,0,0,0-1.442-.191,2.545,2.545,0,0,0-1.569.446,2.479,2.479,0,0,0-.849,1.1,3.575,3.575,0,0,0-.254,1.293v22.566a2.1,2.1,0,0,1-.615,1.548,2.046,2.046,0,0,1-1.506.615,2.025,2.025,0,0,1-1.527-.615,2.131,2.131,0,0,1-.594-1.548V93.292a6.376,6.376,0,0,1,1.93-4.793A7.773,7.773,0,0,1,232.665,86.633Z" transform="translate(-6.236 -0.002)"/><path class="b" d="M249.693,118.67a12.308,12.308,0,0,1-6.086-1.453,10.179,10.179,0,0,1-4.03-4,11.754,11.754,0,0,1-1.421-5.829,12.556,12.556,0,0,1,1.506-6.335,10.676,10.676,0,0,1,3.945-4.042A10.14,10.14,0,0,1,248.76,95.6a9.753,9.753,0,0,1,3.923.82,10.636,10.636,0,0,1,3.33,2.274,11.008,11.008,0,0,1,2.29,3.41,11.156,11.156,0,0,1,.891,4.273,1.882,1.882,0,0,1-.679,1.389,2.2,2.2,0,0,1-1.484.547H240.574l-1.018-3.577H255.5l-.805.758v-1.053a4.715,4.715,0,0,0-1.018-2.589,6.092,6.092,0,0,0-2.185-1.726,6.342,6.342,0,0,0-2.736-.61,7.667,7.667,0,0,0-2.46.4,5.32,5.32,0,0,0-2.078,1.284,6.454,6.454,0,0,0-1.442,2.336,10.2,10.2,0,0,0-.551,3.6,8.064,8.064,0,0,0,.975,4.041,6.95,6.95,0,0,0,2.629,2.674,7.3,7.3,0,0,0,3.69.947,8.722,8.722,0,0,0,2.545-.316,6.308,6.308,0,0,0,1.7-.779q.677-.461,1.187-.884a2.637,2.637,0,0,1,1.273-.378,1.7,1.7,0,0,1,1.272.526,1.728,1.728,0,0,1,.51,1.242,2.165,2.165,0,0,1-.934,1.683,10.258,10.258,0,0,1-3.16,1.937A10.839,10.839,0,0,1,249.693,118.67Z" transform="translate(-7.104 -0.445)"/><path class="b" d="M274.3,95.6a15.361,15.361,0,0,1,4.05.483,7.216,7.216,0,0,1,2.779,1.348,2.563,2.563,0,0,1,1.018,2,2.2,2.2,0,0,1-.446,1.326,1.457,1.457,0,0,1-1.251.61,2.235,2.235,0,0,1-1.039-.21,3.847,3.847,0,0,1-.742-.5,5.557,5.557,0,0,0-.848-.59,4.893,4.893,0,0,0-1.378-.421,9.1,9.1,0,0,0-1.633-.169,7.231,7.231,0,0,0-3.88,1.01,7.006,7.006,0,0,0-2.546,2.736,8.861,8.861,0,0,0,0,7.829,7.111,7.111,0,0,0,2.5,2.737,6.769,6.769,0,0,0,3.711,1.01,9.642,9.642,0,0,0,2.1-.19,5.081,5.081,0,0,0,2.481-1.263,1.728,1.728,0,0,1,1.23-.4,1.771,1.771,0,0,1,1.421.569,2.092,2.092,0,0,1,.487,1.409,2.355,2.355,0,0,1-1.124,1.79,9.1,9.1,0,0,1-2.99,1.41,14.618,14.618,0,0,1-4.115.547,10.665,10.665,0,0,1-5.746-1.516,10.261,10.261,0,0,1-3.775-4.125,12.747,12.747,0,0,1-1.337-5.894,12.234,12.234,0,0,1,1.4-5.914,10.6,10.6,0,0,1,3.9-4.1A10.909,10.909,0,0,1,274.3,95.6Z" transform="translate(-8.342 -0.445)"/><path class="b" d="M286.775,96.118h9.968a1.955,1.955,0,0,1,1.993,1.993,1.809,1.809,0,0,1-.572,1.357,1.97,1.97,0,0,1-1.421.551h-9.968a1.929,1.929,0,0,1-1.421-.572,1.971,1.971,0,0,1,0-2.778A1.968,1.968,0,0,1,286.775,96.118ZM291.23,90.6a2.037,2.037,0,0,1,1.527.615,2.143,2.143,0,0,1,.593,1.549v19.68a2.561,2.561,0,0,0,.255,1.23,1.327,1.327,0,0,0,.7.636,2.543,2.543,0,0,0,.912.169,1.929,1.929,0,0,0,.828-.169,2.024,2.024,0,0,1,.869-.169,1.249,1.249,0,0,1,.934.466,1.825,1.825,0,0,1,.424,1.273,1.883,1.883,0,0,1-1.1,1.654,4.679,4.679,0,0,1-2.376.636,13.35,13.35,0,0,1-1.7-.126,5.246,5.246,0,0,1-1.888-.637,3.853,3.853,0,0,1-1.506-1.633,6.857,6.857,0,0,1-.593-3.16V92.768a2.1,2.1,0,0,1,.615-1.549A2.05,2.05,0,0,1,291.23,90.6Z" transform="translate(-9.407 -0.198)"/></g></svg>