<svg xmlns="http://www.w3.org/2000/svg" width="161.754" height="28.68" viewBox="0 0 161.754 28.68"><defs><style>.a{fill:#040217;opacity:0.3;}</style></defs><path class="a" d="M128.069,267.5h-5.229v9.838c-.755-7.359-3.477-9.838-7.466-9.838-2.992,0-5.229,1.482-6.6,5.364-1-3.854-3.854-5.364-8.6-5.364H94.941v9.838h-.135c-.755-7.359-3.477-9.838-7.466-9.838-3.854,0-6.6,2.48-7.466,9.838h-.135V267.5H73l-2.48,14.69h-.135L68.256,267.5H61.275v5.607c-.62-3.369-2.615-5.607-6.361-5.607-4.124,0-6.361,2.857-6.739,6.469-1.132-4.852-3.612-6.469-6.846-6.469-3.612,0-6.227,2.129-7.224,8.221-.243-4.367-1.482-8.221-6.739-8.221-4.124,0-7.466,3.747-7.466,14.34,0,9.084,1.86,14.34,7.466,14.34,4.987,0,6.361-3.989,6.739-7.979,1,5.984,3.612,7.979,7.224,7.979,3.477,0,5.984-1.995,7.089-7.6.243,3.612,1.617,7.6,6.739,7.6a6.521,6.521,0,0,0,6.119-3.369v3.234H65.13V275.1h.135l3.477,20.944H71.6L75.076,275.1h.135v20.944H79.82v-9.838h.135c.755,7.359,3.477,9.838,7.466,9.838,3.854,0,6.6-2.48,7.466-9.838h.135v9.838h5.229V284.589h2.129a6.171,6.171,0,0,0,5.472-2.615c0,10.728,2.992,14.07,7.6,14.07,3.854,0,6.6-2.48,7.466-9.838v9.838h11.833v-4.367h-6.6V267.5ZM29.9,285.209c-.135,3.989-.485,6.469-2.237,6.469-1.617,0-2.129-1-2.129-10.081,0-9.218,1.132-9.838,2.237-9.838,1.24,0,1.86,1.752,1.86,6.227L34,277.851a36.87,36.87,0,0,0-.135,3.989A32.625,32.625,0,0,0,34,285.587Zm13.45-.512c0,5.984-.755,7.089-1.86,7.089-1.24,0-1.86-1.24-1.86-7.089v-5.849c0-5.984.755-7.089,1.86-7.089,1.24,0,1.86,1.24,1.86,7.089Zm12.076,7.116c-2.237,0-2.237-2.749-2.237-4.232H48.714a40.419,40.419,0,0,0,.377-5.849,24.911,24.911,0,0,0-.135-3.235c2.237,5.121,8.733,6.6,8.733,10.728A2.382,2.382,0,0,1,55.426,291.813Zm-2.48-17.574c0-1.483.755-2.48,1.995-2.48,2.129,0,2.129,2.615,2.129,4.124h4.367v8.356C58.93,279.71,52.946,277.958,52.946,274.239ZM89.335,284.7c0,5.984-.755,7.224-1.86,7.224-1.24,0-1.86-1.24-1.86-7.224v-5.849c0-5.984.755-7.224,1.86-7.224,1.24,0,1.86,1.24,1.86,7.224Zm11.321-4.232h-.485v-8.6h.377c1.752,0,3.369.135,3.369,4.232C103.917,279.6,102.785,280.465,100.656,280.465Zm16.577,4.232c0,5.984-.755,7.224-1.86,7.224-1.24,0-1.86-1.24-1.86-7.224v-5.849c0-5.984.755-7.224,1.86-7.224,1.24,0,1.86,1.24,1.86,7.224V284.7Zm18.329-17.2h5.229v28.545h-5.229Zm20.189,0H141.546v4.367h4.474v24.178h5.229V271.867h4.474V267.5m21.564,0v15.068h-.135L172.409,267.5h-5.121v24.933l-3.127-24.906h-7.6l-3.989,28.545h4.367l.755-6.361h4.286l.755,6.361h9.084V278.74h.135l5.607,17.332h4.1V267.5Zm-18.922,18.06,1.617-13.693h.135L161.6,285.56Z" transform="translate(-19.9 -267.5)"/></svg>