<svg xmlns="http://www.w3.org/2000/svg" width="18" height="18" viewBox="0 0 18 18"><defs><style>.f{fill:#d32030}</style></defs><path d="M9.019 0v18a9 9 0 000-18z" fill="#252f6b"/><path d="M9.008 0a9 9 0 100 18c4.975 0 4.975-18 0-18z" fill="#273375"/><path d="M6.197 13.79l.606-.755-.936.169-.325-.906-.353.906-.955-.169.607.738-.63.738.961-.151.324.888.353-.887.98.175zm7.158.67l.343-.428-.53.1-.184-.513-.2.513-.541-.1.344.418-.357.418.544-.086.184.5.2-.5.555.1zm0-9.457l.343-.428-.53.1-.184-.513-.2.513-.541-.1.344.418-.357.418.544-.086.184.5.2-.5.555.1zm2.222 2.446l.343-.428-.53.1-.184-.513-.2.513-.542-.1.344.419-.357.418.544-.086.184.5.2-.5.555.1zm-4.143 1.087l.343-.428-.53.1-.184-.513-.2.513-.541-.1.344.418-.357.418.544-.086.184.5.2-.5.555.1z" fill="#f3f4f5"/><path d="M1.886 3.478q-.211.272-.4.56h.963zm4.638 5.503h.865l-.865-.865zM3.657 1.749c-.206.152-.4.313-.6.482l.6.6zm-.861 7.232h.865v-.865zM8.981 0a8.976 8.976 0 00-2.457.343v2.485L8.981.371V0zm0 8.153V6.906H7.734zm-8.61.832L2.446 6.91H.244A8.99 8.99 0 000 8.985zm7.362-4.947h1.248V2.791z" fill="#29337a"/><path d="M8.981 8.414v-.262L7.734 6.905h1.247v-.447H7.026zM2.447 4.038h-.963a7.13 7.13 0 00-.275.446H3.1L1.977 3.362l-.091.116zm1.209 4.077v.865h.446V7.461L2.583 8.98h.207zM6.524.343q-.226.064-.446.139v3l2.9-2.9V.371L6.521 2.828zM3.641 6.911l.016-.016.431-.431H.362q-.064.221-.118.446h2.2L.371 8.981h1.195l2.075-2.07zM.371 8.985L2.446 6.91zm8.61-4.501v-.446H7.733l1.248-1.247V1.596L6.093 4.484zm.001-1.693L7.734 4.038zm-5.326.037l-.6-.6q-.317.279-.608.587l1.2 1.2.013.013.434.434v-3.02c-.152.1-.3.2-.446.307v1.078zm2.868 5.288l.865.865h1.14L6.078 6.53v2.451h.446z" fill="#fff"/><path class="f" d="M3.656 4.022l.013.013zm3.815 2.884l-.442-.446h1.955V4.484H6.092l-.015.015v-.015h.015L8.98 1.596V.577l-2.9 2.9v-3a8.949 8.949 0 00-1.975.96v3.027l.015.015h-.015v-.015l-.434-.433h-.015v-.015l-1.2-1.2q-.248.263-.475.544l1.123 1.122H1.208A8.914 8.914 0 00.361 6.46h3.725l.015-.016v.016h-.015l-.431.431v.016h-.016L1.564 8.982h1.018l1.52-1.522v1.519h1.975v-2.45l2.452 2.452h.337c.038-.04.078-.08.115-.121v-.445zM6.077 3.48l2.9-2.9z"/><path class="f" d="M3.656 6.906v-.018l-.016.016zm.446-.463l-.016.016h.016zm1.975-1.944l.015-.015h-.015zm-2.421-.458h.015l-.013-.013zm.46.443l-.015-.015v.015z"/></svg>