<svg xmlns="http://www.w3.org/2000/svg" width="18" height="18" viewBox="0 0 18 18"><defs><style>.c{fill:#d80027}</style></defs><circle cx="8.864" cy="8.864" transform="translate(.136 .136)" fill="#f0f0f0" r="8.864"/><path d="M1.86 3.521A8.967 8.967 0 00.31 6.653h4.681zm15.83 3.132a8.969 8.969 0 00-1.55-3.132l-3.132 3.132zM.31 11.348a8.968 8.968 0 001.55 3.132l3.132-3.132zM14.48 1.86A8.968 8.968 0 0011.348.31v4.681zM3.521 16.14a8.969 8.969 0 003.132 1.55v-4.687zM6.653.31a8.968 8.968 0 00-3.132 1.55l3.132 3.132zm4.695 17.38a8.97 8.97 0 003.132-1.55l-3.132-3.137zm1.66-6.342l3.132 3.132a8.968 8.968 0 001.55-3.132z" fill="#0052b4"/><path class="c" d="M17.924 7.826h-7.75V.076a9.083 9.083 0 00-2.348 0v7.75H.076a9.083 9.083 0 000 2.348h7.75v7.75a9.083 9.083 0 002.348 0v-7.75h7.75a9.083 9.083 0 000-2.348z"/><path class="c" d="M11.348 11.348l4.017 4.017q.277-.277.529-.578l-3.438-3.438h-1.107zm-4.692 0l-4.02 4.016q.277.277.578.529l3.442-3.438zm-.004-4.692l-4.016-4.02q-.277.277-.529.578l3.438 3.442h1.107zm4.696-.004l4.016-4.016q-.277-.277-.578-.529l-3.438 3.438z"/></svg>