<svg xmlns="http://www.w3.org/2000/svg" width="18" height="18" viewBox="0 0 18 18"><g transform="translate(.084 .084)"><circle cx="9" cy="9" r="9" transform="translate(-.084 -.084)" fill="#f0f0f0"/><path d="M8.528 8.916h9.3a8.926 8.926 0 00-.307-2.326h-9zm0-4.652h8a8.963 8.963 0 00-2.057-2.326H8.528zm.388 13.568a8.878 8.878 0 005.55-1.938h-11.1a8.878 8.878 0 005.55 1.938zm-7.608-4.264h15.215a8.863 8.863 0 001-2.326H.307a8.863 8.863 0 001.001 2.326z" fill="#d80027"/><path d="M4.13 1.392h.813l-.756.549.289.888-.756-.548-.756.549.249-.768A8.965 8.965 0 001.484 3.99h.26l-.481.35q-.112.188-.216.381l.23.707-.428-.312q-.16.339-.292.692l.253.779h.934l-.756.549.289.888-.755-.549-.453.325A9 9 0 000 8.916h8.916V0A8.874 8.874 0 004.13 1.392zm.345 6.632l-.755-.549-.756.549.289-.888-.753-.549h.934L3.72 5.7l.289.888h.934l-.756.549zm-.288-3.485l.289.888-.756-.549-.756.549.289-.888L2.5 3.99h.934l.286-.89.289.888h.934zm3.487 3.485l-.756-.549-.756.549.289-.888-.751-.549h.934l.284-.887.289.888h.934l-.756.549zm-.289-3.485l.289.888-.756-.549-.756.549.289-.888L5.7 3.99h.934l.284-.89.289.888h.934zm0-2.6l.289.888-.756-.549-.756.549.289-.888-.751-.547h.934L6.918.5l.289.888h.934z" fill="#0052b4"/></g></svg>