<svg xmlns="http://www.w3.org/2000/svg" width="17.997" height="18" viewBox="0 0 17.997 18"><path d="M15.515 2.792l-.931.621-1.552-.31-.931-.31-1.241.31-.931-.31.621-1.241h1.241l1.216-.608a8.888 8.888 0 012.508 1.848zM8.377 1.547l-.31.931-.931.31-.931 1.559-1.552.931-2.172.31v.931l.621.621v1.241l-.931-.621-.931-.621L.7 5.516A8.993 8.993 0 015.634.647l.881.59zm.621 8.701l-.31 1.552-1.241 1.241v.931l-1.241.931v1.552l-.931-.31-.621-1.552v-3.1l-1.552-.31-.621-1.241v-.931l.621-.621.931-.931.621 1.241h2.172l.931 1.552zm7.85-5.637a8.99 8.99 0 01-.5 9.579l-.838-.838v-1.241l-.621-1.241-.621-1.241V8.388l-.931-.621-1.241.31-2.172-.931-.31-2.172.931-.931h1.862l.621.931 1.862.31 1.862-.621z" fill="#03aa6f"/><path d="M10.86 3.104l1.241-.31.931.31 1.552.31.931-.621a8.866 8.866 0 011.334 1.81l-.093.053-1.862.621-1.862-.31-.621-.934h-1.862l-.931.931.31 2.173 2.172.931 1.241-.31.931.621v1.244l.621 1.242.621 1.242v1.242l.838.838A9 9 0 01.7 5.516l.54 1.624.931.621.931.621-.621.621v.93l.619 1.243 1.552.31v3.1l.621 1.552.931.31v-1.547l1.241-.931v-.931l1.241-1.242L9 10.244H7.757l-.931-1.552H4.653l-.62-1.242-.933.932V7.14l-.621-.621v-.931l2.172-.31 1.552-.931.933-1.554.931-.31.31-.931-1.862-.31-.881-.591a9 9 0 017.373.292l-1.216.608h-1.242l-.62 1.242z" fill="#86daf1"/></svg>