<svg xmlns="http://www.w3.org/2000/svg" width="18.003" height="18" viewBox="0 0 18.003 18"><g transform="translate(.504 .503)"><circle cx="9" cy="9" r="9" transform="translate(-.502 -.503)" fill="#f0f0f0"/><path d="M17.499 8.497a9 9 0 00-5.092-8.11v16.218a9 9 0 005.092-8.108zm-18.003 0a9 9 0 005.088 8.108V.387a9 9 0 00-5.088 8.11zm10.566 1.174l1.565-.783-.783-.391v-.783l-1.565.783.783-1.565h-.783l-.783-1.174-.783 1.174H6.93l.783 1.565-1.565-.783v.783l-.783.391 1.565.783-.391.783h1.57v1.174h.783v-1.174h1.565z" fill="#d80027"/></g></svg>