<svg xmlns="http://www.w3.org/2000/svg" width="40" height="40" viewBox="0 0 40 40"><path fill="none" d="M0 0h40v40H0z"/><path d="M36.933 28.422v5.1a3.4 3.4 0 01-3.712 3.4 33.742 33.742 0 01-14.7-5.217 33.172 33.172 0 01-10.217-10.2A33.589 33.589 0 013.081 6.766a3.4 3.4 0 013.388-3.7h5.108a3.4 3.4 0 013.406 2.923 21.786 21.786 0 001.192 4.777 3.394 3.394 0 01-.766 3.586l-2.163 2.158a27.218 27.218 0 0010.217 10.2l2.163-2.158a3.411 3.411 0 013.593-.765 21.9 21.9 0 004.785 1.19 3.4 3.4 0 012.929 3.45z" stroke="#fff" stroke-linecap="round" stroke-linejoin="round" stroke-width="3" fill="none"/></svg>