<svg xmlns="http://www.w3.org/2000/svg" width="60" height="60" viewBox="0 0 60 60"><defs><style>.a{fill:#d8a286;fill-rule:evenodd}</style></defs><path class="a" d="M32.933 59.281c.292-.142 1.4-.194 1.774-.384-1.812.131-1.813.061-1.774.384zM.684 28.16a7.752 7.752 0 00-.017 2.656c-.083-.779.152-1.94.017-2.656zm28.87 31.088a.587.587 0 00.326.066l.462-.028-.355-.068c-.228-.025-.427-.026-.433.03zm1.807-.006l-.167.068.361.045c0-.029.167-.054.1-.077a2.25 2.25 0 00-.294-.036zM34.271.521l3.172.7 1.208.364a19.757 19.757 0 012.544.923l-.057-.052 1.221.549c.381.122.833.432 1.208.573.66.377 1.345.707 1.919 1.095a3.625 3.625 0 00.786.459l1.534 1.048c.2.091.528.392.7.468a4.267 4.267 0 00.389.225 4.4 4.4 0 00-.968-.847l-1.816-1.241a5.629 5.629 0 00-1.581-.912l-1.192-.635a17.308 17.308 0 00-2.063-.9l-.77-.328a4.835 4.835 0 00-1.3-.448l-.485-.156a1.747 1.747 0 00-.417-.126l-.385-.105a20.022 20.022 0 00-3.634-.889c-.325-.047-.512-.035-.523.032s.189.146.51.203zm11.408 4.191l.028.018a1.975 1.975 0 01.4.261l-.4-.261a.3.3 0 00-.032-.013zM55.715 47.35l-.013.02c-.015.024-.026.052-.042.074z"/><path d="M59.801 34.861v-.052a9.834 9.834 0 00.183-2.37 1.521 1.521 0 00-.069.191 2.475 2.475 0 00-.011-.483l-.023-.107.013-.142.024-1.959-.074-.387a32.344 32.344 0 00-1.012-5.553l-.155-.4a47.58 47.58 0 00-1.615-4.513l-.225-.321-.174-.419a1.822 1.822 0 00-.362-.753 12.324 12.324 0 00-1.6-2.665 44.894 44.894 0 00-2.984-3.549c-.528-.549-.833-1.117-1.372-1.616-.525-.461-.614-.279-1.364-.888-.807-.6-1.588-1.28-2.461-1.9l-.051.067c-.011-.042-.048-.105.051-.067l-.34-.235-.05.069-1.054-.716-.391-.155-.126-.058-.077-.068c-.3-.235-.734-.376-.892-.576.2 0 .855.378.915.284a5 5 0 00-2.478-.992c-.238-.134-.575-.3-.55-.355.195-.157-.336-.334-1.026-.562-.561-.178-.727-.131-.708.006l-.378-.156a1.467 1.467 0 00-.413-.161l.054.045a3.826 3.826 0 00-.408-.173c-.483-.168-1.251-.357-.994-.48.206-.084-.11-.223-.674-.393a3.829 3.829 0 00-1.427-.283c.564.174 1.221.494 1.009.61-.242-.043-.522-.114-.807-.179a2.794 2.794 0 00-.55-.449c-.061-.077-.127-.144-.4-.212a.856.856 0 00-.469-.549c.268.018.557.045.844.073a9.172 9.172 0 012.489.771 5.673 5.673 0 001.643.5l2.3.956a53.571 53.571 0 015.4 2.866l-.035-.014c.971.591 1.815 1.46 2.757 2.153a7.817 7.817 0 011.221 1.079l.442.412c.3.259.606.6.9.912.9 1.091 1.764 2.039 2.52 3.074l-.069-.164.038.058.031.105a6.181 6.181 0 00.75 1l.128.175.1.183a14.587 14.587 0 001.075 1.888 3.71 3.71 0 01.2.34c.2.451.423.9.618 1.243.042.1.049.1.068.09.034.026.033-.013.012-.123a10.389 10.389 0 00-1.531-3.356l-.685-1.058a18.453 18.453 0 00-4.9-5.585 3.028 3.028 0 00-.666-.546 3.109 3.109 0 00-.684-.472l-.641-.511-1.037-.873a20.237 20.237 0 00-5.037-3.028c-.808-.373-1.7-.638-2.554-1.079-.63-.347-1.464-.677-1.191-.267.04.09-.5-.067-.844-.171-.647-.181-1.385-.44-2.083-.582a.986.986 0 01-.276-.065 1.269 1.269 0 00-.484-.1.965.965 0 01-.314-.064 18.838 18.838 0 00-1.837-.489 4.727 4.727 0 00-.8-.165c-.038-.074-.152-.136-.481-.173a3.3 3.3 0 00-.447-.066l-.109.018h-.037l.146-.021c-.075-.065-.224-.1-.6-.106l-.038-.012V.05c-.037-.047-.186-.061-.45-.065a.857.857 0 01-.3.016c-.692.051-1.385.149-2.074.267a6.251 6.251 0 00-1.19.034 31.832 31.832 0 00-4.938.7v.028l-.007-.027a12.969 12.969 0 00-2.5.581 4.4 4.4 0 00-1.25.322 5.25 5.25 0 00-.965.282c-.439.158-.262.209-.52.334a1.4 1.4 0 00-.425.276c-.115.089-.668.332-.527.383.063.048.183.056.462-.011.117.082.445.04.923-.088l.09-.054v.006a.32.32 0 00-.093.048l1 .168c.043.111.18.179.614.091-.235.143-.465.29-.681.445a6.525 6.525 0 00-1.843 1.113 18.331 18.331 0 00-2.557 1.919l.055-.044c-.4.422-1.068.809-1.351 1.2v-.005a8.045 8.045 0 00-.673.652l-.06.092-.111.091-1.178 1.129a6.632 6.632 0 00-1.444 1.421c-.539.718-1.582 1.841-2.172 2.747a15.2 15.2 0 00-1.836 2.9l.048-.043c-.024.057-.03.053-.03.053L4.587 17a27.2 27.2 0 00-1.629 3.227 10.654 10.654 0 00-.815 2.191 27.48 27.48 0 00-.179.576 19.12 19.12 0 00-1.116 4.683 7 7 0 00-.052 2.3.391.391 0 01-.016.251 2.385 2.385 0 00-.093.759 8.351 8.351 0 00.057 2.366l.023.028c-.005 0-.016 0-.023-.028a3.471 3.471 0 00.07 1.269h.007a9.414 9.414 0 00.133 1.234.573.573 0 01.035.252 2.113 2.113 0 00.079.8 3.484 3.484 0 00.426 1.4 3.6 3.6 0 00.343 1.021l.394 1.267a16.761 16.761 0 00.821 2.057l.312.761a4.716 4.716 0 00.6 1.215l.233.445a1.755 1.755 0 00.206.376l.2.339a19.623 19.623 0 001.94 3.138c.2.258.336.379.391.34s-.037-.236-.223-.5L4.966 46.08l-.6-1.091a19.334 19.334 0 01-1.146-2.406v.077l-.474-1.227c-.184-.35-.283-.878-.448-1.236a35.383 35.383 0 00-.17-.58c.018.033.034.069.055.1h-.007l.127.223-.05-.237v.018-.03.012a2.065 2.065 0 00-.027-.338 2.631 2.631 0 00-.135-.78l-.017.005h-.007l.024-.007a1.185 1.185 0 00-.019-.259 24.121 24.121 0 00.873 2.667c.3.825.744 1.632 1.029 2.536.2.682.547 1.494.649 1.015.036-.092.308.4.473.707.327.577.662 1.272 1.054 1.857a.942.942 0 01.149.237 1.216 1.216 0 00.27.407.933.933 0 01.176.263 12.978 12.978 0 003.528 4.462 5.873 5.873 0 01.617.63 4.962 4.962 0 001.118 1.135 31.345 31.345 0 003.994 2.934l.008-.012.007-.012-.015.024a12.907 12.907 0 002.188 1.324 4.35 4.35 0 001.116.639 5.133 5.133 0 00.886.47c.424.193.336.034.608.124a1.412 1.412 0 00.5.1c.146.017.711.229.648.095-.01-.077-.089-.167-.334-.313-.024-.139-.285-.338-.716-.578l-.1-.024v-.007a.342.342 0 00.1.03l-.589-.815c.059-.129-.013-.3-.6-.632-.056-.115-.177-.252-.228-.38.429.2.9.381 1.316.523.445.15.707.136.74.055.108-.092-.391-.271-.69-.42-.358-.175-.632-.37-.653-.474-.04-.14.475.074.737.131a30.033 30.033 0 003.069.927 5.393 5.393 0 001.5.329l-.029-.02.033.006v.014a10.654 10.654 0 002.017.348.908.908 0 01-.154-.064l.033.007.121.058a7.766 7.766 0 001.94.163l-.064-.022.065.008v.014a13.337 13.337 0 003.231.108c.9-.134 2.445-.2 3.514-.435a15.748 15.748 0 003.391-.779h-.065c.057-.024.059-.017.059-.017l.006.02a27.485 27.485 0 006.173-2.419 20.677 20.677 0 003.693-2.182c.046.049.167.024.4-.146l.116-.138.005.005-.122.133a1.08 1.08 0 00.4-.082 6.285 6.285 0 01-.9.658l.026-.02c-.316.173-.751.5-1.057.628-.7.23-1.417.892-2.183 1.238l-.638.307c-.431.139-.966.511-1.433.641l-.6.239a10.908 10.908 0 01-2.365.885l-.119.049-.093.023c-2.425.58-4.192 1.209-6.062 1.638a31.106 31.106 0 0010.188-2.928l.7-.347a6.305 6.305 0 001.815-.942l.97-.6c.324-.159.712-.451 1.025-.633a2.3 2.3 0 01.294-.2 5.027 5.027 0 001.014-.718l.317-.237c.138-.087.319-.179.423-.259l.449-.433a1.325 1.325 0 00.428-.322l.036-.019-.006-.005c.06.007.176-.087.366-.266a.806.806 0 01.2-.217 28.715 28.715 0 002.63-3.669 11.747 11.747 0 00.8-1.387 3.882 3.882 0 00.55-.924c.1-.133.2-.259.3-.379a23.684 23.684 0 001.523-4.691 6.288 6.288 0 00.5-2.065 17.649 17.649 0 00.425-3.132zm-5.717-22.014l-.017.012s.008-.006 0-.04zM16.871 2.641c-.008-.019-.053-.032.045-.082.028-.026.1-.038.128-.061-.082.069-.182.12-.172.143zm3.7 56.72c-.008.02.015.06-.091.027-.039 0-.1-.041-.135-.045.108.012.217.041.223.018zm37.39-29.777h-.014v-.064zm-.187 3.958a7.922 7.922 0 00-.008-1.831 6.557 6.557 0 01.005 1.83zm.05-11.95c-.031-.027-.1-.19-.132-.212l-.058-.238zm-.244 3.64h.015c-.008.036-.021.139-.047.078a.441.441 0 00.029-.079zm-.576 5.968h.008l-.008.033zm-.674-2.252a1.3 1.3 0 01.032.283c-.018.252-.063-.027-.1-.153.027-.002.058-.003.065-.13zm-.4 4.441h.022l-.014.063c-.013.03-.011-.063-.011-.063zm-6.127 15.517l.149-.266a11.019 11.019 0 011.01-2.073 10.23 10.23 0 01-1.008 2.069.639.639 0 00-.021.118zm-37.725-.435c-.032-.019-.078-.069-.108-.081h-.005l-.019-.022-.068-.066a.5.5 0 01.065.068l.024.017.057.035c.017.02.038.031.051.045zm-5.159-1.5l-.038-.048c.055.035.078.017.063-.047l-.016-.027c.008.007.014.016.023.023-.274-.514-.508-1.2-.274-1.131a16.178 16.178 0 00.909 1.34l.5.719c.268.641.319.766.183.959-.163-.282-.406-.561-.657-.906a4.283 4.283 0 00-.67-.978c.014.063-.004.076-.026.092zm.815-9.373l.024-.007v.061zm-.388 1.727a.194.194 0 00-.114-.061.831.831 0 01-.148.4c.034-.165.026-.416.148-.4a1.824 1.824 0 00.036-.352c.048.168.013.24.075.41zm-.941 5.086l-.03-.057a2.6 2.6 0 00.306.439l-.022.012zm-.461-2.727l-.118-.2-.054-.153c.04.091.112.236.169.35zm-.918-3.74c-.024.006-.067-.052-.11-.139l-.013-.064c.031.089.087.207.119.2zm-2.67-2.4a.529.529 0 01-.045-.115h.007a.292.292 0 00.035.116zm.766 2.762c-.055.017-.024.195.04.432a1.366 1.366 0 01-.154-.462c.006-.095.065-.019.111.032zm1.406-1.609a1.714 1.714 0 01-.2-.586 4.339 4.339 0 00.197.588zm.214 1.54c-.019-.2-.041-.353.029-.37-.059.015-.051.176-.032.371zm-2.782-9.06v.058h-.014v-.058zm-.177 1.174v.028c0 .01-.005.022-.007.032l-.052.424-.007.123v-.062l.007-.061a2.42 2.42 0 01.052-.424zm-.493 4.59a.082.082 0 00.074-.035l.026.248a1.146 1.146 0 00-.1-.213c-.077-.009-.161-.14-.244-.272a.785.785 0 01.241.273zm3.816 7.854l.154.372a1.385 1.385 0 00.176.4l-.006-.069a3.65 3.65 0 00.165.406c.219.454.628 1.121.356 1.029-.075-.031-.106-.007-.1.06l-.239-.461h-.006c0-.217-.307-.6-.453-.94a3.692 3.692 0 00-.269-.849c.099.112.17.116.22.053zm7.5-32.367l.009-.013zm19.92-6.029l-.006.038c0 .031-.159.007-.162.028-.002-.029.156-.03.161-.065zm-1.948-.261c-.063-.006 0 0-.032-.006h-.157l.065-.008a3.058 3.058 0 01.536-.025c-.103.025-.353.008-.42.041zm.414.285a.442.442 0 01-.095 0h-.029l-.065.014h-.07c.036-.009.1-.006.135-.018v-.007h.029zm20.978 37a.372.372 0 01.088-.155l.016.007c-.039.057-.121.244-.112.153zm.068.2l-.026.045.007-.055c-.01.009-.018.021-.027.031v-.02c0-.007.021-.013.036-.033l-.011.021zm3.018-8.45l-.032.239a.335.335 0 00-.027-.155c.015-.082.034-.049.051-.078zm-.575-14.524l.017.036-.015-.03v-.007l-.039-.081a.75.75 0 01-.021-.1.687.687 0 00.051.188zm-.13-2.832l.014.022-.014-.022-.019-.03zm-.408-.358l-.013.007-.018-.029c.017.03.023.03.023.03zm-8.829-7.654a4.649 4.649 0 00-.562-.279 1.81 1.81 0 01.554.285zm-1.766-.819a.454.454 0 01.135.028l.055.036a.871.871 0 00-.197-.058zm.189-.119c.03-.048-.091-.156-.246-.282.148.132.277.228.239.288zm-3.351-1.825l.148.07-.372-.127zm-2.979-1.767l.464.1.063.02a2.712 2.712 0 00-.533-.1zM31.624.244c-.029.007-.046.016-.1.026V.267zm-5 .162l.07.005-.284.013zM6.514 14.67v.11a.205.205 0 01-.004-.103zm-.041.17l-.005.009c-.035.015-.076.037-.114.054.041-.022.078-.036.115-.056zM.938 32.582c-.013.04-.025.081-.056.047l-.005-.064c.028.074.043.054.056.023zm.692 5.373v.008zm3.074 5.9l-.235-.572c.033.045.065.092.1.135a2.577 2.577 0 00.217.552c-.033-.031-.058-.072-.086-.109zm2 3.768a8.806 8.806 0 01-1.2-2.272c-.03-.095-.07-.191-.11-.287a2.556 2.556 0 01.223.411 4.326 4.326 0 00.459.786 1.613 1.613 0 00.142.131 17.424 17.424 0 001.985 2.448l-.056.067c-.235.175-.856-.574-1.444-1.277zm1.749-5.568c.158-.007.2-.216.127-.6l.136.669c.105.422-.123.103-.263-.062zm.347 5.178c.033.018-.041-.129.051-.033s.019.067.062.155zm1.974.019l.031-.023c.026-.019.118.1.135.092-.027.026-.139-.083-.167-.062zm.869 1.279c.087.048.25.234.321.257.041.048 0 0 .018.027l.11.109-.052-.039a2.992 2.992 0 01-.398-.347zm.428 5.634l-.046-.051.21.188zm1.174-.494c0-.008-.01-.024-.007-.032-.2-.217-.316-.4-.506-.612l-.06-.037s.034.014.007-.008l.054.045c.469.367.533.511.506.612.038.042.059.077.107.123zm2.106-3.464l.235.088c-.045.005.011.073.02.108a2.394 2.394 0 01-.256-.189zm1.528 3.378l.008-.012.021.027c-.029-.012-.03-.009-.03-.009zm3.138.238a1.235 1.235 0 00.267.071.612.612 0 01-.268-.065zm1.534.8c.028.012.029.009.029.009l-.028-.012c-.021-.005-.034 0-.054-.006a1.04 1.04 0 01-.644-.1 1.6 1.6 0 01-.394-.157c-.018-.009-.026-.005-.044-.015l-.192-.087c.076.034.157.068.236.1.133.057.267.111.394.157.222.055.408.047.644.1h.028c.006 0-.007-.011 0-.012-.088-.1-.155-.171-.246-.27l-.038-.025.026.011c-.013-.019-.051-.046-.068-.066a6.5 6.5 0 01-.793-.58l-.007.012-.653-.4.58.344.08.043a2.64 2.64 0 01.793.58c.046.03.075.061.123.09l-.055-.024.013.014c.2.126.4.248.246.27zm.759.127l-.327-.139c.112.04.244.111.389.149zm1.687 2.154v-.01zm1.61-.749c.036-.014-.078-.05-.072-.07a.6.6 0 00.16.1zm2.225.511v-.011l.059.023zm1.461.2a4.255 4.255 0 00-.486-.213l.57.032c.112.069.195.135-.084.188zm2.319-1.805a.811.811 0 00.223.061.167.167 0 00.083.03v.007a.218.218 0 01-.082-.037l-.277-.055c.053.007.053 0 .053 0zm.3.438h.029a.836.836 0 01-.2.059 1.1 1.1 0 00.168-.052zm4.77 2.434l-.015.014a.213.213 0 01-.1.087l.1-.087a.089.089 0 00.01-.049c.006.038.1.057.173.084a1.306 1.306 0 00-.171-.043zm2.5-2.866c-.116.036-.265.1-.281.041-.054.014-.005-.021-.089 0l.011-.013.067-.025.011.042.175-.02.106-.021c.019-.006.043-.015.059-.019v.006zm5.779-2.6c-.389.182-.735.321-.869.251-.191-.057.2-.276.533-.486.142-.092.323-.225.215-.243-.23.048-.545.282-.716.263.289-.222.666-.345.971-.586-.073.018-.12.024-.142.011l-.037.012.024-.016h.013c.066-.021.127-.036.142-.011a.6.6 0 01.19-.114c.4-.15.815-.527 1.236-.7a6.114 6.114 0 001.515-1.166l.024-.015.042-.038-.022.018c.352-.481-.115-.09-.4.123l-.128.1-.075.043c-.235.058-.64.431-.876.48a26.391 26.391 0 002.879-2.472c.059-.058.125-.121.192-.183a.171.171 0 00-.018.035c-.06.113.044.036.121-.063a1.319 1.319 0 00.11-.15l-.016-.011c.163-.162.3-.318.3-.438a1.27 1.27 0 01.225-.5c.23-.109.57-.438.72-.406-.133.213-.191.331-.18.414a10.478 10.478 0 00-.891 1.471 8.09 8.09 0 01-.786 1.312c-.238.263-.455.522-.664.778-.057.04-.115.083-.173.122a33.154 33.154 0 01-3.458 2.171zm1.278-.23l.126-.073a.527.527 0 00.117-.053.588.588 0 01.149-.069.7.7 0 00-.149.069 1.762 1.762 0 01-.246.132z" fill="#deb299" fill-rule="evenodd"/><path class="a" d="M8.183 11.265c-.105.307-.851 1.127-.982 1.526 1.185-1.377 1.235-1.327.982-1.526zM.692 26.95c.1-.348.167-.9.3-1.2.328-.66.359-1.645.651-2.437l.231-.673c.2-.4.314-1.051.552-1.476l.249-.594a10.821 10.821 0 011.035-2.31l.049-.119.049-.082c.758-1.246 1.344-2.343 1.9-3.368l.479-.714c.15-.252.267-.481.223-.512 0-.008-.006-.009-.01-.012.167-.291.337-.579.513-.864a30.259 30.259 0 00-4.7 8.253c-.023-.1-.126.092-.2.33-.184.58-.415 1.169-.559 1.738a7.463 7.463 0 00-.479 1.7L.72 25.728c-.115.343-.178.829-.269 1.182a2.285 2.285 0 01-.06.354 5.025 5.025 0 00-.2 1.235l-.053.395c-.035.16-.1.356-.113.487 0 .5-.009.956-.013 1.453a.434.434 0 00.021.1c.021.034.036.034.057-.064a1.5 1.5 0 00.1-.4H.183c.066-.227.055-.586.1-.879a2.049 2.049 0 01.017-.294 2.738 2.738 0 00.157-.839 2.857 2.857 0 01-.088.29l-.039.126v-.034c.012-.026.024-.061.035-.092.032-.1.061-.2.088-.29.142-.378.1-1.1.253-1.545zm52.693-15.848a7.753 7.753 0 00-1.866-1.891c.615.491 1.266 1.478 1.866 1.891zm3.265 4.37l.624 1.179a5.351 5.351 0 00.306.509c.18.2.11-.052-.023-.317a11.134 11.134 0 00-1.288-2.261l-.2-.309c-.171-.244-.35-.485-.412-.447-.087-.029.072.219.191.407.278.433.543.919.802 1.239zM10.599 9.121a.584.584 0 00-.276.183l-.307.346.3-.2c.173-.144.314-.284.283-.329zM9.321 10.4l.07-.167-.287.225c.02.021-.079.155-.016.125a2.236 2.236 0 00.233-.183zm48.181 34.182c-.068.089-.084-.084-.205.27-.024.074-.026.153-.01.161a2.513 2.513 0 00.222-.306c.063-.134.083-.246-.007-.125zm2.39-19.358c.092.06 0-.333-.031-.553l-.264-1.3c-.109-.237-.171-.221-.164.039l.256 1.294c.072.284.15.53.203.52zM46.055 6.755l.128.12-.062-.1z"/><path d="M30 13.836l5.441 10.641 12.157 1.706-8.8 8.283 2.077 11.7-10.874-5.522-10.874 5.522 2.077-11.7-8.8-8.283 12.157-1.706z" fill="#fff"/></svg>