<svg xmlns="http://www.w3.org/2000/svg" width="60" height="60" viewBox="0 0 60 60"><defs><style>.a{fill:#d8a286;fill-rule:evenodd}.c{fill:#fff}</style></defs><path class="a" d="M32.914 59.26c.3-.145 1.426-.2 1.809-.392-1.847.142-1.848.07-1.809.392zM.701 28.135a7.9 7.9 0 00-.017 2.708c-.087-.795.152-1.978.017-2.708zM29.55 59.233a.6.6 0 00.332.068l.471-.029-.362-.07c-.235-.025-.441-.027-.441.031zm1.814-.005l-.17.069.368.046c0-.029.17-.055.1-.079a2.266 2.266 0 00-.298-.036zM34.062.531l3.233.717 1.231.371a20.167 20.167 0 012.593.941l-.059-.053 1.244.56c.388.125.849.441 1.231.584.672.384 1.371.721 1.956 1.116a3.693 3.693 0 00.8.468l1.564 1.069c.207.092.538.4.711.477a4.423 4.423 0 00.4.229 4.48 4.48 0 00-.987-.863l-1.856-1.268a5.737 5.737 0 00-1.612-.929l-1.215-.647a17.645 17.645 0 00-2.1-.919l-.784-.335a4.941 4.941 0 00-1.329-.456l-.495-.159a1.794 1.794 0 00-.426-.128l-.392-.107a20.421 20.421 0 00-3.7-.907c-.331-.048-.522-.036-.533.032s.198.149.525.207zm11.627 4.272l.029.019a2.014 2.014 0 01.4.266l-.4-.266a.307.307 0 00-.032-.013zm9.943 42.545l-.013.02c-.016.025-.026.053-.043.076z"/><path d="M59.802 34.861v-.052a9.816 9.816 0 00.182-2.37 1.586 1.586 0 00-.069.191 2.486 2.486 0 00-.011-.483l-.023-.107.012-.142.024-1.959-.074-.387a32.379 32.379 0 00-1.012-5.553l-.155-.4a47.525 47.525 0 00-1.614-4.513l-.225-.321-.174-.419a1.822 1.822 0 00-.362-.753 12.323 12.323 0 00-1.6-2.665 44.921 44.921 0 00-2.983-3.549c-.528-.549-.833-1.117-1.372-1.616-.525-.461-.614-.279-1.364-.888-.807-.6-1.588-1.28-2.46-1.9l-.052.067c-.011-.042-.047-.105.052-.067l-.34-.235-.05.069-1.054-.716-.391-.155-.126-.059-.076-.068c-.3-.235-.734-.376-.892-.576.2 0 .855.378.915.285a5 5 0 00-2.477-.992c-.238-.134-.575-.3-.55-.355.195-.157-.336-.334-1.026-.563-.561-.178-.727-.131-.708.006l-.377-.156a1.468 1.468 0 00-.413-.161l.054.045a3.8 3.8 0 00-.408-.173c-.483-.168-1.251-.357-.993-.48.206-.084-.11-.223-.674-.393a3.825 3.825 0 00-1.427-.283c.564.174 1.221.494 1.009.61-.242-.043-.522-.114-.806-.179a2.8 2.8 0 00-.55-.449c-.061-.077-.127-.145-.4-.212a.855.855 0 00-.469-.549c.268.018.557.045.844.073a9.161 9.161 0 012.488.771 5.669 5.669 0 001.643.5l2.295.956a53.572 53.572 0 015.394 2.866l-.035-.015c.972.591 1.815 1.46 2.757 2.153A7.81 7.81 0 0150.9 9.619l.441.412c.3.259.605.6.9.912.9 1.091 1.764 2.039 2.519 3.074l-.069-.164.038.058.031.105a6.179 6.179 0 00.75 1l.128.175.1.184a14.587 14.587 0 001.075 1.888 3.667 3.667 0 01.2.34c.2.451.423.9.618 1.243.042.1.049.1.068.09.034.026.033-.013.012-.123a10.387 10.387 0 00-1.53-3.356l-.685-1.058a18.456 18.456 0 00-4.9-5.585 3.028 3.028 0 00-.666-.546 3.083 3.083 0 00-.684-.472l-.641-.511-1.037-.873a20.23 20.23 0 00-5.036-3.028c-.808-.373-1.7-.638-2.554-1.079-.63-.347-1.463-.677-1.19-.267.04.09-.5-.067-.844-.171-.647-.181-1.385-.44-2.083-.582a.984.984 0 01-.276-.065 1.268 1.268 0 00-.484-.1.962.962 0 01-.314-.064A18.817 18.817 0 0032.95.567a4.723 4.723 0 00-.8-.165c-.038-.074-.152-.136-.48-.173a3.25 3.25 0 00-.447-.066l-.109.018h-.038l.146-.021c-.074-.065-.224-.1-.6-.106l-.038-.011V.05c-.037-.047-.186-.061-.45-.065a.857.857 0 01-.3.016c-.692.051-1.385.149-2.074.267a6.255 6.255 0 00-1.19.034 31.837 31.837 0 00-4.937.7v.028l-.007-.027a12.97 12.97 0 00-2.5.581 4.4 4.4 0 00-1.25.322 5.243 5.243 0 00-.965.282c-.439.158-.262.209-.519.334a1.4 1.4 0 00-.424.276c-.115.09-.668.332-.527.384.063.048.183.056.462-.011.117.082.445.04.923-.088l.09-.054v.006a.321.321 0 00-.093.048l1 .168c.043.111.18.179.614.091-.235.143-.465.29-.681.445A6.526 6.526 0 0015.914 4.9a18.33 18.33 0 00-2.557 1.919l.055-.044c-.4.422-1.068.809-1.351 1.2V7.97a8.062 8.062 0 00-.672.652l-.06.092-.111.091-1.178 1.129a6.626 6.626 0 00-1.444 1.421c-.539.718-1.582 1.842-2.171 2.746a15.2 15.2 0 00-1.836 2.9l.049-.043c-.024.057-.03.054-.03.054l-.018-.011a27.1 27.1 0 00-1.628 3.227 10.612 10.612 0 00-.815 2.191 27.48 27.48 0 00-.179.576 19.108 19.108 0 00-1.116 4.682 7 7 0 00-.052 2.3.391.391 0 01-.016.251 2.4 2.4 0 00-.093.759 8.365 8.365 0 00.057 2.367l.023.028c-.005 0-.015 0-.023-.028a3.473 3.473 0 00.071 1.269h.007a9.388 9.388 0 00.133 1.234.574.574 0 01.035.252 2.112 2.112 0 00.079.8 3.487 3.487 0 00.426 1.4 3.607 3.607 0 00.343 1.02l.394 1.267a16.75 16.75 0 00.821 2.057l.312.761a4.711 4.711 0 00.6 1.215l.233.446a1.755 1.755 0 00.206.376l.2.339a19.631 19.631 0 001.939 3.138c.2.258.336.379.391.34s-.037-.236-.223-.5l-1.744-2.687-.6-1.091a19.374 19.374 0 01-1.146-2.406v.077l-.475-1.227c-.183-.35-.283-.878-.448-1.236a27.668 27.668 0 00-.17-.58c.018.033.034.069.055.1H2.18l.127.223-.05-.237v.018-.03.012a2.127 2.127 0 00-.026-.338 2.682 2.682 0 00-.135-.78l-.018.005h-.007l.024-.007a1.234 1.234 0 00-.02-.259 24.178 24.178 0 00.873 2.667c.3.825.744 1.632 1.029 2.536.195.682.547 1.494.649 1.015.036-.092.308.4.473.707.327.577.662 1.272 1.054 1.857a.94.94 0 01.149.237 1.212 1.212 0 00.27.407.936.936 0 01.176.263 12.979 12.979 0 003.528 4.462 5.9 5.9 0 01.617.63 4.965 4.965 0 001.118 1.135 31.339 31.339 0 003.993 2.934l.008-.012.007-.012-.015.024a12.913 12.913 0 002.187 1.324 4.347 4.347 0 001.116.639 5.12 5.12 0 00.886.47c.424.194.336.034.608.124a1.409 1.409 0 00.5.1c.146.017.711.229.648.094-.01-.077-.089-.167-.334-.313-.024-.139-.285-.338-.716-.578l-.1-.024v-.006a.341.341 0 00.1.03l-.589-.815c.059-.129-.013-.3-.6-.632-.056-.115-.177-.252-.228-.38.429.195.9.381 1.315.523.445.15.707.136.74.055.108-.093-.391-.271-.689-.42-.358-.175-.632-.37-.653-.475-.04-.14.475.074.736.131a30.033 30.033 0 003.069.927 5.391 5.391 0 001.5.329l-.029-.02.033.006v.014a10.663 10.663 0 002.017.348.909.909 0 01-.154-.064l.033.007.121.058a7.757 7.757 0 001.939.162l-.064-.022.065.008v.014a13.325 13.325 0 003.23.108c.9-.134 2.445-.2 3.513-.435a15.747 15.747 0 003.39-.779h-.065c.057-.024.059-.017.059-.017l.006.02a27.486 27.486 0 006.172-2.419 20.693 20.693 0 003.692-2.182c.046.049.167.024.4-.146l.116-.138.005.005-.121.133a1.084 1.084 0 00.4-.082 6.262 6.262 0 01-.9.658l.026-.02c-.316.173-.751.5-1.056.628-.7.23-1.416.892-2.183 1.238l-.638.307c-.431.139-.965.511-1.433.641l-.6.239a10.891 10.891 0 01-2.364.885l-.118.049-.093.023c-2.424.58-4.191 1.209-6.061 1.638a31.1 31.1 0 0010.186-2.928l.7-.347a6.3 6.3 0 001.815-.942l.97-.6c.324-.159.711-.451 1.025-.633a2.322 2.322 0 01.294-.2 5.021 5.021 0 001.014-.718l.316-.237c.138-.087.319-.179.423-.259l.449-.433a1.328 1.328 0 00.427-.322l.036-.019-.006-.005c.06.007.176-.087.366-.266a.808.808 0 01.2-.217 28.71 28.71 0 002.629-3.669 11.734 11.734 0 00.8-1.387 3.886 3.886 0 00.55-.924c.1-.133.2-.259.3-.379a23.725 23.725 0 001.521-4.691 6.285 6.285 0 00.5-2.065 17.649 17.649 0 00.425-3.132zm-5.716-22.014l-.017.012s.008-.006 0-.04zm-37.2-10.206c-.008-.02-.053-.033.045-.082.028-.026.1-.038.128-.061-.091.069-.188.12-.178.143zm3.7 56.72c-.008.019.015.06-.09.027-.039 0-.1-.041-.135-.045.1.012.206.041.216.018zm37.369-29.778h-.014v-.064zm-.187 3.958a7.92 7.92 0 00-.008-1.831 6.554 6.554 0 01.012 1.831zm.05-11.95c-.031-.027-.095-.19-.132-.212l-.058-.238zm-.244 3.64h.015c-.008.036-.021.139-.047.078a.439.439 0 00.036-.078zm-.575 5.968h.007l-.008.033zm-.674-2.252c.007.126.049.188.032.283-.018.252-.063-.027-.1-.153.032-.001.065-.002.071-.129zm-.4 4.441h.022l-.014.063c-.007.031-.005-.062-.005-.062zm-6.126 15.517l.149-.266a11.015 11.015 0 011.007-2.072 10.223 10.223 0 01-1.008 2.069.624.624 0 00-.021.118zm-37.714-.438c-.032-.019-.078-.069-.108-.081h-.005l-.018-.022-.068-.066a.5.5 0 01.065.068l.024.017.057.035a.435.435 0 00.053.049zm-5.158-1.5l-.038-.048c.055.035.078.017.063-.047 0-.009-.011-.018-.015-.027.008.007.014.016.023.023-.274-.514-.508-1.2-.274-1.131a16.137 16.137 0 00.909 1.34l.5.719c.268.64.319.766.183.959-.163-.282-.405-.561-.657-.906a4.272 4.272 0 00-.67-.978c.016.067-.002.08-.024.096zm.814-9.373l.024-.006v.061zm-.388 1.727a.2.2 0 00-.114-.061.831.831 0 01-.148.4c.034-.165.026-.416.148-.4a1.836 1.836 0 00.036-.352c.052.173.017.244.08.414zm-.941 5.086l-.03-.057a2.6 2.6 0 00.306.439l-.022.012zm-.461-2.727l-.118-.2-.054-.153c.044.095.116.24.176.354zm-.918-3.74c-.024.006-.067-.052-.11-.139l-.013-.064c.036.093.091.211.124.204zm-2.669-2.4a.531.531 0 01-.045-.115h.007a.3.3 0 00.039.121zm.766 2.762c-.055.017-.024.195.04.432a1.371 1.371 0 01-.154-.462c.009-.091.07-.015.115.036zm1.406-1.609a1.719 1.719 0 01-.2-.586 4.35 4.35 0 00.201.592zm.214 1.54c-.019-.2-.041-.353.029-.37-.056.019-.047.18-.024.376zm-2.781-9.06v.059h-.014v-.059zm-.177 1.174v.028c0 .01-.005.022-.007.032l-.052.424-.007.123v-.062l.007-.061a2.412 2.412 0 01.052-.424zm-.493 4.59a.082.082 0 00.074-.035l.026.248a1.157 1.157 0 00-.1-.213c-.077-.009-.161-.14-.244-.272a.785.785 0 01.244.277zm3.815 7.854l.154.372a1.39 1.39 0 00.176.4l-.006-.069a3.579 3.579 0 00.165.406c.22.454.628 1.121.356 1.029-.075-.031-.106-.006-.1.06l-.238-.461h-.007c0-.217-.308-.6-.452-.94a3.685 3.685 0 00-.269-.849c.101.116.173.12.222.057zm7.494-32.367l.009-.013zm19.916-6.029l-.006.038c0 .031-.159.007-.162.028.006-.025.163-.026.168-.061zm-1.948-.261c-.063-.006 0 0-.032-.007h-.157l.065-.008a3.084 3.084 0 01.536-.025c-.095.03-.345.013-.412.046zm.414.285a.446.446 0 01-.095 0h-.029l-.065.014h-.07c.037-.009.105-.006.135-.018v-.007h.029zm20.974 37a.374.374 0 01.088-.155l.016.007c-.031.061-.113.248-.104.157zm.068.2l-.026.045.007-.055c-.01.009-.018.021-.027.031a.184.184 0 000-.02c.007 0 .021-.013.036-.032l-.011.021zm3.018-8.45c-.013.089-.016.12-.032.239a.336.336 0 00-.027-.155c.023-.078.041-.044.059-.074zm-.575-14.524l.017.036-.015-.03v-.007l-.039-.081a.777.777 0 01-.021-.1.692.692 0 00.058.192zm-.13-2.832l.014.022-.014-.022-.019-.03zm-.408-.358l-.013.007-.018-.029c.025.034.031.034.031.034zM45.11 7.801a4.561 4.561 0 00-.561-.28 1.808 1.808 0 01.56.29zm-1.765-.819a.456.456 0 01.135.028l.055.036a.867.867 0 00-.19-.054zm.189-.119c.03-.048-.091-.156-.246-.282.154.136.283.232.246.292zm-3.35-1.825l.148.07-.372-.127zm-2.978-1.767l.464.1.063.02a2.712 2.712 0 00-.533-.1zM31.624.24c-.029.007-.046.016-.1.026v.001zm-5 .162l.07.005-.284.013zM6.521 14.677v.11a.2.2 0 010-.11zm-.041.17l-.005.009c-.035.014-.076.037-.114.053.045-.028.082-.042.119-.062zM.946 32.589c-.013.04-.025.081-.056.047l-.005-.064c.032.067.047.047.061.016zm.692 5.373v.008zm3.074 5.9l-.235-.572c.032.045.064.091.1.135a2.583 2.583 0 00.217.552c-.03-.038-.055-.079-.083-.116zm2 3.768a8.813 8.813 0 01-1.2-2.272c-.03-.095-.07-.191-.11-.287a2.574 2.574 0 01.223.411 4.315 4.315 0 00.459.786 1.6 1.6 0 00.142.132 17.43 17.43 0 001.985 2.448l-.056.067c-.233.167-.854-.582-1.441-1.285zm1.749-5.568c.158-.007.2-.216.127-.6l.136.669c.108.415-.12.096-.261-.069zm.347 5.178c.033.018-.04-.129.051-.033s.019.067.062.155zm1.973.02l.032-.023c.026-.019.118.1.135.092-.025.018-.137-.091-.165-.07zm.869 1.279c.087.048.25.234.321.257.04.048 0 0 .018.027l.11.109-.051-.039a3 3 0 01-.393-.355zm.428 5.634l-.046-.051.21.188zm1.173-.494c0-.008-.01-.024-.007-.032-.2-.217-.316-.4-.506-.612l-.06-.037s.034.014.007-.008l.054.045c.469.367.533.511.506.612.038.042.06.077.107.123zm2.106-3.464l.235.088c-.045.005.011.073.02.108a2.4 2.4 0 01-.257-.197zm1.528 3.378l.008-.012.021.027c-.026-.02-.027-.017-.027-.017zm3.137.238a1.242 1.242 0 00.267.071.615.615 0 01-.265-.072zm1.534.8c.028.012.029.009.029.009l-.028-.012c-.021-.005-.034 0-.054-.007a1.038 1.038 0 01-.644-.1 1.613 1.613 0 01-.394-.157c-.018-.009-.026-.005-.043-.015l-.192-.087c.076.034.157.068.235.1.133.057.267.111.394.157.222.055.408.047.644.1h.028c.006 0-.007-.011 0-.012-.088-.1-.155-.17-.246-.27l-.038-.025.026.011c-.013-.019-.051-.046-.068-.066a6.468 6.468 0 01-.793-.58l-.007.012-.653-.4.58.344.079.043a2.643 2.643 0 01.793.58c.046.03.075.062.123.09l-.055-.024.012.015c.2.126.4.248.246.27zm.759.127l-.327-.139c.112.04.244.11.389.149zm1.687 2.154v-.01zm1.61-.749c.036-.015-.078-.05-.072-.07a.59.59 0 00.16.1zm2.225.51v-.011l.059.023zm1.46.2a4.239 4.239 0 00-.486-.213l.57.032c.115.062.198.128-.082.181zm2.319-1.805a.817.817 0 00.223.061.167.167 0 00.082.03v.007a.218.218 0 01-.082-.037l-.277-.055c.056 0 .056-.007.056-.007zm.3.438h.029a.836.836 0 01-.2.059 1.093 1.093 0 00.17-.059zm4.769 2.434l-.015.015a.211.211 0 01-.1.087l.1-.087a.089.089 0 00.01-.049c.006.038.1.057.174.084a1.349 1.349 0 00-.17-.051zm2.5-2.865c-.116.036-.265.1-.281.041-.054.015-.005-.021-.089 0a.138.138 0 00.011-.013l.067-.025.011.042.175-.02.106-.021c.019-.006.043-.015.06-.019v.007zm5.778-2.6c-.389.182-.735.321-.869.25-.191-.057.2-.276.533-.486.142-.093.323-.225.215-.243-.23.048-.545.282-.716.263.288-.222.666-.345.971-.586-.073.018-.12.024-.142.011l-.037.012.024-.016h.013c.066-.021.127-.036.142-.011a.6.6 0 01.19-.114c.4-.15.814-.527 1.236-.7a6.109 6.109 0 001.515-1.166l.024-.015.042-.038-.022.018c.352-.481-.115-.09-.4.123l-.128.1-.075.043c-.235.058-.64.431-.876.48a26.391 26.391 0 002.878-2.472c.059-.058.125-.121.192-.183a.175.175 0 00-.018.035c-.06.113.044.036.121-.064a1.322 1.322 0 00.11-.149l-.016-.011c.163-.162.3-.318.3-.438a1.273 1.273 0 01.225-.5c.23-.109.57-.438.72-.406-.133.213-.191.331-.18.414a10.461 10.461 0 00-.891 1.471 8.109 8.109 0 01-.786 1.312c-.238.263-.455.522-.664.778-.057.04-.115.083-.173.122a33.179 33.179 0 01-3.459 2.164zm1.277-.23l.126-.073a.523.523 0 00.117-.053.588.588 0 01.149-.069.71.71 0 00-.149.069 1.789 1.789 0 01-.244.124z" fill="#deb299" fill-rule="evenodd"/><path class="a" d="M8.341 11.26c-.108.313-.868 1.148-1 1.556 1.205-1.404 1.257-1.353 1-1.556zM.705 27.119c.1-.355.17-.913.3-1.223.334-.673.366-1.676.664-2.484l.235-.686c.209-.413.32-1.072.563-1.5.1-.241.177-.423.254-.6a11.034 11.034 0 011.054-2.355l.05-.122.05-.084c.772-1.27 1.37-2.388 1.939-3.432l.488-.728c.152-.257.272-.49.227-.522 0-.008-.006-.009-.01-.012.17-.3.343-.591.523-.88a30.844 30.844 0 00-4.8 8.412c-.023-.105-.128.094-.208.336-.188.591-.423 1.192-.57 1.772a7.611 7.611 0 00-.489 1.737l-.26 1.139c-.117.35-.182.845-.275 1.2a2.292 2.292 0 01-.062.361 5.12 5.12 0 00-.2 1.259l-.054.4c-.035.163-.1.362-.115.5 0 .507-.009.975-.013 1.481a.446.446 0 00.022.1c.022.035.037.035.059-.065a1.529 1.529 0 00.1-.4H.166c.068-.231.056-.6.1-.9a2.079 2.079 0 01.017-.3 2.791 2.791 0 00.16-.855 2.936 2.936 0 01-.09.3l-.04.128v-.035c.013-.026.024-.062.036-.094.032-.105.062-.2.09-.3.145-.386.105-1.126.258-1.575zm52.556-15.804a7.9 7.9 0 00-1.9-1.927c.622.501 1.29 1.506 1.9 1.927zm3.324 4.173c.2.369.425.8.636 1.2a5.422 5.422 0 00.312.519c.184.2.113-.053-.024-.323a11.347 11.347 0 00-1.312-2.3l-.206-.314c-.174-.248-.357-.495-.42-.456-.089-.03.074.223.2.415.28.438.551.933.814 1.259zM10.797 9.296a.6.6 0 00-.281.187l-.313.353.305-.206c.182-.146.326-.288.289-.334zM9.5 10.604l.071-.169-.293.229c.02.021-.081.158-.017.128a2.218 2.218 0 00.239-.188zm47.952 33.971c-.069.091-.086-.086-.209.275-.024.075-.026.156-.01.164a2.537 2.537 0 00.226-.311c.066-.137.086-.252-.007-.128zm2.438-19.327c.094.062 0-.34-.032-.564l-.269-1.324c-.111-.242-.174-.225-.167.04l.26 1.318c.075.285.154.54.208.53zM46.05 6.885l.131.123-.063-.1z"/><path class="c" d="M21.733 42.347a.68.68 0 00.681.69H37.47a.681.681 0 00.68-.657 14.18 14.18 0 00-.173-2.378H48.97a.679.679 0 00.679-.658c.008-.233.149-5.747-3.309-8.915a.68.68 0 00-.874-.037c-.04.031-4.061 3.052-7.8 0a.681.681 0 00-.876.014 10.206 10.206 0 00-2.134 2.938.684.684 0 00-.684.082c-.165.125-4.082 3.038-7.806 0a.679.679 0 00-.634-.119 9.057 9.057 0 00-2.065-2.885.68.68 0 00-.873-.037c-.041.031-4.061 3.052-7.8 0a.681.681 0 00-.876.014 12.3 12.3 0 00-3.553 8.906.68.68 0 00.681.69h10.925a14.5 14.5 0 00-.238 2.352zM37.302 31.82c3.558 2.482 7.188.758 8.49-.026 2.022 2.172 2.411 5.453 2.482 6.842h-10.57a11.043 11.043 0 00-2.022-4.275 10.439 10.439 0 011.617-2.543zm-11.5 3.038c3.558 2.482 7.188.758 8.49-.026 2.023 2.172 2.411 5.453 2.483 6.842H23.12a11.451 11.451 0 012.68-6.817zm-14.059 3.78a11.455 11.455 0 012.682-6.818c3.558 2.482 7.188.758 8.49-.026a8.242 8.242 0 011.561 2.522 12.268 12.268 0 00-2.2 4.321z"/><path class="c" d="M12.125 23.404a6.445 6.445 0 006.438 6.434 6.388 6.388 0 004.549-1.888 6.264 6.264 0 00.471-.529 6.443 6.443 0 006.355 5.456 6.434 6.434 0 006.374-5.593 6.426 6.426 0 005.123 2.554 6.439 6.439 0 10-6.378-7.281 6.419 6.419 0 00-9.674-.667 6.521 6.521 0 00-.471.529 6.434 6.434 0 00-12.792.985zm25.719-3.591a5.075 5.075 0 113.592 8.665 5.075 5.075 0 01-3.59-8.665zm-11.5 3.038a5.075 5.075 0 113.592 8.665 5.075 5.075 0 01-3.589-8.665zm-7.787-4.528a5.077 5.077 0 010 10.155 5.077 5.077 0 010-10.155z"/></svg>