<svg xmlns="http://www.w3.org/2000/svg" width="60" height="60" viewBox="0 0 60 60"><defs><style>.a{fill:#d8a286;fill-rule:evenodd}</style></defs><path class="a" d="M32.944 59.285c.289-.141 1.384-.192 1.756-.38-1.794.134-1.794.064-1.756.38zM.68 28.174a7.667 7.667 0 00-.017 2.628c-.084-.771.148-1.92.017-2.628zm28.879 31.082a.58.58 0 00.322.066l.457-.028-.351-.068c-.225-.025-.422-.026-.428.03zm1.799-.006l-.165.067.358.044c0-.029.165-.054.1-.077a2.239 2.239 0 00-.293-.034zM34.385.515l3.138.7 1.2.361a19.565 19.565 0 012.518.914l-.057-.052 1.207.544c.377.121.825.428 1.2.567.653.373 1.331.7 1.9 1.083a3.589 3.589 0 00.778.454l1.518 1.037c.2.09.522.388.69.463a4.249 4.249 0 00.385.222 4.346 4.346 0 00-.958-.838l-1.8-1.228a5.568 5.568 0 00-1.565-.9l-1.179-.628a17.146 17.146 0 00-2.041-.892l-.771-.331a4.787 4.787 0 00-1.29-.443l-.48-.154a1.734 1.734 0 00-.413-.125l-.381-.1a19.783 19.783 0 00-3.6-.88c-.321-.047-.506-.035-.517.031s.201.138.518.195zm11.287 4.147l.028.018a1.951 1.951 0 01.391.259L45.7 4.68a.273.273 0 00-.031-.012zm10.089 42.689l-.013.02c-.015.024-.025.051-.041.073z"/><path d="M59.801 34.861v-.052a9.819 9.819 0 00.182-2.37 1.588 1.588 0 00-.069.191 2.5 2.5 0 00-.011-.483l-.023-.107.013-.142.023-1.959-.074-.387a32.375 32.375 0 00-1.013-5.554l-.155-.4a47.479 47.479 0 00-1.615-4.513l-.225-.321-.174-.419a1.821 1.821 0 00-.362-.753 12.321 12.321 0 00-1.6-2.665 44.952 44.952 0 00-2.984-3.549c-.528-.549-.833-1.117-1.372-1.616-.525-.461-.615-.279-1.364-.888-.807-.6-1.588-1.28-2.461-1.9l-.052.067c-.011-.042-.048-.106.052-.067l-.34-.235-.05.069-1.055-.716-.391-.155-.126-.059-.077-.068c-.3-.235-.734-.376-.893-.576.2 0 .855.378.915.285a5 5 0 00-2.478-.992c-.238-.134-.575-.3-.55-.355.2-.157-.336-.334-1.025-.563-.561-.178-.727-.131-.709.007l-.378-.156a1.466 1.466 0 00-.413-.161l.054.045a3.894 3.894 0 00-.409-.173c-.483-.168-1.251-.357-.994-.48.206-.084-.11-.223-.674-.393a3.828 3.828 0 00-1.427-.283c.564.174 1.222.494 1.009.61-.242-.043-.522-.114-.807-.179a2.794 2.794 0 00-.551-.449c-.061-.077-.127-.144-.4-.212a.856.856 0 00-.469-.549c.268.018.557.046.844.073a9.168 9.168 0 012.489.771 5.675 5.675 0 001.643.5l2.3.956a53.621 53.621 0 015.4 2.866l-.035-.014c.971.592 1.816 1.46 2.758 2.153a7.811 7.811 0 011.221 1.079l.442.412c.3.259.606.6.9.912.9 1.09 1.764 2.039 2.52 3.074l-.069-.164.038.059.031.105a6.17 6.17 0 00.75 1l.128.175.1.183a14.569 14.569 0 001.075 1.888 3.7 3.7 0 01.2.34c.2.451.423.9.618 1.243.042.1.049.1.068.09.034.026.033-.013.012-.123a10.386 10.386 0 00-1.531-3.356l-.685-1.058a18.455 18.455 0 00-4.9-5.585 3.03 3.03 0 00-.666-.546 3.107 3.107 0 00-.685-.472l-.641-.51-1.038-.873a20.229 20.229 0 00-5.038-3.028c-.808-.373-1.7-.638-2.554-1.079-.63-.347-1.464-.677-1.191-.267.04.09-.5-.067-.844-.171-.647-.181-1.385-.44-2.083-.582a.985.985 0 01-.276-.065 1.267 1.267 0 00-.484-.1.967.967 0 01-.314-.064 18.8 18.8 0 00-1.838-.489 4.735 4.735 0 00-.8-.165c-.038-.074-.152-.136-.481-.173a3.269 3.269 0 00-.447-.066l-.109.018h-.038l.146-.021c-.074-.065-.224-.1-.6-.106l-.038-.012v.007c-.037-.047-.186-.061-.45-.065a.857.857 0 01-.3.016c-.692.051-1.385.149-2.075.267a6.258 6.258 0 00-1.19.034 31.835 31.835 0 00-4.939.7v.028l-.007-.027a12.993 12.993 0 00-2.5.581 4.4 4.4 0 00-1.25.322 5.241 5.241 0 00-.966.282c-.439.158-.262.209-.52.334a1.39 1.39 0 00-.425.276c-.115.09-.668.332-.527.383.063.048.183.056.462-.011.117.082.445.04.923-.088l.09-.054v.006a.32.32 0 00-.093.048l1 .168c.043.111.18.179.614.091-.236.143-.465.29-.682.445A6.519 6.519 0 0015.899 4.9a18.333 18.333 0 00-2.557 1.92l.055-.044c-.4.422-1.069.809-1.351 1.2v-.005a8.045 8.045 0 00-.673.652l-.06.092-.111.091-1.178 1.129a6.632 6.632 0 00-1.445 1.421c-.539.718-1.582 1.842-2.172 2.747a15.2 15.2 0 00-1.836 2.9l.049-.043c-.024.057-.03.053-.03.053l-.018-.011a27.244 27.244 0 00-1.629 3.227 10.65 10.65 0 00-.815 2.191c-.061.191-.123.383-.179.576a19.1 19.1 0 00-1.116 4.683 6.991 6.991 0 00-.052 2.3.392.392 0 01-.016.251 2.379 2.379 0 00-.093.759 8.361 8.361 0 00.057 2.367l.023.028c-.005 0-.015 0-.023-.028A3.471 3.471 0 00.8 34.625h.007a9.369 9.369 0 00.133 1.234.575.575 0 01.035.252 2.111 2.111 0 00.079.8 3.486 3.486 0 00.426 1.4 3.607 3.607 0 00.343 1.02l.394 1.267a16.741 16.741 0 00.821 2.057l.312.761a4.71 4.71 0 00.6 1.215l.233.446a1.763 1.763 0 00.206.376l.2.339a19.633 19.633 0 001.94 3.138c.2.258.336.379.392.34s-.037-.236-.223-.5l-1.745-2.687-.6-1.091a19.264 19.264 0 01-1.147-2.406v.077c-.167-.43-.308-.8-.475-1.227-.183-.35-.283-.878-.448-1.236a27.668 27.668 0 00-.17-.58c.018.033.034.069.055.1h-.007l.127.223-.05-.237v.018-.03.012a2.05 2.05 0 00-.027-.338 2.636 2.636 0 00-.135-.78l-.017.005h-.007l.024-.007a1.177 1.177 0 00-.019-.259 24.2 24.2 0 00.874 2.667c.3.825.744 1.632 1.03 2.536.2.682.547 1.494.649 1.015.036-.092.308.4.473.707.328.577.662 1.272 1.054 1.857a.918.918 0 01.148.237 1.229 1.229 0 00.271.407.937.937 0 01.176.263 12.977 12.977 0 003.529 4.462 5.962 5.962 0 01.617.63 4.966 4.966 0 001.144 1.159 31.353 31.353 0 003.994 2.934l.008-.012.007-.012-.015.024a12.924 12.924 0 002.188 1.325 4.354 4.354 0 001.118.641 5.125 5.125 0 00.886.47c.425.194.336.034.608.124a1.412 1.412 0 00.5.1c.146.016.712.229.649.094-.01-.077-.089-.167-.334-.313-.024-.139-.286-.338-.716-.578l-.1-.024v-.007a.345.345 0 00.1.03l-.589-.815c.059-.128-.013-.3-.6-.632-.056-.115-.177-.252-.228-.38.429.2.9.381 1.316.523.445.15.707.136.74.055.108-.092-.392-.271-.69-.42-.358-.175-.632-.37-.653-.475-.04-.14.475.074.737.131a30.03 30.03 0 003.07.927 5.384 5.384 0 001.5.329l-.029-.02.032.007v.014a10.651 10.651 0 002.017.348.908.908 0 01-.154-.064l.033.006.121.058a7.759 7.759 0 001.94.162l-.064-.022.065.008v.014a13.327 13.327 0 003.231.108c.9-.134 2.446-.2 3.514-.435a15.755 15.755 0 003.391-.779h-.065c.057-.024.059-.017.059-.017l.006.02a27.5 27.5 0 006.174-2.419 20.694 20.694 0 003.693-2.182c.046.049.167.024.4-.146l.116-.138.005.005-.121.133a1.084 1.084 0 00.4-.082 6.275 6.275 0 01-.9.658l.026-.02c-.316.173-.751.5-1.057.628-.7.23-1.417.892-2.183 1.238l-.638.307c-.431.139-.966.511-1.434.641l-.6.239a10.916 10.916 0 01-2.365.885l-.118.049-.093.023c-2.425.58-4.192 1.209-6.063 1.638a31.111 31.111 0 0010.189-2.928l.7-.347a6.3 6.3 0 001.815-.942l.97-.6c.324-.159.712-.451 1.025-.633a2.3 2.3 0 01.294-.2 5.028 5.028 0 001.014-.718l.316-.237c.138-.087.319-.179.423-.259l.449-.433a1.324 1.324 0 00.427-.322l.036-.019-.006-.005c.06.007.176-.087.366-.266a.807.807 0 01.2-.217 28.71 28.71 0 002.63-3.669 11.718 11.718 0 00.8-1.387 3.887 3.887 0 00.551-.924c.1-.133.2-.259.3-.379a23.675 23.675 0 001.523-4.691 6.281 6.281 0 00.5-2.065 17.635 17.635 0 00.425-3.132zm-5.718-22.014l-.018.012s.009-.007 0-.04zM16.866 2.641c-.008-.02-.053-.033.045-.082.028-.026.1-.038.128-.061-.085.069-.181.12-.172.143zm3.7 56.72c-.008.02.015.06-.091.028-.039 0-.1-.041-.135-.046.108.012.214.041.224.018zM57.96 29.583h-.014v-.064zm-.187 3.958a7.923 7.923 0 00-.008-1.831 6.555 6.555 0 01.006 1.832zm.05-11.95c-.031-.027-.095-.19-.132-.212l-.058-.238zm-.244 3.64h.015c-.008.036-.021.139-.047.078a.438.438 0 00.029-.078zm-.576 5.968h.007l-.008.033zm-.681-2.251a1.3 1.3 0 01.032.283c-.018.252-.063-.027-.1-.153.034-.002.068-.003.068-.13zm-.4 4.441h.022l-.014.063c-.008.03-.008-.063-.008-.063zm-6.128 15.517l.149-.266a11.028 11.028 0 011.013-2.073 10.217 10.217 0 01-1.008 2.069.635.635 0 00-.021.119zm-37.729-.435c-.032-.019-.079-.069-.108-.081h-.005l-.018-.022-.068-.066a.5.5 0 01.066.068l.024.017.057.035c.023.02.039.031.056.045zm-5.16-1.5l-.038-.048c.055.035.078.017.063-.047 0-.009-.011-.018-.015-.027.008.007.014.016.023.023-.274-.514-.508-1.2-.274-1.131a16.112 16.112 0 00.91 1.34l.5.719c.268.641.319.765.183.959-.163-.282-.406-.561-.657-.906a4.27 4.27 0 00-.67-.978c.02.063.002.076-.02.092zm.815-9.373l.024-.006v.061zm-.388 1.727a.2.2 0 00-.114-.061.833.833 0 01-.148.4c.034-.165.027-.416.148-.4a1.829 1.829 0 00.036-.352c.056.169.021.24.083.41zm-.941 5.086l-.03-.057a2.583 2.583 0 00.306.439l-.022.012c-.069-.115-.141-.227-.25-.397zm-.461-2.727l-.118-.2-.054-.153c.048.091.119.236.177.35zm-.919-3.74c-.024.006-.067-.052-.11-.139l-.013-.064c.04.09.095.207.128.2zm-2.67-2.4a.53.53 0 01-.045-.115h.007a.293.293 0 00.043.117zm.766 2.762c-.055.017-.024.2.04.432a1.366 1.366 0 01-.154-.462c.014-.095.074-.019.119.032zm1.406-1.609a1.719 1.719 0 01-.2-.586 4.339 4.339 0 00.209.588zm.214 1.54c-.019-.2-.041-.353.029-.37-.05.015-.042.176-.023.372zm-2.782-9.06v.059h-.014v-.058zm-.177 1.174v.028c0 .01-.005.022-.007.032l-.052.424-.007.123v-.062l.007-.061a2.4 2.4 0 01.052-.424zm-.493 4.59a.083.083 0 00.074-.035l.026.248a1.162 1.162 0 00-.1-.213c-.077-.009-.161-.14-.244-.272a.784.784 0 01.25.274zm3.817 7.854l.155.372a1.391 1.391 0 00.176.4l-.006-.069a3.586 3.586 0 00.165.406c.219.454.628 1.121.356 1.029-.075-.031-.106-.006-.1.06l-.238-.461h-.007c0-.217-.308-.6-.453-.94a3.688 3.688 0 00-.269-.849c.105.112.177.116.226.053zm7.5-32.367l.009-.013zm19.922-6.029l-.006.038c0 .031-.159.007-.162.028.006-.029.164-.03.169-.065zm-1.949-.261c-.063-.006 0 0-.032-.006h-.157l.065-.008a3.075 3.075 0 01.536-.025c-.094.025-.343.008-.41.041zm.414.285a.451.451 0 01-.095 0h-.029l-.065.015h-.07c.037-.009.105-.007.135-.018v-.007h.029zm20.98 37a.371.371 0 01.088-.155l.016.007c-.029.057-.111.244-.102.153zm.068.2l-.026.045.007-.055c-.01.009-.018.021-.027.031v-.02c0-.007.021-.013.036-.032l-.011.021zm3.019-8.45l-.032.239a.334.334 0 00-.027-.155c.025-.082.043-.048.061-.078zm-.575-14.524l.017.036-.015-.03v-.007l-.039-.081a.777.777 0 01-.021-.1.691.691 0 00.06.188zm-.13-2.832l.014.022-.014-.022-.019-.03zm-.408-.358l-.012.007-.018-.029c.025.03.031.03.031.03zm-8.83-7.654a4.636 4.636 0 00-.561-.279 1.811 1.811 0 01.562.285zm-1.765-.819a.458.458 0 01.135.028l.055.036a.872.872 0 00-.189-.058zm.189-.119c.03-.048-.091-.156-.246-.282.156.132.285.228.247.288zm-3.352-1.825l.149.07-.372-.127zm-2.978-1.767l.464.1.063.02a2.708 2.708 0 00-.534-.1zM31.613.244c-.029.007-.046.016-.1.026V.267zm-5 .163h.07l-.284.013zM6.504 14.677v.11a.2.2 0 010-.11zm-.041.17l-.005.009c-.035.014-.076.037-.114.053.045-.028.078-.042.118-.062zM.922 32.588c-.013.04-.025.081-.056.047l-.005-.064c.037.069.052.048.061.017zm.692 5.373v.008zm3.075 5.9l-.235-.572c.033.045.065.092.1.135a2.6 2.6 0 00.217.553c-.025-.038-.049-.079-.078-.116zm2 3.768a8.811 8.811 0 01-1.2-2.272c-.03-.095-.07-.191-.11-.287a2.572 2.572 0 01.223.411 4.317 4.317 0 00.459.786 1.631 1.631 0 00.142.131 17.431 17.431 0 001.986 2.448l-.057.067c-.226.169-.848-.58-1.435-1.283zm1.749-5.568c.158-.007.2-.216.127-.6l.136.67c.114.415-.114.096-.255-.069zm.347 5.178c.033.018-.041-.129.05-.033s.02.067.063.155zm1.974.02l.031-.023c.026-.019.118.1.135.092-.018.019-.129-.09-.158-.069zm.869 1.279c.087.048.25.234.321.257.04.048 0 0 .018.027l.11.109-.052-.039a3 3 0 01-.389-.354zm.428 5.634l-.046-.051.211.188zm1.174-.494c0-.008-.01-.024-.007-.032-.2-.217-.316-.4-.506-.612l-.06-.037s.034.014.007-.008l.054.045c.469.367.533.511.506.612.038.042.06.077.107.123zm2.106-3.464l.236.088c-.045 0 .011.073.02.108a2.424 2.424 0 01-.248-.196zm1.529 3.378l.008-.011.021.027c-.02-.02-.021-.017-.021-.017zm3.138.238a1.241 1.241 0 00.267.072.614.614 0 01-.259-.072zm1.534.8c.028.012.029.009.029.009l-.028-.012c-.021-.005-.034 0-.054-.007a1.04 1.04 0 01-.645-.1 1.611 1.611 0 01-.395-.157c-.018-.009-.026-.005-.043-.015l-.192-.087c.076.034.157.068.235.1.133.057.267.111.395.157.222.055.408.047.645.1h.028c.006 0-.007-.011 0-.012-.088-.1-.155-.17-.246-.27l-.038-.025.026.011c-.013-.019-.051-.046-.068-.066a6.483 6.483 0 01-.793-.58l-.007.012-.653-.4.58.345.08.043a2.641 2.641 0 01.793.58c.046.03.075.061.123.09l-.055-.024.013.015c.2.126.4.248.246.27zm.76.127l-.328-.139c.112.04.244.111.389.149zm1.688 2.154v-.01zm1.61-.749c.036-.014-.078-.05-.072-.07a.587.587 0 00.16.1zm2.225.51v-.011l.059.023zm1.461.2a4.29 4.29 0 00-.486-.213l.57.032c.121.063.204.129-.076.182zm2.32-1.805a.823.823 0 00.223.061.167.167 0 00.082.03v.007a.22.22 0 01-.082-.037l-.277-.055c.062.001.062-.006.062-.006zm.3.438h.029a.837.837 0 01-.2.059 1.106 1.106 0 00.176-.058zm4.77 2.434l-.016.014a.211.211 0 01-.1.087l.1-.087a.089.089 0 00.01-.049c.006.038.1.057.174.084a1.286 1.286 0 00-.163-.048zm2.5-2.866c-.115.036-.265.1-.281.041-.054.014-.005-.021-.089 0a.139.139 0 00.011-.013l.067-.024.011.042.175-.02.106-.021c.019-.006.044-.015.06-.019v.007zm5.779-2.6c-.389.182-.736.321-.869.251-.191-.057.2-.276.533-.486.142-.092.323-.225.215-.243-.23.048-.545.282-.716.263.289-.222.666-.345.971-.586-.073.018-.12.024-.142.011l-.037.012.024-.016h.013c.066-.021.127-.036.142-.011a.593.593 0 01.19-.114c.4-.149.815-.527 1.236-.7a6.108 6.108 0 001.515-1.166l.023-.015.043-.038-.022.018c.352-.481-.116-.09-.4.123l-.128.1-.075.043c-.236.058-.64.431-.877.48a26.4 26.4 0 002.879-2.472c.059-.058.125-.121.192-.183a.181.181 0 00-.018.035c-.06.113.044.036.121-.064a1.306 1.306 0 00.11-.149l-.016-.011c.163-.162.3-.318.3-.438a1.279 1.279 0 01.225-.5c.23-.109.57-.438.721-.406-.133.213-.191.331-.18.414a10.471 10.471 0 00-.891 1.471 8.1 8.1 0 01-.786 1.312 19.08 19.08 0 00-.664.778c-.057.04-.115.083-.173.122a33.178 33.178 0 01-3.453 2.165zm1.278-.23l.126-.073a.52.52 0 00.117-.054.59.59 0 01.149-.069.708.708 0 00-.149.069 1.771 1.771 0 01-.237.127z" fill="#deb299" fill-rule="evenodd"/><path class="a" d="M8.097 11.269c-.1.3-.842 1.115-.972 1.51 1.172-1.362 1.222-1.313.972-1.51zM.685 26.856c.1-.345.165-.886.291-1.188.325-.654.356-1.627.645-2.411l.228-.666c.2-.4.311-1.04.546-1.461l.246-.587a10.674 10.674 0 011.023-2.286l.048-.118.049-.081c.75-1.233 1.33-2.318 1.883-3.332l.474-.707c.148-.249.264-.476.221-.506 0-.008-.006-.009-.009-.012.165-.288.333-.573.508-.854a29.944 29.944 0 00-4.655 8.166c-.022-.1-.125.091-.2.326-.182.574-.411 1.157-.553 1.72a7.387 7.387 0 00-.474 1.686l-.252 1.106c-.114.34-.176.82-.267 1.169a2.226 2.226 0 01-.06.35 4.968 4.968 0 00-.2 1.222l-.052.39c-.034.158-.1.352-.111.482 0 .492-.009.946-.013 1.437a.431.431 0 00.021.1c.021.034.036.034.057-.063a1.483 1.483 0 00.095-.392H.167c.066-.224.054-.58.1-.87a2.018 2.018 0 01.017-.291 2.711 2.711 0 00.155-.83 2.862 2.862 0 01-.087.287l-.039.125v-.034c.012-.026.023-.06.035-.091l.087-.287c.141-.374.1-1.093.251-1.529zm52.774-15.872a7.674 7.674 0 00-1.847-1.871c.605.486 1.254 1.462 1.847 1.871zm3.227 4.479l.618 1.166a5.288 5.288 0 00.3.5c.178.2.109-.052-.023-.314a11.02 11.02 0 00-1.274-2.237l-.2-.305c-.169-.241-.347-.48-.407-.442-.086-.029.071.216.189.4.277.435.538.916.797 1.232zM10.482 9.025a.579.579 0 00-.273.181l-.3.342.3-.2c.169-.144.309-.279.273-.323zm-1.26 1.267l.069-.165-.284.222c.02.02-.079.154-.016.124a2.229 2.229 0 00.231-.181zm48.307 34.293c-.067.088-.083-.083-.2.267-.023.073-.026.152-.01.16a2.461 2.461 0 00.219-.3c.06-.135.082-.247-.009-.127zm2.364-19.373c.091.06 0-.33-.031-.547l-.261-1.286c-.108-.235-.169-.219-.162.039l.253 1.28c.072.28.149.524.201.514zM46.053 6.684l.127.119-.061-.1z"/><path d="M41.45 48.464l-11.672-6.4-11.889 5.987 2.479-13.079L11 25.515l13.2-1.683L30.3 12l5.681 12.038 13.142 2.145-9.693 9.124z" fill="none" stroke="#fff" stroke-width="2"/></svg>