<svg xmlns="http://www.w3.org/2000/svg" width="195" height="40" viewBox="0 0 195 40"><defs><style>.a{fill:#deb299}.b{fill:#8ba4b4}</style></defs><path class="a" d="M8.462 8.985a8.366 8.366 0 012.778-.467 9.562 9.562 0 015.281 1.485 10.61 10.61 0 013.669 4.051 12.571 12.571 0 011.357 5.959 12.822 12.822 0 01-1.357 6 10.582 10.582 0 01-3.648 4.093 9.3 9.3 0 01-5.174 1.485 9.129 9.129 0 01-3.054-.509 9.452 9.452 0 01-2.545-1.337 8.883 8.883 0 01-1.8-1.761 4.528 4.528 0 01-.87-1.739l1.145-.551v11.833a2.1 2.1 0 01-.615 1.549 2.05 2.05 0 01-1.506.615 2.028 2.028 0 01-1.527-.615 2.14 2.14 0 01-.594-1.549l.609-22.054c1.742-4.713 7.592-6.445 7.592-6.445m2.572 3.39a6.263 6.263 0 00-3.541 1 6.813 6.813 0 00-2.355 2.693 8.615 8.615 0 00-.848 3.9 8.916 8.916 0 00.848 3.923 6.706 6.706 0 002.355 2.757 6.256 6.256 0 003.541 1 6.087 6.087 0 003.478-1 6.927 6.927 0 002.354-2.757 8.733 8.733 0 00.87-3.923 8.472 8.472 0 00-.87-3.881 7.008 7.008 0 00-2.354-2.714 6.094 6.094 0 00-3.483-.994z"/><path class="b" d="M63.605 9.292a8.4 8.4 0 012.779-.466 9.569 9.569 0 015.281 1.484 10.61 10.61 0 013.668 4.051 12.56 12.56 0 011.357 5.959 12.813 12.813 0 01-1.357 6 10.587 10.587 0 01-3.647 4.093 9.306 9.306 0 01-5.174 1.484 9.105 9.105 0 01-3.054-.509 9.425 9.425 0 01-2.545-1.337 8.88 8.88 0 01-1.8-1.76 4.525 4.525 0 01-.87-1.74L59.388 26v11.834a2.107 2.107 0 01-.615 1.549 2.054 2.054 0 01-1.506.614 2.031 2.031 0 01-1.527-.614 2.14 2.14 0 01-.594-1.549l.609-22.054c1.742-4.713 7.592-6.445 7.592-6.445m2.572 3.39a6.275 6.275 0 00-3.542 1 6.82 6.82 0 00-2.354 2.694 8.609 8.609 0 00-.849 3.9 8.919 8.919 0 00.849 3.923 6.723 6.723 0 002.354 2.757 6.268 6.268 0 003.542 1 6.094 6.094 0 003.478-1 6.94 6.94 0 002.354-2.757 8.736 8.736 0 00.87-3.923 8.47 8.47 0 00-.87-3.881 7.011 7.011 0 00-2.354-2.715 6.1 6.1 0 00-3.48-.995z"/><path class="a" d="M27.527 6.108a2.842 2.842 0 01-1.781-.446 1.829 1.829 0 01-.551-1.506v-.678a1.7 1.7 0 01.594-1.485 3.068 3.068 0 011.781-.425 2.925 2.925 0 011.823.446 1.774 1.774 0 01.552 1.464v.678a1.784 1.784 0 01-.573 1.527 3.136 3.136 0 01-1.845.425zm2.164 23.116a2.134 2.134 0 01-.594 1.548 2.176 2.176 0 01-3.032 0 2.094 2.094 0 01-.615-1.548V11.07a2.1 2.1 0 01.615-1.548 2.176 2.176 0 013.032 0 2.136 2.136 0 01.594 1.548zm7.761 2.163a2.044 2.044 0 01-1.506-.615 2.094 2.094 0 01-.615-1.548V2.164a2.1 2.1 0 01.615-1.549 2.176 2.176 0 013.032 0 2.144 2.144 0 01.594 1.549v27.061a2.138 2.138 0 01-.594 1.548 2.028 2.028 0 01-1.526.614zM51.279 8.993a1.811 1.811 0 011.4.678 1.893 1.893 0 01-.212 2.927L39.191 24.474l-.169-4.878L49.71 9.671a2.159 2.159 0 011.568-.678zm.51 22.353a1.967 1.967 0 01-1.527-.722l-8.483-8.949 3.224-2.97 8.271 8.95a2.3 2.3 0 01.678 1.611 1.813 1.813 0 01-.741 1.506 2.361 2.361 0 01-1.423.573z"/><path class="b" d="M90.746 31.637a12.309 12.309 0 01-6.087-1.453 10.185 10.185 0 01-4.03-4 11.754 11.754 0 01-1.421-5.829 12.556 12.556 0 011.506-6.335 10.676 10.676 0 013.945-4.042 10.14 10.14 0 015.153-1.409 9.753 9.753 0 013.923.82 10.621 10.621 0 013.329 2.278 10.977 10.977 0 012.291 3.41 11.156 11.156 0 01.891 4.273 1.884 1.884 0 01-.678 1.389 2.209 2.209 0 01-1.485.547H81.625l-1.017-3.577h15.946l-.806.758v-1.053a4.7 4.7 0 00-1.018-2.589 6.092 6.092 0 00-2.185-1.726 6.342 6.342 0 00-2.736-.61 7.675 7.675 0 00-2.46.4 5.32 5.32 0 00-2.078 1.284 6.454 6.454 0 00-1.442 2.336 10.2 10.2 0 00-.551 3.6 8.064 8.064 0 00.975 4.041 6.95 6.95 0 002.629 2.674 7.3 7.3 0 003.69.947 8.722 8.722 0 002.545-.316 6.309 6.309 0 001.7-.779c.452-.308.849-.6 1.187-.884a2.636 2.636 0 011.273-.378 1.7 1.7 0 011.273.526 1.727 1.727 0 01.509 1.242 2.165 2.165 0 01-.933 1.683 10.258 10.258 0 01-3.16 1.937 10.838 10.838 0 01-4.22.835zm15.777-.425a2.034 2.034 0 01-1.527-.61 2.109 2.109 0 01-.594-1.536V11.22a2.112 2.112 0 01.594-1.536 2.189 2.189 0 013.032 0 2.076 2.076 0 01.615 1.536v4.715l-.424-1.81a7.456 7.456 0 011.039-2.188 7.979 7.979 0 011.677-1.77 7.679 7.679 0 014.707-1.6 3.149 3.149 0 011.909.589 1.767 1.767 0 01.806 1.473 2.113 2.113 0 01-.594 1.662 1.939 1.939 0 01-1.315.526 2.9 2.9 0 01-1.23-.274 3.327 3.327 0 00-1.4-.274 4.089 4.089 0 00-1.824.463 5.336 5.336 0 00-1.7 1.368 6.955 6.955 0 00-1.209 2.125 7.945 7.945 0 00-.44 2.742v10.1a2.093 2.093 0 01-2.121 2.146zM132.947 9.46a1.951 1.951 0 110 3.9h-10.985a1.919 1.919 0 01-1.378-.55 2 2 0 010-2.8 1.919 1.919 0 011.378-.55zm-.848-9.417a6.848 6.848 0 011.654.212 3.469 3.469 0 011.421.7 1.666 1.666 0 01.572 1.337 1.91 1.91 0 01-.509 1.378 1.594 1.594 0 01-1.188.53 4.745 4.745 0 01-1.145-.191 5.615 5.615 0 00-1.442-.191 2.545 2.545 0 00-1.569.446 2.479 2.479 0 00-.849 1.1 3.575 3.575 0 00-.254 1.293v22.566a2.1 2.1 0 01-.615 1.548 2.046 2.046 0 01-1.506.615 2.025 2.025 0 01-1.527-.615 2.131 2.131 0 01-.594-1.548V6.702a6.376 6.376 0 011.93-4.793 7.773 7.773 0 015.621-1.866zm16.16 31.594a12.308 12.308 0 01-6.086-1.453 10.179 10.179 0 01-4.03-4 11.754 11.754 0 01-1.421-5.829 12.556 12.556 0 011.506-6.335 10.676 10.676 0 013.945-4.042 10.14 10.14 0 015.153-1.411 9.753 9.753 0 013.923.82 10.636 10.636 0 013.33 2.274 11.008 11.008 0 012.29 3.41 11.156 11.156 0 01.891 4.273 1.882 1.882 0 01-.679 1.389 2.2 2.2 0 01-1.484.547H139.14l-1.018-3.577h15.944l-.805.758v-1.053a4.715 4.715 0 00-1.018-2.589 6.092 6.092 0 00-2.185-1.726 6.342 6.342 0 00-2.736-.61 7.667 7.667 0 00-2.46.4 5.32 5.32 0 00-2.078 1.284 6.454 6.454 0 00-1.442 2.336 10.2 10.2 0 00-.551 3.6 8.064 8.064 0 00.975 4.041 6.95 6.95 0 002.629 2.674 7.3 7.3 0 003.69.947 8.722 8.722 0 002.545-.316 6.308 6.308 0 001.7-.779q.677-.461 1.187-.884a2.637 2.637 0 011.273-.378 1.7 1.7 0 011.272.526 1.728 1.728 0 01.51 1.242 2.165 2.165 0 01-.934 1.683 10.258 10.258 0 01-3.16 1.937 10.839 10.839 0 01-4.219.841zm23.369-23.07a15.361 15.361 0 014.05.483 7.216 7.216 0 012.779 1.348 2.563 2.563 0 011.018 2 2.2 2.2 0 01-.446 1.326 1.457 1.457 0 01-1.251.61 2.235 2.235 0 01-1.039-.21 3.847 3.847 0 01-.742-.5 5.557 5.557 0 00-.848-.59 4.893 4.893 0 00-1.378-.421 9.1 9.1 0 00-1.633-.169 7.231 7.231 0 00-3.88 1.01 7.006 7.006 0 00-2.546 2.736 8.861 8.861 0 000 7.829 7.111 7.111 0 002.5 2.737 6.769 6.769 0 003.711 1.01 9.642 9.642 0 002.1-.19 5.081 5.081 0 002.481-1.263 1.728 1.728 0 011.23-.4 1.771 1.771 0 011.421.569 2.092 2.092 0 01.487 1.409 2.355 2.355 0 01-1.124 1.79 9.1 9.1 0 01-2.99 1.41 14.618 14.618 0 01-4.115.547 10.665 10.665 0 01-5.746-1.516 10.261 10.261 0 01-3.775-4.125 12.747 12.747 0 01-1.337-5.894 12.234 12.234 0 011.4-5.914 10.6 10.6 0 013.9-4.1 10.909 10.909 0 015.773-1.522zm11.41.765h9.968a1.955 1.955 0 011.993 1.993 1.809 1.809 0 01-.572 1.357 1.97 1.97 0 01-1.421.551h-9.968a1.929 1.929 0 01-1.421-.572 1.971 1.971 0 010-2.778 1.968 1.968 0 011.421-.551zm4.455-5.518a2.037 2.037 0 011.527.615 2.143 2.143 0 01.593 1.549v19.68a2.561 2.561 0 00.255 1.23 1.327 1.327 0 00.7.636 2.543 2.543 0 00.912.169 1.929 1.929 0 00.828-.169 2.024 2.024 0 01.869-.169 1.249 1.249 0 01.934.466 1.825 1.825 0 01.424 1.273 1.883 1.883 0 01-1.1 1.654 4.679 4.679 0 01-2.376.636 13.35 13.35 0 01-1.7-.126 5.246 5.246 0 01-1.888-.637 3.853 3.853 0 01-1.506-1.633 6.857 6.857 0 01-.593-3.16V5.982a2.1 2.1 0 01.615-1.549 2.05 2.05 0 011.506-.619z"/></svg>