<svg xmlns="http://www.w3.org/2000/svg" width="161.754" height="28.68" viewBox="0 0 161.754 28.68"><path d="M108.169 0h-5.229v9.838C102.185 2.479 99.463 0 95.474 0c-2.992 0-5.229 1.482-6.6 5.364C87.874 1.51 85.02 0 80.274 0h-5.233v9.838h-.135C74.151 2.479 71.429 0 67.44 0c-3.854 0-6.6 2.48-7.466 9.838h-.135V0H53.1l-2.48 14.69h-.135L48.356 0h-6.981v5.607C40.755 2.238 38.76 0 35.014 0c-4.124 0-6.361 2.857-6.739 6.469C27.143 1.617 24.663 0 21.429 0c-3.612 0-6.227 2.129-7.224 8.221C13.962 3.854 12.723 0 7.466 0 3.342 0 0 3.747 0 14.34c0 9.084 1.86 14.34 7.466 14.34 4.987 0 6.361-3.989 6.739-7.979 1 5.984 3.612 7.979 7.224 7.979 3.477 0 5.984-1.995 7.089-7.6.243 3.612 1.617 7.6 6.739 7.6a6.521 6.521 0 006.119-3.369v3.234h3.854V7.6h.135l3.477 20.944H51.7L55.176 7.6h.135v20.944h4.609v-9.838h.135c.755 7.359 3.477 9.838 7.466 9.838 3.854 0 6.6-2.48 7.466-9.838h.135v9.838h5.229V17.089h2.129a6.171 6.171 0 005.472-2.615c0 10.728 2.992 14.07 7.6 14.07 3.854 0 6.6-2.48 7.466-9.838v9.838h11.833v-4.367h-6.6V0zM10 17.709c-.135 3.989-.485 6.469-2.237 6.469-1.617 0-2.129-1-2.129-10.081 0-9.218 1.132-9.838 2.237-9.838 1.24 0 1.86 1.752 1.86 6.227l4.369-.135a36.87 36.87 0 00-.135 3.989 32.625 32.625 0 00.135 3.747zm13.45-.512c0 5.984-.755 7.089-1.86 7.089-1.24 0-1.86-1.24-1.86-7.089v-5.849c0-5.984.755-7.089 1.86-7.089 1.24 0 1.86 1.24 1.86 7.089zm12.076 7.116c-2.237 0-2.237-2.749-2.237-4.232h-4.475a40.419 40.419 0 00.377-5.849 24.911 24.911 0 00-.135-3.235c2.237 5.121 8.733 6.6 8.733 10.728a2.382 2.382 0 01-2.263 2.588zm-2.48-17.574c0-1.483.755-2.48 1.995-2.48 2.129 0 2.129 2.615 2.129 4.124h4.367v8.356c-2.507-4.529-8.491-6.281-8.491-10zM69.435 17.2c0 5.984-.755 7.224-1.86 7.224-1.24 0-1.86-1.24-1.86-7.224v-5.849c0-5.984.755-7.224 1.86-7.224 1.24 0 1.86 1.24 1.86 7.224zm11.321-4.232h-.485v-8.6h.377c1.752 0 3.369.135 3.369 4.232 0 3.5-1.132 4.365-3.261 4.365zM97.333 17.2c0 5.984-.755 7.224-1.86 7.224-1.24 0-1.86-1.24-1.86-7.224v-5.849c0-5.984.755-7.224 1.86-7.224 1.24 0 1.86 1.24 1.86 7.224V17.2zM115.662 0h5.229v28.545h-5.229zm20.189 0h-14.205v4.367h4.474v24.178h5.229V4.367h4.474V0m21.564 0v15.068h-.135L152.509 0h-5.121v24.933L144.261.027h-7.6l-3.989 28.545h4.367l.755-6.361h4.286l.755 6.361h9.084V11.24h.135l5.607 17.332h4.1V0zm-18.922 18.06l1.617-13.693h.135L141.7 18.06z" fill="#040217" opacity=".3"/></svg>