<svg xmlns="http://www.w3.org/2000/svg" width="105.706" height="34.514" viewBox="0 0 105.706 34.514"><path d="M1.543 15.869s6.866-.618 8.768-.779c-.982 10.276-3.164 14.23-7.518 17.04-.629.36-2.145 1.171-2.006 1.433.2.626 2.874.982 3.389.473a16.221 16.221 0 005.485-6.559c.463 3.057 2.035 3.807 2.862 4.074a3.776 3.776 0 003.088-.544 8.608 8.608 0 002.56-2.788c-.033.731-.31 4.939.035 5.12a2.763 2.763 0 002.141-.181c.173-.445.782-3.327.871-3.638 2.445-6.542 3.635-8.235 4.387-9.157.438-.589.525-.014.515.108s-.1 5.647-.1 5.647c0 2.789.639 4.239 1.916 5.009 1.029.622 2.411.605 4.081-.2 1.774 2.169 4.081 2.953 6.184 1.625 2.376-1.55 4.214-6.546 4.291-7.022s-.566-.788-.716-.507c-.448 1.185-2.725 4.708-4.349 5.787a2.027 2.027 0 01-1.7.254 4.737 4.737 0 01-1.858-1.173c6.375-4.886 5.782-12.386 1.403-12.536-5.953.22-4.713 10.384-4.33 11.639-1.549.538-1.939.317-2.048.143-.628-.731-.543-3.731-.475-6.378l.051-2.879a2.426 2.426 0 00-.7-1.977 1.629 1.629 0 00-1.426-.405c-1.4.262-3.153 2.72-5.61 8.236.02-.936.044-2.531.044-2.611 3.875-6.518 5.035-12.434 5.035-15.08v-.41c0-1.22-.054-2.2-.739-2.86a2.355 2.355 0 00-2.355-.507c-3.162.89-4.158 13.294-4.484 18.371-.352 3.359-2.8 7.36-4.988 6.523a3.359 3.359 0 01-1.342-2.883v-.281a94.188 94.188 0 011.029-11.137 38.945 38.945 0 004.579-.46c.477-.073 1.23-2.609.258-2.562a34.5 34.5 0 01-4.491.536c.1-.625.341-2.259.341-2.259l.271-1.71v-.038c0-.628-.579-1.075-1.657-1.3l-.1-.025-.184.035-.183.078-.18.325-.352 2.147s-.339 2.139-.462 2.9c-4.781.25-9.716.322-10.524.388s.472 2.961 1.29 2.955m21.24-9.336c.521-1.109 1.187-.635 1.224.3-.005 4.714-2.446 10.826-3.408 12.942.223-9.012 2.152-13.189 2.184-13.241m10.197 21.171a18.064 18.064 0 01.188-5.389c.264-1.628 1.7-2.95 2.38-2.637.83.451.866 1.648.7 3.011a7.258 7.258 0 01-3.268 5.015m72.022-17.411c-1.1.128-4.406.781-8.182 1.254.082-.722.5-3.428.5-3.428a.464.464 0 00.008-.058c0-.25-.193-.539-.985-1.1-.752-.538-1.493-.647-1.7-.2a399.237 399.237 0 01-.513 5.123c-3.727.432-7.056.778-7.87.806s-.032 2.889 1.106 2.8c0 0 4.954-.676 6.474-.877-.273 9.825-2.472 11.984-4.176 11.47.706-3.682-.7-6.573-2.549-7.324-.784-.333-2.99-.3-3.39 2.96a5.515 5.515 0 003.317 5.928c-1.29 4.987-7.155 3.967-6.49-1.279.43-3.421 1.527-5.182 2.389-6.155.922-1.007 1.751-1.1 1.751-1.248.379-.2-.247-1.8-.887-1.49-1.941 1.047-3.648 2.2-4.979 6.623-.561 2.16-1.4 5.006-2.131 6.012-.74.892-1.039.2-1.109-.192a44.308 44.308 0 01.191-7.742c0-1.8-.121-3.758-1.628-4.3-2.125-.621-4.012 1.761-5.228 3.886.172-1.127.36-3.05.36-3.05l.014-.1c0-.18-.085-.515-.62-.764a4.574 4.574 0 00-1.952.125 16.274 16.274 0 01-.2 2.027c-.543 3.441-1.209 10.393-6.067 9.968-2.677-.155-5.634-3.968-6.556-5.524 5.354-2.388 8.339-5.475 8.676-6.012s-1.114-2.474-1.631-2.077a15.862 15.862 0 01-7.2 5.756c.08-1 .391-4.717.4-4.832 2.238-4.108 5-9.969 5-13.715A4.013 4.013 0 0057.929.558a2.782 2.782 0 00-2.455-.429c-1.763.694-2.552 2.154-3.066 6.161-.005.018-.7 6.854-.7 6.854l-.308 3.422c-.956 1.534-3.458 5.132-3.458 5.2-.322.4.951 2.332 1.576 1.56 0 0 2.059-3.267 2.016-3.3-.1 1-.956 7.577-.956 7.577l-.515 5.1-.08.771c0 .516.64.6.908.645.418.044 1.762.163 1.916-.544 0-.048.436-3.959.486-6.383a8.7 8.7 0 006.971 4.82 7.017 7.017 0 004.874-1.952c-.594 2.388-.867 3.617-.845 3.665-.06.588 1.794.991 2.084.7.486-.4 2.806-10.761 5.568-13.166.169-.137 1.41-1.22 1.41.891-.085 1.518-.23 3.143-.23 4.011 0 3.074.23 6.4 2.93 6.4 1.286-.023 2.032-.749 2.979-2.692a5.679 5.679 0 004.336 3.365c2.721.2 4.866-2.039 5.6-4.841a4.06 4.06 0 003.779-1.349c.016.635.037 1.264.037 1.264.049-.031.27 5.4 4.324 5.481 1.672.044 4.347-.77 6.433-4.2.289-.451-1.1-2.73-1.476-2.046-.54 1.542-2.655 4.285-4.9 4-4.378-.825-1.406-12.213-.728-17.324 3.611-.517 7.984-1.149 8.455-1.295.9-.082 1.209-2.752.1-2.623M54.382 7.607a22.62 22.62 0 01.588-4.127c.3-1 .89-1.083 1.2-1.013a1.3 1.3 0 011 1.467 17.841 17.841 0 01-1.018 4.185c-.539 1.6-1.605 3.906-2.217 5.488.179-1.724.309-4.247.442-6m32.657 13.482a6.067 6.067 0 01.63 4.564c-1.672-.659-2.059-3.255-2.059-4.078.04-1.08.976-1.08 1.429-.486" fill="#040217" opacity=".3"/></svg>