<svg xmlns="http://www.w3.org/2000/svg" width="64.45" height="49.983" viewBox="0 0 64.45 49.983"><defs><style>.a{fill:#f6b81f}.b{fill:#e0a422}.c{fill:#cb9425}.d{fill:#d8a286;fill-rule:evenodd}</style></defs><path class="a" d="M14.206 17.276l1.785-3.592 3.992-.576-2.888-2.8.682-3.948-3.57 1.864-3.57-1.864.682 3.948-2.888 2.8 3.992.576z"/><path class="b" d="M14.207 17.275v-5.912l1.785 2.32zm5.777-4.167l-2.888-2.8-2.888 1.051zm-11.554 0l2.888-2.8 2.888 1.051z"/><path class="b" d="M10.636 6.364l3.57 1.864v3.136z"/><path class="c" d="M14.206 11.364V8.229l3.57-1.864z"/><path class="a" d="M30.784 10.911l1.785-3.592 3.992-.576-2.888-2.8.682-3.948-3.57 1.864-3.57-1.864.682 3.948-2.888 2.8 3.992.576z"/><path class="b" d="M30.785 10.91V4.996l1.785 2.32zm5.777-4.167l-2.888-2.8-2.888 1.051zm-11.554 0l2.888-2.8 2.888 1.051z"/><path class="b" d="M27.214 0l3.57 1.864v3.135z"/><path class="c" d="M30.784 4.999V1.864L34.354 0z"/><path class="a" d="M47.787 17.276l1.785-3.592 3.992-.576-2.888-2.8.682-3.948-3.57 1.864-3.57-1.864.682 3.948-2.888 2.8 3.992.576z"/><path class="b" d="M47.787 17.275v-5.912l1.785 2.32zm5.778-4.167l-2.888-2.8-2.889 1.051zm-11.555 0l2.888-2.8 2.888 1.051z"/><path class="b" d="M44.216 6.364l3.57 1.864v3.136z"/><path class="c" d="M47.787 11.364V8.229l3.57-1.864z"/><path class="a" d="M5.776 30.468l1.785-3.592 3.991-.576-2.888-2.8.682-3.948-3.57 1.864-3.57-1.864.682 3.948L0 26.3l3.991.576z"/><path class="b" d="M5.776 30.472V24.56l1.785 2.32zm5.777-4.171l-2.888-2.8-2.888 1.051zM0 26.301l2.888-2.8 2.888 1.051z"/><path class="b" d="M2.206 19.557l3.57 1.864v3.135z"/><path class="c" d="M5.776 24.556v-3.135l3.57-1.864z"/><path class="a" d="M58.674 30.468l1.785-3.592 3.992-.576-2.888-2.8.682-3.948-3.57 1.864-3.57-1.864.682 3.948-2.888 2.8 3.992.576z"/><path class="b" d="M58.674 30.472V24.56l1.785 2.32zm5.777-4.171l-2.888-2.8-2.888 1.051zm-11.554 0l2.888-2.8 2.888 1.051z"/><path class="b" d="M55.103 19.557l3.57 1.864v3.135z"/><path class="c" d="M58.673 24.556v-3.135l3.57-1.864z"/><path class="d" d="M33.843 49.57c.168-.082.8-.112 1.015-.221-1.036.078-1.036.038-1.015.221zM15.392 31.432a4.441 4.441 0 00-.01 1.52c-.049-.446.085-1.111.01-1.52zm16.518 18.12a.328.328 0 00.185.038l.264-.016-.2-.038c-.132-.015-.246-.016-.249.016zm1.034-.003l-.1.038.207.026c0-.016.095-.031.057-.044a1.191 1.191 0 00-.164-.02zm1.668-34.252l1.814.4.691.209a11.366 11.366 0 011.456.527l-.033-.029.7.314c.218.07.476.247.691.328.377.215.77.4 1.1.626a2.082 2.082 0 00.45.262l.877.6c.116.052.3.224.4.268s.161.1.222.129a2.518 2.518 0 00-.554-.485l-1.039-.71a3.214 3.214 0 00-.9-.521l-.681-.363a10.081 10.081 0 00-1.181-.515l-.439-.187a2.767 2.767 0 00-.746-.256l-.277-.089a.968.968 0 00-.239-.072l-.221-.061a11.461 11.461 0 00-2.078-.509c-.185-.027-.292-.021-.3.018s.103.083.287.116zm6.524 2.4l.016.01a1.106 1.106 0 01.226.15l-.226-.15c-.006 0-.013-.006-.018-.007zm5.748 24.91l-.008.012c-.009.013-.014.029-.024.042z"/><path class="d" d="M49.217 35.324v-.03a5.817 5.817 0 00.1-1.382 1.036 1.036 0 00-.039.112 1.521 1.521 0 00-.006-.282l-.013-.062.008-.083c0-.374.009-.747.013-1.142l-.042-.226a19.208 19.208 0 00-.58-3.238l-.089-.233a27.644 27.644 0 00-.924-2.631l-.128-.187-.1-.245a1.075 1.075 0 00-.207-.439 7.216 7.216 0 00-.915-1.553 26.023 26.023 0 00-1.707-2.07c-.3-.32-.477-.651-.786-.943-.3-.268-.351-.162-.781-.517-.463-.349-.909-.746-1.408-1.106l-.03.039c-.006-.025-.027-.062.03-.039l-.195-.137-.029.04-.6-.417-.224-.091-.072-.034-.044-.039c-.172-.137-.42-.22-.511-.336.115 0 .49.221.524.166a2.835 2.835 0 00-1.418-.578c-.136-.079-.329-.177-.314-.207.112-.091-.192-.195-.587-.328-.322-.1-.416-.076-.406 0l-.215-.091a.874.874 0 00-.237-.094l.031.027a2.355 2.355 0 00-.233-.1c-.276-.1-.716-.208-.568-.28.117-.049-.063-.13-.385-.229a2.155 2.155 0 00-.818-.165c.323.1.7.288.578.356-.139-.025-.3-.067-.462-.105a1.62 1.62 0 00-.315-.262c-.035-.045-.073-.085-.23-.124a.491.491 0 00-.268-.32c.153.01.319.026.483.043a5.16 5.16 0 011.424.45 3.206 3.206 0 00.939.293l1.314.557a30.331 30.331 0 013.087 1.671l-.019-.009c.557.345 1.039.851 1.578 1.255a4.589 4.589 0 01.7.629l.252.241c.171.151.347.35.513.532.516.635 1.01 1.189 1.442 1.792l-.039-.095.021.033.018.062a3.653 3.653 0 00.429.584l.074.1.06.107a8.561 8.561 0 00.615 1.1 2.106 2.106 0 01.116.2 9 9 0 00.354.725c.024.059.027.057.039.053.019.015.019-.008.006-.072a6.084 6.084 0 00-.875-1.957l-.391-.617a10.712 10.712 0 00-2.8-3.256 1.727 1.727 0 00-.381-.318 1.8 1.8 0 00-.391-.275l-.367-.3-.594-.509a11.533 11.533 0 00-2.882-1.765c-.462-.218-.974-.372-1.462-.629-.36-.2-.838-.394-.681-.156.023.053-.288-.039-.483-.1-.37-.105-.792-.256-1.192-.339a.551.551 0 01-.158-.038.711.711 0 00-.277-.059.529.529 0 01-.179-.037 10.487 10.487 0 00-1.052-.285 2.654 2.654 0 00-.456-.1c-.023-.044-.086-.079-.275-.1a1.963 1.963 0 00-.256-.038l-.062.01h-.022l.084-.012c-.042-.038-.128-.061-.341-.062l-.022-.007c-.021-.027-.107-.036-.258-.038a.453.453 0 01-.169.009c-.4.031-.792.087-1.187.156a3.424 3.424 0 00-.681.02 17.933 17.933 0 00-2.826.406v.017-.016a7.3 7.3 0 00-1.431.339 2.487 2.487 0 00-.716.187 3.008 3.008 0 00-.552.165c-.251.092-.15.122-.3.195a.792.792 0 00-.244.161c-.066.052-.382.193-.3.224.036.027.1.032.264-.007.067.048.255.024.527-.051l.052-.032a.226.226 0 00-.053.027l.575.1c.025.065.1.1.351.053a5.494 5.494 0 00-.39.259 3.747 3.747 0 00-1.055.649 10.623 10.623 0 00-1.464 1.119l.032-.025c-.231.246-.612.471-.774.7a4.725 4.725 0 00-.385.38l-.034.053-.064.054-.674.658a3.816 3.816 0 00-.826.829c-.309.418-.905 1.074-1.243 1.6a8.869 8.869 0 00-1.05 1.693l.028-.025c-.014.033-.017.032-.017.032l-.011-.007a15.892 15.892 0 00-.932 1.882 6.267 6.267 0 00-.467 1.278c-.035.112-.07.223-.1.336a11.354 11.354 0 00-.639 2.73 4.157 4.157 0 00-.029 1.341.223.223 0 01-.009.146 1.449 1.449 0 00-.053.443 4.96 4.96 0 00.032 1.38l.014.016s-.009 0-.014-.016a2.071 2.071 0 00.041.739 5.473 5.473 0 00.076.72.352.352 0 01.02.147 1.257 1.257 0 00.045.465 2.065 2.065 0 00.244.82 2.161 2.161 0 00.2.595l.226.739a9.894 9.894 0 00.47 1.2l.178.444a2.777 2.777 0 00.347.709l.133.26a1.032 1.032 0 00.118.219l.113.2a11.539 11.539 0 001.109 1.829c.113.15.192.221.225.2s-.021-.138-.128-.291c-.321-.5-.685-1.076-1-1.566l-.341-.636a11.391 11.391 0 01-.656-1.4v.044c-.1-.251-.177-.464-.272-.716-.1-.2-.162-.512-.256-.721a8.156 8.156 0 00-.1-.338c.011.02.02.04.032.059l.073.13-.029-.139a1.239 1.239 0 00-.015-.2 1.578 1.578 0 00-.078-.455h-.01.014a.71.71 0 00-.011-.151 14.085 14.085 0 00.5 1.555c.173.481.426.951.589 1.479.111.4.313.871.371.592.021-.054.176.232.271.412.187.337.379.742.6 1.083a.516.516 0 01.085.138.734.734 0 00.155.238.524.524 0 01.1.153 7.562 7.562 0 002.019 2.6 3.435 3.435 0 01.353.368 2.849 2.849 0 00.64.662 17.867 17.867 0 002.285 1.711v-.014l-.009.014a7.3 7.3 0 001.252.773 2.451 2.451 0 00.639.373 2.907 2.907 0 00.507.274c.243.114.193.021.348.073a.789.789 0 00.286.058c.083.009.407.134.371.056-.006-.045-.051-.1-.192-.183-.014-.081-.163-.2-.409-.337l-.058-.014a.178.178 0 00.057.018 138.63 138.63 0 00-.337-.475c.034-.075-.007-.177-.346-.368-.032-.068-.1-.147-.13-.221.245.114.516.221.752.3.255.088.4.08.424.032.062-.054-.224-.158-.4-.245-.2-.1-.362-.215-.373-.277-.024-.081.272.044.422.077a17.136 17.136 0 001.756.54 3.045 3.045 0 00.856.191l-.016-.012h.019v.008a6.066 6.066 0 001.155.2.587.587 0 01-.088-.038h.019l.069.034a4.355 4.355 0 001.11.094l-.037-.012h.037v.008a7.464 7.464 0 001.849.063c.513-.078 1.4-.119 2.011-.253a8.865 8.865 0 001.94-.455h-.037c.033-.014.034-.01.034-.01v.012a15.521 15.521 0 003.533-1.41 11.814 11.814 0 002.112-1.273c.026.029.1.015.229-.085l.067-.08-.069.078a.616.616 0 00.229-.048 3.623 3.623 0 01-.516.384l.015-.012c-.18.1-.429.295-.6.366-.4.134-.811.52-1.249.722l-.365.179c-.247.081-.552.3-.821.374l-.34.139a6.177 6.177 0 01-1.353.516l-.068.028-.053.014c-1.387.338-2.4.7-3.469.955a17.557 17.557 0 005.83-1.707l.4-.2a3.575 3.575 0 001.039-.549l.556-.349c.185-.092.407-.263.586-.369a1.36 1.36 0 01.167-.119 2.84 2.84 0 00.581-.419l.181-.138c.079-.05.183-.1.242-.151l.257-.252a.77.77 0 00.244-.188l.021-.011c.034 0 .1-.05.209-.156a.455.455 0 01.114-.126 16.737 16.737 0 001.5-2.139 7.03 7.03 0 00.46-.809 2.292 2.292 0 00.315-.539c.056-.077.113-.151.174-.221a14.045 14.045 0 00.871-2.735 3.717 3.717 0 00.286-1.2 10.5 10.5 0 00.244-1.826zm-3.271-12.835l-.01.007v-.023zm-21.294-5.951c0-.012-.03-.019.025-.048.016-.015.057-.023.074-.036-.05.04-.104.071-.099.084zm2.115 33.071c0 .011.009.035-.052.015-.022 0-.055-.023-.077-.026.063.009.124.025.129.012zm21.4-17.362h-.007v-.038zm-.107 2.308a4.728 4.728 0 000-1.068 3.894 3.894 0 01-.005 1.069zm.028-6.968c-.017-.016-.054-.11-.075-.123l-.033-.139c.034.094.081.207.103.263zm-.139 2.123h.009c-.005.021-.012.081-.027.045a.232.232 0 00.013-.045zm-.329 3.479v.019zm-.386-1.312a.776.776 0 01.019.164c-.01.148-.037-.015-.059-.089.013 0 .031-.001.037-.079zm-.228 2.589h.012l-.008.037c-.011.018-.01-.036-.01-.036zm-3.507 9.047c.027-.05.057-.1.085-.155a6.515 6.515 0 01.577-1.207 5.987 5.987 0 01-.577 1.207.365.365 0 00-.012.069zm-21.587-.254c-.019-.011-.045-.04-.062-.047l-.01-.013-.039-.038a.268.268 0 01.037.039l.014.01.033.02c.003.014.012.02.022.03zm-2.952-.876l-.022-.027c.031.02.045.01.036-.027l-.009-.015.014.014c-.156-.3-.291-.7-.157-.66.157.226.327.556.521.781l.286.42c.154.374.182.446.105.559-.093-.164-.232-.327-.376-.528a2.522 2.522 0 00-.383-.57c.002.037-.007.043-.02.054zm.466-5.465h.014v.036zm-.221 1.007a.12.12 0 00-.066-.036.488.488 0 01-.085.232c.02-.1.016-.243.085-.232a1.062 1.062 0 00.021-.205c.024.101.003.143.039.242zm-.54 2.966l-.017-.033a1.45 1.45 0 00.175.256l-.013.007zm-.263-1.59l-.068-.114-.031-.089zm-.526-2.181c-.014 0-.038-.03-.062-.08l-.008-.038c.014.054.046.123.065.118zm-1.528-1.4a.366.366 0 01-.025-.068.2.2 0 00.02.072zm.439 1.611c-.032.009-.014.114.023.251a.8.8 0 01-.088-.269c0-.052.034-.008.06.022zm.8-.939a1.036 1.036 0 01-.112-.342 2.632 2.632 0 00.111.346zm.123.9c-.011-.114-.024-.206.016-.215-.033.009-.028.103-.017.217zm-1.591-5.282v.033h-.008v-.034zm-.1.685v.035l-.03.246v.072-.072a1.381 1.381 0 01.03-.246zm-.282 2.676a.048.048 0 00.043-.021l.015.144a.742.742 0 00-.057-.124c-.044-.005-.093-.081-.14-.158a.448.448 0 01.133.161zm2.183 4.58l.089.217a.807.807 0 00.1.233v-.04a2.042 2.042 0 00.094.237c.126.264.359.653.2.6-.044-.018-.061 0-.059.035l-.136-.269c0-.127-.176-.351-.259-.548a2.176 2.176 0 00-.154-.495c.054.065.094.067.122.031zm4.29-18.872l.005-.008zm11.4-3.515v.022c0 .018-.091 0-.093.016-.006-.017.085-.018.089-.038zm-1.115-.152h-.108l.037-.005a1.834 1.834 0 01.307-.015c-.06.012-.2.001-.241.02zm.237.166a.326.326 0 01-.055 0h-.016l-.037.009h-.04c.02-.005.06 0 .077-.01h.016zm12 21.575a.228.228 0 01.051-.09h.009c-.018.035-.066.144-.061.09zm.039.118l-.014.026v-.032l-.016.018v-.01s.013-.008.021-.019l-.006.012zm1.727-4.927l-.018.14a.19.19 0 00-.016-.091c.013-.051.023-.032.033-.049zm-.328-8.468l.009.021-.009-.017-.022-.047a.551.551 0 01-.013-.056.418.418 0 00.034.096zm-.075-1.652l.009.013-.009-.013-.011-.016zm-.233-.209h-.007l-.011-.017c.013.02.016.017.016.017zm-5.052-4.462a2.611 2.611 0 00-.322-.163 1.049 1.049 0 01.32.163zm-1.01-.477a.243.243 0 01.077.016l.031.021a.442.442 0 00-.11-.04zm.108-.07c.018-.027-.052-.091-.14-.164.086.073.163.131.138.164zm-1.918-1.064l.085.041-.213-.074zm-1.7-1.03l.265.06.036.011a1.524 1.524 0 00-.305-.057zm-3.195-1.767c-.016 0-.026.009-.055.015v-.007zm-2.86.095h.04l-.162.008zm-11.507 8.317v.064a.118.118 0 01-.006-.065zm-.024.1v.005l-.065.031c.017-.02.039-.026.059-.038zm-3.167 10.344c-.008.024-.014.048-.032.028v-.038c.01.038.018.027.026.008zm.4 3.133v.005zm1.759 3.44l-.134-.333.056.078a1.55 1.55 0 00.124.322c-.025-.023-.04-.047-.056-.068zm1.147 2.2a5.2 5.2 0 01-.689-1.325c-.017-.055-.04-.111-.062-.168a1.607 1.607 0 01.127.24 2.52 2.52 0 00.262.457 1.022 1.022 0 00.081.078 10.17 10.17 0 001.136 1.427l-.032.039c-.142.094-.497-.342-.835-.749zm1-3.247c.091 0 .114-.126.072-.347l.078.391c.052.234-.079.049-.162-.048zm.2 3.019c.02.01-.023-.076.029-.02s.011.039.035.091zm1.129.011l.018-.014c.015-.011.068.062.078.054-.026.008-.091-.055-.107-.043zm.5.745c.049.028.144.137.184.15.023.028 0 0 .01.015l.063.063-.029-.022a1.8 1.8 0 01-.241-.209zm.245 3.285l-.026-.03.12.109zm.671-.288s-.005-.014 0-.019c-.114-.127-.18-.233-.29-.357l-.034-.021s.02.008 0-.005l.03.026c.268.215.305.3.29.357.022.025.034.045.062.072zm1.206-2.02l.135.051c-.026 0 .006.043.011.063a1.325 1.325 0 01-.159-.12zm.875 1.97v-.007l.012.015c-.025-.013-.026-.011-.026-.011zm1.8.138a.694.694 0 00.152.042c-.069-.017-.081.004-.17-.044zm.877.464c.016.007.017.005.017.005l-.016-.007h-.031a.588.588 0 01-.368-.056.929.929 0 01-.226-.091c-.01-.006-.015 0-.025-.009l-.11-.05.135.06c.076.033.153.065.226.091.127.032.233.027.368.056h.016c.003 0 0-.007 0-.008l-.141-.157-.022-.015.015.006c-.008-.01-.029-.026-.039-.038a3.706 3.706 0 01-.454-.339v.008l-.374-.233.332.2.046.025a1.519 1.519 0 01.454.339c.027.017.043.036.07.053l-.032-.015.008.009c.115.074.227.144.141.157zm.435.074l-.187-.081a2.316 2.316 0 00.222.087zm.965 1.256v-.006zm.922-.436c.021-.009-.045-.03-.042-.041a.39.39 0 00.092.056zm1.273.3v-.006l.033.014zm.836.12a2.472 2.472 0 00-.278-.124l.326.018c.047.031.094.069-.066.1zm1.328-1.053a.426.426 0 00.127.036.094.094 0 00.047.017.124.124 0 01-.047-.021l-.159-.033c.014-.001.014-.005.014-.005zm.17.256h.016a.458.458 0 01-.116.034.676.676 0 00.082-.039zm2.73 1.419l-.009.009a.124.124 0 01-.055.05l.055-.05a.048.048 0 00.006-.029c0 .022.06.033.1.049a.669.669 0 00-.115-.034zm1.43-1.671c-.066.021-.151.058-.161.024-.031.009 0-.012-.051 0l.007-.008.038-.014.006.024.1-.012.061-.012.034-.011zm3.307-1.517c-.222.106-.421.187-.5.146-.109-.033.116-.161.3-.283.081-.054.185-.131.123-.142-.132.028-.312.165-.41.154.165-.13.381-.2.556-.343-.042.011-.068.015-.081.007l-.021.007.014-.009h.007c.037-.012.072-.021.081-.007a.334.334 0 01.109-.066c.229-.087.466-.308.708-.41a3.519 3.519 0 00.867-.68l.014-.009.024-.022-.013.01c.2-.28-.066-.052-.231.072l-.074.059-.042.025c-.135.034-.367.251-.5.28a15.1 15.1 0 001.648-1.441l.11-.107a.077.077 0 00-.01.021c-.034.066.025.021.068-.037a.771.771 0 00.063-.087l-.009-.007c.093-.094.17-.185.172-.255a.759.759 0 01.129-.292c.132-.063.327-.256.412-.237-.076.124-.108.193-.1.241a6.175 6.175 0 00-.51.858 4.742 4.742 0 01-.449.765 8.09 8.09 0 00-.38.454l-.1.071a18.932 18.932 0 01-1.994 1.259zm.732-.134l.072-.043a.3.3 0 00.067-.031.351.351 0 01.085-.04.381.381 0 00-.085.04 1.026 1.026 0 01-.158.069zM19.678 21.57c-.061.175-.487.645-.562.873.677-.786.706-.759.562-.873z"/><path class="d" d="M15.392 30.616c.057-.2.095-.512.169-.686.187-.378.205-.941.373-1.394.036-.1.084-.245.131-.385.117-.232.181-.6.316-.844l.143-.339a6.2 6.2 0 01.592-1.322l.028-.068.028-.047c.433-.712.769-1.34 1.088-1.926l.274-.409c.085-.144.153-.274.127-.292 0 0 0-.005-.006-.007.1-.167.193-.332.294-.494a17.317 17.317 0 00-2.691 4.721c-.013-.059-.072.053-.116.188-.1.333-.238.669-.32.994a4.327 4.327 0 00-.274.975l-.146.639c-.066.2-.1.474-.154.676a1.253 1.253 0 01-.035.2 2.922 2.922 0 00-.115.706l-.03.226c-.02.091-.056.2-.064.279 0 .284-.005.546-.008.83a.256.256 0 00.012.056c.012.02.021.019.032-.037a.836.836 0 00.055-.227c.038-.13.031-.335.058-.5a1.222 1.222 0 01.01-.168 1.557 1.557 0 00.09-.48 1.554 1.554 0 01-.051.167l-.021.072v-.02c.007-.015.013-.035.02-.052l.051-.167c.081-.216.059-.631.144-.883zm30.158-9.268a4.41 4.41 0 00-1.068-1.081c.351.28.725.845 1.068 1.081zm1.866 2.663l.357.674a3.216 3.216 0 00.174.292c.1.115.063-.03-.014-.181a6.347 6.347 0 00-.736-1.293l-.115-.176c-.1-.139-.2-.278-.236-.256-.05-.017.042.125.109.233.161.246.313.524.461.707zm-26.359-3.797a.342.342 0 00-.158.105l-.175.2.171-.116c.102-.083.182-.163.162-.189zm-.729.734l.04-.095-.164.128c.011.012-.046.09-.009.072a1.279 1.279 0 00.133-.105zm27.575 20.048c-.039.05-.049-.049-.118.154-.013.042-.015.088-.005.092a1.5 1.5 0 00.127-.174c.036-.077.047-.141-.004-.072zm1.367-11.303c.052.034 0-.191-.018-.316l-.151-.744c-.063-.135-.1-.127-.094.022l.146.74c.042.163.087.303.117.298zm-7.92-10.831l.073.069-.036-.055z"/><path d="M40.38 30.245a18.795 18.795 0 01-12.508-4.433 4.438 4.438 0 00-4.433 4.433 4.444 4.444 0 001.57 3.38l6.761 6.716a.214.214 0 00.3 0l7.013-6.966a4.415 4.415 0 001.3-3.129z" fill="#fff"/></svg>