<svg xmlns="http://www.w3.org/2000/svg" width="180.309" height="28.889" viewBox="0 0 180.309 28.889"><defs><clipPath id="a"><path class="a" d="M38.111 22.875a9.8 9.8 0 013.7 7.289c-.178 5.7-2.869 9.371-7.493 10.944-5.342 1.61-8.727.307-12-3.03l-.546 3.393c5.7 3.743 13.969 5.6 19.207.438a13.548 13.548 0 00-.958-19.99l-1.907.956z" transform="translate(-21.769 -21.919)"/></clipPath><clipPath id="b"><path class="a" d="M4.537 22.8L6 21.52C2.658 16.782 2.518 9.845 7.094 6.027a11.994 11.994 0 0115.506.442L23.434 5A14.224 14.224 0 008.121 1.177C-2.338 5.291-.726 19.069 4.537 22.8z" transform="translate(-.41 -.336)"/></clipPath><style>.a{clip-rule:evenodd}.c{fill:none;fill-rule:evenodd}</style></defs><path fill="none" d="M0 0h180.309v28.889H0z"/><path d="M39.997 14.272c2.934 0 5.03-1.509 5.03-4.024v-.056c0-2.4-1.845-3.856-5-3.856h-6.035v7.936zm-8.214-8.857a1.116 1.116 0 011.09-1.118h7.32a7.712 7.712 0 015.56 1.956 5.406 5.406 0 011.508 3.856v.055c0 3.214-2.18 5.086-5.225 5.672l4.862 6.259a1.2 1.2 0 01.363.809 1.155 1.155 0 01-1.118 1.091 1.284 1.284 0 01-1.033-.588l-5.5-7.152h-5.615v6.622a1.103 1.103 0 11-2.207 0V5.415zM51.7 22.737V5.415a1.116 1.116 0 011.09-1.118h12.154a1.006 1.006 0 010 2.012H53.907v6.676h9.779a1.02 1.02 0 011.006 1.006 1 1 0 01-1.006 1.005h-9.779v6.846h11.176a1.006 1.006 0 010 2.011H52.79a1.115 1.115 0 01-1.09-1.117m24.724.42L68.881 5.75a1.023 1.023 0 01-.113-.5 1.135 1.135 0 011.119-1.089 1.234 1.234 0 011.144.838l6.762 16.2 6.788-16.26a1.3 1.3 0 011.09-.782 1.086 1.086 0 011.09 1.062 1.157 1.157 0 01-.084.446l-7.572 17.49a1.35 1.35 0 01-1.285.922h-.111a1.325 1.325 0 01-1.285-.922M90.837 5.276a1.103 1.103 0 112.207 0v17.6a1.103 1.103 0 11-2.207 0zm7.655 17.461V5.415a1.116 1.116 0 011.089-1.118h12.156a1.006 1.006 0 010 2.012h-11.038v6.676h9.779a1.019 1.019 0 011.006 1.006 1 1 0 01-1.006 1.005h-9.779v6.846h11.176a1.006 1.006 0 010 2.011H99.581a1.115 1.115 0 01-1.089-1.117m17.263-16.958a1.629 1.629 0 01-.111-.5 1.163 1.163 0 011.145-1.117 1.25 1.25 0 011.146.92l5.392 15.535 5.112-15.59a1.109 1.109 0 011.09-.866h.141a1.132 1.132 0 011.089.866l5.112 15.59 5.42-15.59a1.127 1.127 0 011.062-.866 1.154 1.154 0 011.118 1.089 1.908 1.908 0 01-.139.531l-6.259 17.377a1.237 1.237 0 01-1.145.95h-.167a1.238 1.238 0 01-1.145-.95l-5.086-15.03-5.058 15.03a1.236 1.236 0 01-1.145.95h-.167a1.206 1.206 0 01-1.146-.95zm30.474 15.732a1 1 0 01-.419-.839 1.069 1.069 0 011.063-1.09.975.975 0 01.669.251 8.89 8.89 0 006.175 2.32c2.626 0 4.358-1.4 4.358-3.325v-.056c0-1.816-.978-2.849-5.085-3.716-4.5-.977-6.567-2.431-6.567-5.644v-.055c0-3.073 2.71-5.336 6.426-5.336a9.973 9.973 0 016.23 1.927 1.135 1.135 0 01.475.894 1.061 1.061 0 01-1.061 1.062 1.028 1.028 0 01-.642-.2 8.183 8.183 0 00-5.058-1.7c-2.542 0-4.163 1.4-4.163 3.157v.05c0 1.845 1.006 2.878 5.309 3.8 4.358.95 6.37 2.541 6.37 5.531v.057c0 3.352-2.793 5.532-6.676 5.532a11.435 11.435 0 01-7.4-2.626m17.385.14a.714.714 0 01.734.734v.313a.742.742 0 11-1.484 0v-.313a.718.718 0 01.75-.734m3.361-5.828a.608.608 0 01.594-.61.6.6 0 01.61.61v7.016a.588.588 0 01-.595.61.6.6 0 01-.609-.61v-7.016zm-.11-3.062a.714.714 0 011.422 0v.2a.715.715 0 01-1.422 0zm10.8 6.609v-.031a3.058 3.058 0 00-3-3.158 2.983 2.983 0 00-2.954 3.127v.031a3.031 3.031 0 002.985 3.14 2.981 2.981 0 002.969-3.109m-7.189 0v-.031a4.212 4.212 0 018.423-.031v.031a4.194 4.194 0 01-4.235 4.219 4.139 4.139 0 01-4.188-4.188"/><path class="c" d="M21.547 6.196a9.8 9.8 0 013.7 7.289c-.178 5.7-2.869 9.371-7.493 10.944-5.342 1.61-8.727.307-12-3.03l-.546 3.393c5.7 3.743 13.969 5.6 19.207.438a13.548 13.548 0 00-.958-19.99l-1.907.956z"/><g transform="translate(5.205 5.24)" clip-path="url(#a)"><path d="M15.505-1.77A12.122 12.122 0 10-1.988 15.017l3.659 3.813A12.122 12.122 0 1019.165 2.044l-3.66-3.814z" fill="#feef7c" fill-rule="evenodd"/></g><path class="c" d="M4.225 22.544l1.463-1.28C2.346 16.526 2.206 9.589 6.782 5.771a11.994 11.994 0 0115.506.442l.834-1.469A14.224 14.224 0 007.809.921C-2.65 5.035-1.038 18.813 4.225 22.544z"/><g clip-path="url(#b)" transform="translate(.098 .08)"><path d="M21.28 4.058A12.122 12.122 0 003.787 20.845l3.659 3.813A12.122 12.122 0 1024.94 7.872l-3.66-3.814z" fill="#5cd3cb" fill-rule="evenodd"/></g><path d="M1.992 14.139A12.146 12.146 0 1014.137 1.992 12.146 12.146 0 001.992 14.139zm8.454 2.2a1 1 0 00-.354-1.1L6.23 12.355a.5.5 0 01.3-.9h4.616a1 1 0 00.946-.683l1.567-4.73a.5.5 0 01.945 0l1.584 4.736a1 1 0 00.945.68h4.626a.5.5 0 01.3.9l-3.86 2.901a1 1 0 00-.35 1.1l1.51 4.771a.5.5 0 01-.778.546l-3.848-2.954a1 1 0 00-1.216 0l-3.805 2.942a.5.5 0 01-.78-.544l1.511-4.787z"/></svg>